<svg id="Layer_2" data-name="Layer 2" xmlns="http://www.w3.org/2000/svg" viewBox="0 0 656.097 725.258" style="width: 100%; height: 100%;">
  <g id="Layer_2-2" data-name="Layer 2">
    <g>
      <path d="m212.886,255.059l-86.189,347.258c-7.437,29.962,5.25,61.327,31.465,77.63,32.877,20.445,87.228,42.575,170.344,45.113,88.095,2.69,146.706-22.619,181.363-45.592,25.103-16.64,36.994-47.29,29.739-76.519l-86.346-347.89" fill="#f4f4f4"></path>
      <g>
        <g>
          <ellipse cx="333.075" cy="201.415" rx="206.902" ry="69.773" fill="#262626"></ellipse>
          <path d="m333.075,272.346c-55.388,0-107.477-7.279-146.672-20.497-39.587-13.35-61.388-31.261-61.388-50.434s21.801-37.084,61.388-50.434c39.195-13.218,91.284-20.497,146.672-20.497s107.477,7.279,146.672,20.497c39.587,13.35,61.388,31.261,61.388,50.434s-21.801,37.084-61.388,50.434c-39.195,13.218-91.284,20.497-146.672,20.497Zm0-139.546c-55.143,0-106.969,7.236-145.932,20.375-38.57,13.007-59.812,30.139-59.812,48.24s21.242,35.233,59.812,48.24c38.963,13.139,90.789,20.375,145.932,20.375s106.969-7.236,145.932-20.375c38.57-13.007,59.812-30.139,59.812-48.24s-21.242-35.233-59.812-48.24c-38.963-13.139-90.789-20.375-145.932-20.375Z" fill="#262626"></path>
        </g>
        <ellipse cx="333.075" cy="169.823" rx="271.842" ry="74.785" fill="#367cff"></ellipse>
        <path d="m333.075,245.766c-72.713,0-141.087-7.794-192.529-21.945-51.893-14.276-80.472-33.452-80.472-53.997s28.579-39.721,80.472-53.997c51.441-14.152,119.816-21.946,192.529-21.946s141.087,7.794,192.529,21.946c51.893,14.276,80.472,33.452,80.472,53.997s-28.579,39.721-80.472,53.997c-51.441,14.152-119.816,21.945-192.529,21.945Zm0-149.569c-72.511,0-140.668,7.764-191.915,21.862-24.85,6.837-44.342,14.786-57.934,23.625-13.826,8.993-20.836,18.46-20.836,28.139s7.01,19.146,20.836,28.139c13.592,8.84,33.083,16.789,57.934,23.625,51.247,14.098,119.404,21.862,191.915,21.862s140.668-7.764,191.915-21.862c24.85-6.837,44.342-14.785,57.934-23.625,13.826-8.993,20.836-18.46,20.836-28.139s-7.01-19.146-20.836-28.139c-13.592-8.84-33.083-16.789-57.934-23.625-51.247-14.098-119.404-21.862-191.915-21.862Z" fill="#262626"></path>
        <path d="m458.153,126.236c0,33.061-57.3,40.849-117.053,42.264-65.096,1.542-133.104-9.709-133.104-42.264,0-69.079,55.999-125.078,125.078-125.078s125.078,55.999,125.078,125.078Z" fill="#fff"></path>
        <g>
          <path d="m441.919,119.691c-.623,0-1.137-.495-1.157-1.122-.369-11.95-2.703-23.619-6.937-34.682-.229-.597.07-1.267.667-1.495s1.266.07,1.495.667c4.327,11.305,6.712,23.228,7.089,35.438.02.639-.482,1.173-1.122,1.193-.012,0-.024,0-.037,0Z" fill="#262626"></path>
          <path d="m424.623,64.476c-.378,0-.749-.185-.971-.525-15.15-23.236-39.31-39.935-66.284-45.816-.625-.136-1.021-.753-.885-1.378.136-.625.753-1.022,1.378-.885,27.564,6.009,52.251,23.072,67.731,46.814.349.536.198,1.253-.337,1.602-.195.127-.415.188-.631.188Z" fill="#262626"></path>
        </g>
        <path d="m328.972,169.803c-55.299,0-97.405-9.297-113.895-25.402-5.467-5.338-8.238-11.45-8.238-18.165C206.839,56.629,263.468,0,333.075,0s126.236,56.629,126.236,126.236c0,15.595-12.434,27.072-36.957,34.112-18.869,5.417-45.438,8.462-81.226,9.31-4.116.098-8.172.146-12.155.146Zm4.102-167.488c-68.33,0-123.92,55.59-123.92,123.92,0,6.068,2.537,11.622,7.54,16.508,17.242,16.839,63.735,26.031,124.378,24.598,49.764-1.179,115.922-6.722,115.922-41.107,0-68.33-55.59-123.92-123.92-123.92Z" fill="#262626"></path>
        <g>
          <circle cx="130.668" cy="163.591" r="16.242" fill="#fff"></circle>
          <path d="m130.668,180.991c-9.594,0-17.4-7.806-17.4-17.4s7.806-17.4,17.4-17.4,17.4,7.806,17.4,17.4-7.806,17.4-17.4,17.4Zm0-32.485c-8.318,0-15.084,6.767-15.084,15.084s6.767,15.084,15.084,15.084,15.084-6.767,15.084-15.084-6.767-15.084-15.084-15.084Z" fill="#262626"></path>
        </g>
        <g>
          <circle cx="333.075" cy="210.106" r="16.242" fill="#fff"></circle>
          <path d="m333.075,227.506c-9.594,0-17.4-7.806-17.4-17.4s7.806-17.4,17.4-17.4,17.4,7.806,17.4,17.4-7.806,17.4-17.4,17.4Zm0-32.485c-8.318,0-15.084,6.767-15.084,15.084s6.767,15.084,15.084,15.084,15.084-6.767,15.084-15.084-6.767-15.084-15.084-15.084Z" fill="#262626"></path>
        </g>
        <g>
          <circle cx="535.446" cy="163.591" r="16.242" fill="#fff"></circle>
          <path d="m535.446,180.991c-9.594,0-17.4-7.806-17.4-17.4s7.806-17.4,17.4-17.4,17.4,7.806,17.4,17.4-7.806,17.4-17.4,17.4Zm0-32.485c-8.318,0-15.084,6.767-15.084,15.084s6.767,15.084,15.084,15.084,15.084-6.767,15.084-15.084-6.767-15.084-15.084-15.084Z" fill="#262626"></path>
        </g>
        <g>
          <circle cx="449.129" cy="193.864" r="16.242" fill="#fff"></circle>
          <path d="m449.129,211.264c-9.594,0-17.4-7.806-17.4-17.4s7.806-17.4,17.4-17.4,17.4,7.806,17.4,17.4-7.806,17.4-17.4,17.4Zm0-32.485c-8.318,0-15.084,6.767-15.084,15.084s6.767,15.084,15.084,15.084,15.084-6.767,15.084-15.084-6.767-15.084-15.084-15.084Z" fill="#262626"></path>
        </g>
        <g>
          <circle cx="217.02" cy="196.075" r="16.242" fill="#fff"></circle>
          <path d="m217.02,213.476c-9.594,0-17.4-7.806-17.4-17.4s7.806-17.4,17.4-17.4,17.4,7.806,17.4,17.4-7.806,17.4-17.4,17.4Zm0-32.485c-8.318,0-15.084,6.767-15.084,15.084s6.767,15.084,15.084,15.084,15.084-6.767,15.084-15.084-6.767-15.084-15.084-15.084Z" fill="#262626"></path>
        </g>
        <g>
          <path d="m505.301,111.96c-2.138,6.476-8.236,11.154-15.43,11.154-8.969,0-16.241-7.271-16.241-16.241,0-.363.015-.718.039-1.073,11.092,1.853,21.659,3.906,31.632,6.16Z" fill="#fff"></path>
          <path d="m489.87,124.271c-9.594,0-17.399-7.805-17.399-17.399,0-.388.016-.769.041-1.149l.084-1.277,1.262.211c11.154,1.863,21.819,3.94,31.697,6.173l1.244.281-.4,1.211c-2.359,7.147-9.002,11.949-16.53,11.949Zm-15.08-17.109c.155,8.183,6.86,14.793,15.08,14.793,6.095,0,11.521-3.631,13.878-9.158-9.079-2.025-18.807-3.918-28.958-5.635Z" fill="#262626"></path>
        </g>
        <g>
          <path d="m190.775,106.873c0,8.969-7.271,16.241-16.241,16.241-7.055,0-13.061-4.5-15.307-10.791,9.934-2.269,20.463-4.354,31.524-6.229.015.255.023.517.023.78Z" fill="#fff"></path>
          <path d="m174.534,124.271c-7.339,0-13.928-4.645-16.397-11.56l-.438-1.228,1.271-.29c9.983-2.281,20.611-4.381,31.588-6.242l1.271-.216.078,1.287c.017.278.025.563.025.85,0,9.594-7.805,17.399-17.399,17.399Zm-13.721-11.122c2.44,5.317,7.799,8.806,13.721,8.806,8.119,0,14.76-6.448,15.072-14.492-9.976,1.714-19.648,3.624-28.792,5.686Z" fill="#262626"></path>
        </g>
      </g>
      <g>
        <g>
          <polygon points="358.342 673.873 209.866 589.293 324.766 387.591 427.434 446.076 447.147 517.98 358.342 673.873" fill="#fff"></polygon>
          <circle cx="382.427" cy="564.561" r="8.844" fill="#367cff" opacity=".3"></circle>
          <circle cx="289.094" cy="517.98" r="8.844" fill="#367cff" opacity=".3"></circle>
          <path d="m358.774,675.452l-150.488-85.726,116.046-203.714,104.09,59.296,19.967,72.828-89.616,157.316Zm-147.329-86.592l146.463,83.434,87.995-154.471-19.46-70.978-101.245-57.674-113.754,199.689Z" fill="#262626"></path>
        </g>
        <polygon points="427.434 446.076 401.339 491.885 447.147 517.98 427.434 446.076" fill="#367cff" opacity=".3"></polygon>
        <path d="m447.147,519.137c-.197,0-.395-.05-.573-.152l-45.808-26.095c-.556-.316-.749-1.023-.433-1.579l26.095-45.808c.232-.407.687-.634,1.15-.576.465.058.848.391.972.843l19.714,71.903c.124.452-.037.933-.407,1.22-.208.161-.458.243-.71.243Zm-44.229-27.686l42.373,24.138-18.235-66.512-24.138,42.373Z" fill="#292a2e"></path>
        <circle cx="318.819" cy="499.364" r="6.98" fill="#292a2e"></circle>
        <circle cx="384.29" cy="529.133" r="6.98" fill="#292a2e"></circle>
        <path d="m354.624,578.924c-.625,0-1.14-.498-1.157-1.127-.318-11.769-6.959-22.524-17.33-28.068-9.628-5.146-21.146-5.169-30.812-.061-.565.299-1.266.083-1.565-.483s-.083-1.266.483-1.565c10.347-5.468,22.678-5.443,32.985.066,11.104,5.935,18.213,17.448,18.554,30.047.017.639-.487,1.171-1.126,1.189-.011,0-.021,0-.032,0Z" fill="#292a2e"></path>
        <path d="m324.892,492.222c-5.941,0-10.336-3.05-10.576-3.22-.522-.37-.645-1.092-.276-1.614.369-.521,1.091-.646,1.613-.276.092.064,6.885,4.727,14.474,1.828.599-.229,1.266.072,1.495.669.228.597-.071,1.267-.669,1.495-2.121.81-4.17,1.119-6.062,1.119Z" fill="#292a2e"></path>
        <path d="m396.387,525.498c-.126,0-.255-.021-.381-.065-9.763-3.404-10.871-10.928-10.914-11.247-.084-.634.361-1.216.995-1.3.631-.082,1.213.359,1.3.99.04.274,1.027,6.459,9.381,9.371.604.211.923.871.712,1.474-.167.478-.615.777-1.093.777Z" fill="#292a2e"></path>
      </g>
      <g>
        <path d="m11.817,256.217c-.64,0-1.158-.518-1.158-1.158v-32.669c0-.64.518-1.158,1.158-1.158s1.158.518,1.158,1.158v32.669c0,.64-.518,1.158-1.158,1.158Z" fill="#262626"></path>
        <g>
          <line x1="22.477" y1="238.725" x2="1.158" y2="238.725" fill="#fff"></line>
          <path d="m22.477,239.883H1.158c-.64,0-1.158-.518-1.158-1.158s.518-1.158,1.158-1.158h21.319c.64,0,1.158.518,1.158,1.158s-.518,1.158-1.158,1.158Z" fill="#262626"></path>
        </g>
      </g>
      <g>
        <path d="m567.903,438.17c-.64,0-1.158-.518-1.158-1.158v-49.694c0-.64.518-1.158,1.158-1.158s1.158.518,1.158,1.158v49.694c0,.64-.518,1.158-1.158,1.158Z" fill="#262626"></path>
        <g>
          <line x1="584.117" y1="412.165" x2="551.688" y2="412.165" fill="#fff"></line>
          <path d="m584.118,413.323h-32.429c-.64,0-1.158-.518-1.158-1.158s.518-1.158,1.158-1.158h32.429c.64,0,1.158.518,1.158,1.158s-.518,1.158-1.158,1.158Z" fill="#262626"></path>
        </g>
      </g>
      <g>
        <path d="m646.832,281.064c-.64,0-1.158-.518-1.158-1.158v-24.847c0-.64.518-1.158,1.158-1.158s1.158.518,1.158,1.158v24.847c0,.64-.518,1.158-1.158,1.158Z" fill="#262626"></path>
        <g>
          <line x1="654.939" y1="267.483" x2="638.725" y2="267.483" fill="#fff"></line>
          <path d="m654.94,268.641h-16.215c-.64,0-1.158-.518-1.158-1.158s.518-1.158,1.158-1.158h16.215c.64,0,1.158.518,1.158,1.158s-.518,1.158-1.158,1.158Z" fill="#262626"></path>
        </g>
      </g>
    </g>
  </g>
</svg>