<svg id="Layer_2" data-name="Layer 2" xmlns="http://www.w3.org/2000/svg" viewBox="0 0 735.22 535.256" style="width: 100%; height: 100%;">
  <g id="Layer_2-2" data-name="Layer 2">
    <g>
      <path d="m489.064,33.898C306.419-41.431,87.357,88.079,36.653,194.905c-121.751,256.512,91.015,374.9,184.615,331.595,39.075-18.079,70.993-48.948,101.842-78.982,45.623-44.419,108.383-70.769,172.04-72.232,49.561-1.139,98.885,12.16,148.306,8.255,49.42-3.906,93.075-72.063,91.735-121.619-2.045-75.638-50.27-147.245-246.126-228.024Z" fill="#367cff" opacity=".1"></path>
      <g>
        <g>
          <g>
            <g>
              <rect x="90.708" y="27.178" width="553.805" height="448.462" rx="29.687" ry="29.687" fill="#fff"></rect>
              <path d="m614.826,476.572H120.394c-16.883,0-30.619-13.735-30.619-30.619V56.865c0-16.883,13.735-30.619,30.619-30.619h494.432c16.883,0,30.619,13.735,30.619,30.619v389.088c0,16.883-13.735,30.619-30.619,30.619ZM120.394,28.109c-15.856,0-28.755,12.9-28.755,28.755v389.088c0,15.856,12.9,28.755,28.755,28.755h494.432c15.856,0,28.755-12.9,28.755-28.755V56.865c0-15.856-12.9-28.755-28.755-28.755H120.394Z" fill="#292a2e"></path>
            </g>
            <path d="m644.513,56.868v56.295H90.71v-56.295c0-16.4,13.285-29.693,29.685-29.693h494.432c16.392,0,29.685,13.293,29.685,29.693Z" fill="#367cff"></path>
            <path d="m645.513,114.162H89.711v-57.295c0-16.924,13.765-30.693,30.685-30.693h494.433c16.92,0,30.685,13.769,30.685,30.693v57.295Zm-553.802-2h551.802v-55.295c0-15.821-12.868-28.693-28.685-28.693H120.395c-15.816,0-28.685,12.872-28.685,28.693v55.295Z" fill="#367cff"></path>
          </g>
          <g>
            <g>
              <rect x="186.073" y="21.71" width="69.261" height="27.704" rx="13.852" ry="13.852" transform="translate(256.266 -185.141) rotate(90)" fill="#fff"></rect>
              <path d="m220.704,71.124c-8.152,0-14.784-6.632-14.784-14.784V14.784c0-8.152,6.632-14.784,14.784-14.784s14.783,6.632,14.783,14.784v41.556c0,8.152-6.632,14.784-14.783,14.784Zm0-69.261c-7.125,0-12.921,5.796-12.921,12.921v41.556c0,7.125,5.796,12.921,12.921,12.921s12.92-5.796,12.92-12.921V14.784c0-7.125-5.796-12.921-12.92-12.921Z" fill="#262626"></path>
            </g>
            <g>
              <rect x="479.886" y="21.71" width="69.261" height="27.704" rx="13.852" ry="13.852" transform="translate(550.079 -478.955) rotate(90)" fill="#fff"></rect>
              <path d="m514.517,71.124c-8.151,0-14.783-6.632-14.783-14.784V14.784c0-8.152,6.632-14.784,14.783-14.784s14.784,6.632,14.784,14.784v41.556c0,8.152-6.632,14.784-14.784,14.784Zm0-69.261c-7.124,0-12.92,5.796-12.92,12.921v41.556c0,7.125,5.796,12.921,12.92,12.921s12.921-5.796,12.921-12.921V14.784c0-7.125-5.796-12.921-12.921-12.921Z" fill="#262626"></path>
            </g>
          </g>
        </g>
        <g fill="none" opacity=".08">
          <rect x="117.769" y="152.996" width="79.729" height="78.365" fill="#367cff"></rect>
          <rect x="117.769" y="253.152" width="79.729" height="78.365" fill="#367cff"></rect>
          <rect x="117.769" y="353.309" width="79.729" height="78.365" fill="#367cff"></rect>
          <rect x="222.751" y="152.996" width="79.729" height="78.365" fill="#367cff"></rect>
          <rect x="222.751" y="253.152" width="79.729" height="78.365" fill="#367cff"></rect>
          <rect x="326.676" y="152.996" width="79.729" height="78.365" fill="#367cff"></rect>
          <rect x="326.676" y="253.152" width="79.729" height="78.365" fill="#367cff"></rect>
          <rect x="433.542" y="152.996" width="79.729" height="78.365" fill="#367cff"></rect>
          <rect x="433.542" y="253.152" width="79.729" height="78.365" fill="#367cff"></rect>
          <rect x="222.751" y="353.309" width="79.729" height="78.365" fill="#367cff"></rect>
          <rect x="326.676" y="353.309" width="79.729" height="78.365" fill="#367cff"></rect>
          <rect x="537.722" y="152.996" width="79.729" height="78.365" fill="#367cff"></rect>
          <rect x="537.722" y="253.152" width="79.729" height="78.365" fill="#367cff"></rect>
        </g>
        <g>
          <g>
            <g>
              <circle cx="316.224" cy="252.535" r="14.988" fill="#292a2e"></circle>
              <circle cx="418.996" cy="252.535" r="14.988" fill="#292a2e"></circle>
            </g>
            <path d="m387.705,293.986h-40.189c-.553,0-1-.448-1-1s.447-1,1-1h40.189c.553,0,1,.448,1,1s-.447,1-1,1Z" fill="#262626"></path>
          </g>
          <g>
            <ellipse cx="300.763" cy="288.372" rx="13.37" ry="7.037" fill="#fff"></ellipse>
            <ellipse cx="434.457" cy="288.372" rx="13.37" ry="7.037" fill="#fff"></ellipse>
          </g>
          <g fill="none" opacity=".4">
            <ellipse cx="300.763" cy="288.372" rx="13.37" ry="7.037" fill="#367cff"></ellipse>
            <ellipse cx="434.457" cy="288.372" rx="13.37" ry="7.037" fill="#367cff"></ellipse>
          </g>
        </g>
      </g>
    </g>
  </g>
</svg>