<svg width="992" height="553" viewBox="0 0 992 553" fill="none" xmlns="http://www.w3.org/2000/svg">
<g clip-path="url(#clip0_1_3)">
<path d="M966.101 214.045L955.592 240.933L963.043 243.845L973.552 216.957L966.101 214.045Z" fill="#367CFF"/>
<path d="M309.591 148.112L303.632 153.449L322.892 174.954L328.851 169.617L309.591 148.112Z" fill="#0CBC8B"/>
<path d="M397.892 244.364L374.786 261.672L379.583 268.075L402.689 250.768L397.892 244.364Z" fill="#367CFF"/>
<path d="M665.134 45.757L659.652 51.5831L680.677 71.3676L686.159 65.5415L665.134 45.757Z" fill="#367CFF"/>
<path d="M512.257 52.1904L497.869 77.2192L504.804 81.2064L519.193 56.1776L512.257 52.1904Z" fill="#0CBC8B"/>
<path d="M721.197 266.228L714.432 270.497L729.838 294.911L736.604 290.642L721.197 266.228Z" fill="#0CBC8B"/>
<path d="M407.485 385.113L400.328 388.689L413.23 414.514L420.387 410.939L407.485 385.113Z" fill="#0CBC8B"/>
<path d="M302.781 317.162L294.491 344.815L302.153 347.112L310.443 319.459L302.781 317.162Z" fill="#367CFF"/>
<path d="M803.579 403.332L779.603 419.411L784.058 426.055L808.035 409.976L803.579 403.332Z" fill="#367CFF"/>
<path d="M807.171 0.00217049L792.783 25.0303L799.718 29.0174L814.106 3.98922L807.171 0.00217049Z" fill="#0CBC8B"/>
<path d="M7.45043 204.76L-0.000610352 207.672L10.5091 234.561L17.9601 231.648L7.45043 204.76Z" fill="#0CBC8B"/>
<path d="M741.797 148L737 154.404L760.106 171.711L764.902 165.307L741.797 148Z" fill="#0CBC8B"/>
<path d="M131.88 53.5859L110.855 73.3705L116.337 79.1966L137.362 59.4121L131.88 53.5859Z" fill="#367CFF"/>
<path d="M364.755 30.0258L357.819 34.013L372.208 59.0418L379.144 55.0546L364.755 30.0258Z" fill="#367CFF"/>
<path d="M81.8673 344.275L66.4606 368.689L73.2262 372.959L88.6328 348.545L81.8673 344.275Z" fill="#0CBC8B"/>
<path d="M13.4368 411.152L8.98108 417.796L32.9579 433.875L37.4136 427.231L13.4368 411.152Z" fill="#367CFF"/>
<path d="M939.182 92.3337L932.246 96.3208L946.634 121.349L953.57 117.362L939.182 92.3337Z" fill="#367CFF"/>
<path d="M803.433 285.056C803.662 285.026 806.197 327.095 855.069 323.428C888.903 320.893 900.967 284.997 901.742 284.997C898.094 284.222 893.586 283.045 891.794 282.641C885.842 281.3 878.411 276.388 876.694 266.042C875.704 260.079 877.383 229.572 876.866 223.539L824.931 235.131C825.657 247.873 830.736 277.414 812.934 282.642C809.972 283.507 806.781 284.302 803.432 285.057L803.433 285.056Z" fill="#FF9E85"/>
<path opacity="0.22" d="M824.204 270.568C824.94 268.22 825.377 266.178 825.766 262.507C826.462 255.943 826.091 249.908 825.427 243.759C835.919 242.362 845.992 237.949 854.131 231.184C855.095 234.745 860.399 250.307 858.931 253.692C856.155 260.09 843.112 270.567 824.205 270.567L824.204 270.568Z" fill="#0C0C0C"/>
<path d="M803.368 180.424C803.368 180.424 790.733 166.818 791.621 140.824C792.309 120.698 808.156 136.631 808.156 136.631C808.156 136.631 808.792 122.144 818.851 125.38C828.91 128.616 832.047 144.511 832.047 144.511" fill="#0C0C0C"/>
<path d="M871.858 136.505C871.858 136.505 922.049 151.08 891.236 217.127L886.655 216.626L877.355 215.609" fill="#0C0C0C"/>
<path d="M830.437 257.847C850.932 259.622 877.341 251.165 882.554 223.843L887.258 199.19C892.471 171.868 882.347 146.982 856.622 142.074C830.897 137.166 807.443 155.646 802.23 182.967L800.148 193.881C799.719 196.128 799.186 200.204 798.973 205.254C798.547 215.329 797.939 230.655 802.821 241.963C807.429 252.638 817.344 256.713 830.437 257.847Z" fill="#FF9E85"/>
<path d="M812.686 196.52C812.748 194.944 811.521 193.616 809.945 193.553C808.369 193.491 807.041 194.717 806.978 196.293C806.916 197.87 808.143 199.198 809.719 199.261C811.295 199.323 812.623 198.096 812.686 196.52Z" fill="#0A0A0A"/>
<path d="M827.87 221.265C828.447 221.288 828.96 220.871 829.044 220.287C829.135 219.663 828.702 219.083 828.077 218.993L822.058 218.121L826.258 206.195C826.467 205.6 826.155 204.948 825.559 204.738C824.964 204.529 824.312 204.841 824.102 205.436L819.441 218.673C819.328 218.995 819.365 219.352 819.542 219.644C819.719 219.936 820.017 220.134 820.356 220.183L827.751 221.254C827.791 221.26 827.831 221.263 827.87 221.265Z" fill="#0A0A0A"/>
<path d="M839.138 185.91C838.83 186.749 841.873 188.143 846.175 189.482C850.477 190.821 854.381 191.817 854.719 190.756C855.146 189.417 852.032 186.099 847.73 184.761C843.427 183.423 839.622 184.59 839.138 185.91Z" fill="#0A0A0A"/>
<path d="M843.465 199.579C843.527 198.003 842.3 196.674 840.724 196.612C839.148 196.549 837.82 197.776 837.757 199.352C837.695 200.928 838.922 202.257 840.498 202.319C842.074 202.382 843.402 201.155 843.465 199.579Z" fill="#0A0A0A"/>
<path d="M804.458 185.131C804.517 186.023 807.864 186.063 812.339 185.54C816.815 185.017 820.786 184.345 820.665 183.238C820.512 181.841 816.787 179.992 812.311 180.515C807.835 181.038 804.364 183.728 804.457 185.131H804.458Z" fill="#0A0A0A"/>
<path d="M879.368 231.862C887.186 233.354 895.119 226.199 896.61 218.382C898.102 210.564 892.587 205.044 884.769 203.552L879.741 208.022L872.646 230.58L879.368 231.862Z" fill="#FF9E85"/>
<path d="M876.235 218.096C874.907 217.981 873.92 216.821 874.028 215.493C874.73 206.913 876.35 177.997 866.722 174.188C859.18 171.204 838.232 178.933 821.251 172.458C813.822 169.625 806.184 170.232 804.796 173.732C804.246 175.118 803.128 153.6 817.956 140.054C829.762 129.269 861.764 131.317 875.31 137.947C912.82 156.307 886.081 205.545 886.081 205.545L882.532 216.741C882.189 217.822 881.143 218.521 880.013 218.423L876.235 218.096Z" fill="#0C0C0C"/>
<path d="M845.108 145.062C848.408 136.842 846.556 128.361 840.972 126.119C835.387 123.877 828.185 128.723 824.885 136.943C821.585 145.163 823.436 153.644 829.021 155.886C834.605 158.128 841.808 153.282 845.108 145.062Z" fill="#0C0C0C"/>
<path d="M821.504 229.786C821.075 229.758 820.754 230.155 820.851 230.575C822.111 236.017 827.191 239.165 832.865 238.307C838.539 237.449 842.733 232.929 842.392 227.381C842.365 226.938 841.913 226.654 841.504 226.828C840.201 227.381 837.154 228.434 831.4 229.26C826.457 229.97 822.992 229.882 821.503 229.786H821.504Z" fill="white"/>
<path d="M101.956 192.418C101.956 192.418 103.271 231.881 97.003 244.253C78.958 279.87 75.039 306.911 97.749 324.967C120.458 343.023 254.386 331.738 260.584 285.161C265.802 245.948 247.118 243.394 239.918 212.039C236.66 197.852 228.509 168.217 228.509 168.217" fill="#0A0A0A"/>
<path d="M219.739 285.013C219.51 284.983 216.969 327.15 167.983 323.474C134.07 320.934 121.979 284.953 121.202 284.953C124.858 284.176 131.015 283.046 132.639 282.179C137.979 279.31 144.586 276.324 146.308 265.954C147.3 259.977 145.617 229.399 146.135 223.352L198.191 234.971C197.464 247.743 192.373 277.352 210.216 282.592C213.185 283.459 216.383 284.256 219.74 285.013H219.739Z" fill="#FF9E85"/>
<path opacity="0.22" d="M198.92 270.491C198.183 268.137 197.744 266.091 197.354 262.412C196.657 255.832 197.028 249.784 197.694 243.621C187.178 242.221 177.082 237.798 168.923 231.016C167.956 234.586 162.64 250.184 164.112 253.577C166.894 259.99 179.968 270.492 198.919 270.492L198.92 270.491Z" fill="#0C0C0C"/>
<path d="M192.128 255.938C171.587 259.737 151.533 253.309 143.599 226.203L131.975 202.195C124.041 175.089 131.846 148.947 157.368 141.477C182.89 134.007 204.62 140.556 212.554 167.662C212.554 167.662 217.329 183.148 218.35 188.444C222.2 208.417 223.293 250.174 192.126 255.938H192.128Z" fill="#FF9E85"/>
<path d="M198.186 225.919C198.62 225.84 198.993 226.207 198.943 226.646C198.298 232.336 193.494 236.137 187.615 235.929C181.736 235.721 176.936 231.609 176.632 225.92C176.608 225.466 177.035 225.124 177.471 225.252C178.862 225.662 182.089 226.377 188.046 226.544C193.163 226.687 196.681 226.192 198.186 225.919Z" fill="white"/>
<path d="M213.51 184.771C213.502 185.676 210.121 185.913 205.564 185.648C201.007 185.382 196.952 184.935 197.009 183.809C197.081 182.387 200.853 181.45 205.409 181.716C209.966 181.982 213.522 183.347 213.51 184.771Z" fill="#0A0A0A"/>
<path d="M112.024 212.918L142.094 218.126C159.048 209.252 154.214 166.399 154.214 166.399C154.214 166.399 177.707 185.198 228.51 168.217C228.51 168.217 211.212 99.067 136.503 127.666C112.413 136.888 97.317 165.879 102.798 199.003C106.639 222.216 112.024 212.918 112.024 212.918Z" fill="#0A0A0A"/>
<path d="M143.137 234.447C135.381 236.717 126.969 234.706 123.583 223.022C121.334 215.26 127.16 208.63 134.916 206.36L140.434 210.387L149.806 232.495L143.138 234.447H143.137Z" fill="#FF9E85"/>
<path d="M201.253 197.459C202.842 197.303 204.004 195.888 203.849 194.299C203.693 192.709 202.278 191.547 200.688 191.702C199.099 191.858 197.936 193.273 198.092 194.863C198.248 196.452 199.663 197.615 201.253 197.459Z" fill="#0A0A0A"/>
<path d="M188.549 218.447C187.966 218.504 187.424 218.113 187.304 217.527C187.176 216.901 187.579 216.289 188.206 216.161L194.242 214.926L189.294 203.113C189.048 202.523 189.325 201.846 189.915 201.599C190.504 201.353 191.182 201.63 191.429 202.219L196.919 215.331C197.052 215.65 197.036 216.013 196.874 216.319C196.712 216.625 196.422 216.842 196.083 216.912L188.668 218.43C188.628 218.438 188.588 218.444 188.548 218.448L188.549 218.447Z" fill="#0A0A0A"/>
<path d="M178.486 186.611C178.846 187.442 175.852 189.03 171.579 190.636C167.307 192.242 163.418 193.479 163.014 192.426C162.503 191.097 165.57 188.711 169.843 187.105C174.115 185.499 177.919 185.305 178.486 186.611Z" fill="#0A0A0A"/>
<path d="M172.564 202.124C174.154 201.968 175.316 200.553 175.161 198.963C175.005 197.373 173.589 196.21 171.999 196.366C170.409 196.522 169.246 197.937 169.402 199.527C169.558 201.117 170.973 202.28 172.564 202.124Z" fill="#0A0A0A"/>
<path d="M123.714 201.94L124.43 212.959C126.269 210.246 129.111 208.207 132.567 207.448C133.425 207.248 134.289 207.174 135.138 207.162C140.797 210.808 137.811 218.773 142.094 218.125C144.527 217.757 149.535 211.439 150.521 207.727C151.146 205.374 144.183 197.264 143.976 194.838" fill="#0A0A0A"/>
<path d="M638.608 160.541L619.348 182.046L625.307 187.384L644.567 165.879L638.608 160.541Z" fill="#367CFF"/>
<path d="M469.526 402.939L456.624 428.764L463.78 432.34L476.682 406.514L469.526 402.939Z" fill="#0CBC8B"/>
<path d="M574.233 334.989L566.571 337.286L574.861 364.939L582.523 362.642L574.233 334.989Z" fill="#367CFF"/>
<path d="M576.813 350.77L549.546 330.043C547.036 328.135 543.397 328.751 541.676 331.477C540.15 333.893 540.936 337.112 543.211 338.842L549.058 343.286L524.256 337.749C521.509 337.085 517.714 338.028 517.173 341.158C516.569 343.66 517.81 346.171 520.018 347.274C520.009 347.3 519.991 347.322 519.987 347.35C519.982 347.371 519.987 347.392 519.986 347.413L515.75 346.39C512.483 345.601 509.193 347.953 509.056 351.504C508.955 354.105 510.87 356.361 513.4 356.972L515.203 357.408C515.215 357.466 515.236 357.521 515.267 357.571C512.687 357.547 510.347 359.375 509.879 362.07C509.382 364.927 511.381 367.635 514.199 368.316L518.676 369.398C518.532 369.458 518.415 369.577 518.374 369.742C518.353 369.839 518.369 369.932 518.401 370.019C516.181 370.618 514.423 372.603 514.381 375.227C514.34 377.78 516.246 379.96 518.729 380.56L556.503 389.686C567.313 392.298 578.627 388.089 585.102 379.047C590.777 371.123 589.118 360.122 581.358 354.223L576.814 350.769L576.813 350.77Z" fill="#FF9E85"/>
<g opacity="0.2">
<path d="M544.54 352.877C544.474 353.14 544.211 353.304 543.945 353.244L520.365 347.949C520.096 347.888 519.926 347.621 519.987 347.351C520.024 347.093 520.315 346.912 520.585 346.973L544.165 352.268C544.434 352.329 544.604 352.596 544.543 352.866L544.54 352.877Z" fill="#0C0C0C"/>
</g>
<g opacity="0.2">
<path d="M542.491 363.341C542.425 363.604 542.162 363.768 541.896 363.708L515.581 357.798C515.312 357.737 515.142 357.47 515.203 357.2C515.26 356.954 515.531 356.762 515.801 356.822L542.116 362.732C542.385 362.793 542.555 363.06 542.494 363.33L542.491 363.341Z" fill="#0C0C0C"/>
</g>
<g opacity="0.2">
<path d="M540.338 374.687C540.272 374.95 540.009 375.114 539.743 375.054L518.752 370.34C518.483 370.279 518.313 370.012 518.374 369.742C518.441 369.471 518.702 369.304 518.972 369.364L539.963 374.078C540.232 374.139 540.402 374.406 540.341 374.676L540.338 374.687Z" fill="#0C0C0C"/>
</g>
<path d="M447.36 208.206L462.584 177.525C463.986 174.701 467.52 173.637 470.272 175.314C472.713 176.801 473.438 180.034 472.168 182.594L468.903 189.173L488.665 173.196C490.831 171.382 494.65 170.54 496.525 173.104C498.178 175.077 498.181 177.878 496.692 179.847C496.712 179.866 496.737 179.878 496.753 179.901C496.767 179.918 496.771 179.939 496.782 179.957L500.122 177.159C502.698 175.001 506.691 175.647 508.391 178.768C509.636 181.053 508.923 183.925 506.928 185.597L505.506 186.788C505.521 186.845 505.527 186.904 505.521 186.963C507.822 185.795 510.73 186.394 512.347 188.6C514.061 190.939 513.473 194.253 511.251 196.115L507.72 199.073C507.876 199.063 508.033 199.117 508.144 199.247C508.206 199.324 508.233 199.415 508.243 199.507C510.498 199.058 512.955 200.055 514.158 202.388C515.329 204.658 514.589 207.458 512.631 209.097L482.841 234.051C474.316 241.192 462.31 242.447 452.492 237.222C443.888 232.643 440.488 222.05 444.82 213.319L447.357 208.206H447.36Z" fill="#FF9E85"/>
<g opacity="0.2">
<path d="M477.211 195.758C477.387 195.964 477.696 195.994 477.907 195.822L496.681 180.604C496.895 180.43 496.928 180.115 496.754 179.901C496.607 179.686 496.265 179.654 496.051 179.828L477.277 195.046C477.063 195.22 477.03 195.535 477.204 195.749L477.212 195.758H477.211Z" fill="#0C0C0C"/>
</g>
<g opacity="0.2">
<path d="M483.694 204.224C483.87 204.43 484.179 204.46 484.39 204.288L505.342 187.305C505.556 187.131 505.589 186.816 505.415 186.602C505.255 186.407 504.926 186.355 504.712 186.529L483.76 203.512C483.546 203.686 483.513 204.001 483.687 204.215L483.695 204.224H483.694Z" fill="#0C0C0C"/>
</g>
<g opacity="0.2">
<path d="M490.663 213.432C490.839 213.638 491.148 213.668 491.359 213.496L508.072 199.949C508.286 199.775 508.319 199.46 508.145 199.246C507.965 199.033 507.656 198.999 507.442 199.173L490.729 212.72C490.515 212.894 490.482 213.209 490.656 213.423L490.664 213.432H490.663Z" fill="#0C0C0C"/>
</g>
<path d="M260.143 290.012L408.07 339.459L364.639 358.764L438.395 207.445L498.678 235.539L430.241 389.337C422.99 405.632 404.956 413.761 388.28 409.06L386.809 408.642L236.642 366.482L260.142 290.012H260.143Z" fill="#367CFF"/>
<path d="M167.152 313.021C133.06 311.414 131.625 282.477 131.625 282.477C131.625 282.477 114.733 283.569 103.504 285.088C85.12 287.575 72.992 293.809 63.341 303.46C54.363 312.438 48.897 322.152 54.681 384.171C58.869 429.077 55.921 527.85 55.921 527.85H263.671C263.671 527.85 278.178 385.153 279.898 364.939C283.181 326.35 292.453 317.831 273.666 297.953C260.041 283.537 224.869 282.477 210.708 282.479C210.477 282.479 213.581 315.209 167.153 313.02L167.152 313.021Z" fill="#367CFF"/>
<path d="M279.436 378.996C279.415 378.996 279.395 378.996 279.374 378.992C279.101 378.959 278.905 378.709 278.939 378.434L282.156 352.357C282.189 352.083 282.428 351.884 282.714 351.922C282.987 351.955 283.183 352.205 283.149 352.48L279.932 378.557C279.901 378.81 279.685 378.995 279.437 378.995L279.436 378.996Z" fill="#0C0C0C"/>
<path d="M856.326 313.021C890.418 311.414 891.853 282.477 891.853 282.477C891.853 282.477 908.745 283.569 919.974 285.088C938.358 287.575 950.486 293.809 960.137 303.46C969.115 312.438 974.581 322.152 968.797 384.171C964.609 429.077 967.557 527.85 967.557 527.85H759.807C759.807 527.85 745.3 385.153 743.58 364.939C740.297 326.35 731.025 317.831 749.812 297.953C763.437 283.537 798.609 282.477 812.77 282.479C813.001 282.479 809.897 315.209 856.325 313.02L856.326 313.021Z" fill="#367CFF"/>
<path d="M743.089 306.891L689.375 420.763L583.45 341.107L541.378 397.053L681.639 502.529C682.827 503.409 684.242 504.347 685.566 505.089C702.42 514.532 723.739 508.524 733.182 491.669L733.789 490.585L815.737 344.317L743.089 306.891Z" fill="#367CFF"/>
<path d="M769.748 379.11H263.129V552.281H769.748V379.11Z" fill="white"/>
<path d="M770.247 552.782H262.629V378.611H770.247V552.782ZM263.629 551.782H769.247V379.611H263.629V551.782Z" fill="#0C0C0C"/>
<path d="M238.113 432.034L269.386 418.067C272.265 416.781 275.668 418.211 276.723 421.257C277.658 423.958 276.16 426.913 273.55 428.078L266.844 431.073L292.255 431.334C295.081 431.314 298.561 433.096 298.375 436.268C298.393 438.842 296.613 441.004 294.211 441.575C294.214 441.602 294.226 441.628 294.223 441.656C294.223 441.678 294.213 441.696 294.21 441.717L298.568 441.686C301.928 441.662 304.596 444.702 303.92 448.191C303.425 450.746 301.047 452.506 298.444 452.525L296.59 452.538C296.565 452.592 296.532 452.641 296.49 452.682C299.008 453.246 300.869 455.56 300.711 458.29C300.544 461.185 297.981 463.366 295.081 463.387L290.475 463.42C290.602 463.511 290.689 463.653 290.691 463.824C290.69 463.923 290.653 464.01 290.602 464.088C292.627 465.177 293.886 467.511 293.329 470.075C292.787 472.571 290.434 474.259 287.88 474.277L249.02 474.554C237.899 474.633 227.842 467.957 223.598 457.677C219.878 448.668 224.001 438.334 232.901 434.36L238.112 432.033L238.113 432.034Z" fill="#FF9E85"/>
<g opacity="0.2">
<path d="M269.057 441.441C269.061 441.712 269.281 441.931 269.553 441.934L293.719 442.152C293.995 442.154 294.221 441.933 294.223 441.656C294.246 441.397 294.003 441.154 293.727 441.152L269.561 440.934C269.285 440.932 269.059 441.153 269.057 441.43V441.441Z" fill="#0C0C0C"/>
</g>
<g opacity="0.2">
<path d="M268.667 452.096C268.671 452.367 268.891 452.586 269.163 452.589L296.132 452.832C296.408 452.834 296.634 452.613 296.636 452.336C296.636 452.084 296.416 451.834 296.14 451.832L269.171 451.589C268.895 451.587 268.669 451.808 268.667 452.085V452.096Z" fill="#0C0C0C"/>
</g>
<g opacity="0.2">
<path d="M268.178 463.634C268.182 463.905 268.402 464.124 268.674 464.127L290.187 464.321C290.463 464.323 290.689 464.102 290.691 463.825C290.688 463.546 290.471 463.323 290.195 463.321L268.682 463.127C268.406 463.125 268.18 463.346 268.178 463.623V463.635V463.634Z" fill="#0C0C0C"/>
</g>
<path d="M247.064 487.717L73.677 527.132C72.321 527.279 70.965 527.352 69.616 527.352C59.352 527.352 49.466 523.136 42.342 515.585C34.281 507.04 30.69 495.213 32.639 483.63L52.481 324.027C55.918 303.604 75.256 289.837 95.683 293.268C116.106 296.704 129.878 316.046 126.442 336.47L116.887 450.705L237.351 423.444L247.065 487.717H247.064Z" fill="#367CFF"/>
<path d="M92.51 455.197C92.266 455.197 92.053 455.019 92.016 454.771C91.975 454.498 92.163 454.244 92.436 454.203L116.597 449.044C116.88 449.001 117.125 449.191 117.166 449.464C117.207 449.737 117.019 449.991 116.746 450.032L92.585 455.191C92.56 455.195 92.535 455.197 92.51 455.197Z" fill="#0C0C0C"/>
<path d="M78.879 527.851C78.631 527.851 78.417 527.667 78.384 527.415C78.348 527.142 78.541 526.891 78.815 526.854L245.976 487.483L236.505 424.182L116.76 450.033C116.602 450.052 116.445 449.998 116.335 449.885C116.225 449.771 116.175 449.611 116.201 449.454L122.917 384.184C122.962 383.912 123.215 383.723 123.493 383.774C123.765 383.82 123.949 384.078 123.903 384.35L117.299 448.952L236.733 423.082C236.863 423.045 237.002 423.065 237.118 423.133C237.234 423.201 237.318 423.313 237.351 423.444L247.065 487.717C247.131 487.98 246.974 488.249 246.712 488.321L78.945 527.848C78.923 527.851 78.901 527.852 78.88 527.852L78.879 527.851Z" fill="#0C0C0C"/>
<path d="M785.364 462.034L754.091 448.067C751.212 446.781 747.809 448.211 746.754 451.257C745.819 453.958 747.317 456.913 749.927 458.078L756.633 461.073L731.222 461.334C728.396 461.314 724.916 463.096 725.102 466.268C725.084 468.842 726.864 471.004 729.266 471.575C729.263 471.602 729.251 471.628 729.254 471.656C729.254 471.678 729.264 471.696 729.267 471.717L724.909 471.686C721.549 471.662 718.881 474.702 719.557 478.191C720.052 480.746 722.43 482.506 725.033 482.525L726.887 482.538C726.912 482.592 726.945 482.641 726.987 482.682C724.469 483.246 722.608 485.56 722.766 488.29C722.933 491.185 725.496 493.366 728.396 493.387L733.002 493.42C732.875 493.511 732.788 493.653 732.786 493.824C732.787 493.923 732.824 494.01 732.875 494.088C730.85 495.177 729.591 497.511 730.148 500.075C730.69 502.571 733.043 504.259 735.597 504.277L774.457 504.554C785.578 504.633 795.635 497.957 799.879 487.677C803.599 478.668 799.476 468.334 790.576 464.36L785.365 462.033L785.364 462.034Z" fill="#FF9E85"/>
<g opacity="0.2">
<path d="M754.42 471.441C754.416 471.712 754.196 471.931 753.924 471.934L729.758 472.152C729.482 472.154 729.256 471.933 729.254 471.656C729.231 471.397 729.474 471.154 729.75 471.152L753.916 470.934C754.192 470.932 754.418 471.153 754.42 471.43V471.441Z" fill="#0C0C0C"/>
</g>
<g opacity="0.2">
<path d="M754.81 482.096C754.806 482.367 754.586 482.586 754.314 482.589L727.345 482.832C727.069 482.834 726.843 482.613 726.841 482.336C726.841 482.084 727.061 481.834 727.337 481.832L754.306 481.589C754.582 481.587 754.808 481.808 754.81 482.085V482.096Z" fill="#0C0C0C"/>
</g>
<g opacity="0.2">
<path d="M755.299 493.634C755.295 493.905 755.075 494.124 754.803 494.127L733.29 494.321C733.014 494.323 732.788 494.102 732.786 493.825C732.789 493.546 733.006 493.323 733.282 493.321L754.795 493.127C755.071 493.125 755.297 493.346 755.299 493.623V493.635V493.634Z" fill="#0C0C0C"/>
</g>
<path d="M786.413 517.717L949.8 527.132C951.156 527.279 952.512 527.352 953.861 527.352C964.125 527.352 974.011 523.136 981.135 515.585C989.196 507.04 992.787 495.213 990.838 483.63L970.996 324.027C967.559 303.604 948.221 289.837 927.794 293.268C907.371 296.704 893.599 316.046 897.035 336.47L906.59 457.705L787.126 453.444L786.412 517.717H786.413Z" fill="#367CFF"/>
<path d="M930.967 457.197C931.211 457.197 931.424 457.019 931.461 456.771C931.502 456.498 931.314 456.244 931.041 456.203L906.88 456.044C906.597 456.001 906.352 456.191 906.311 456.464C906.27 456.737 906.458 456.991 906.731 457.032L930.892 457.191C930.917 457.195 930.942 457.197 930.967 457.197Z" fill="#0C0C0C"/>
<path d="M944.599 527.851C944.847 527.851 945.061 527.667 945.094 527.415C945.13 527.142 944.937 526.891 944.663 526.854L787.502 517.483L787.973 454.182L906.718 457.033C906.876 457.052 907.033 456.998 907.143 456.885C907.253 456.771 907.303 456.611 907.277 456.454L900.561 384.184C900.516 383.912 900.263 383.723 899.985 383.774C899.713 383.82 899.529 384.078 899.575 384.35L906.179 455.952L787.745 453.082C787.615 453.045 787.476 453.065 787.36 453.133C787.244 453.201 787.16 453.313 787.127 453.444L786.413 517.717C786.347 517.98 786.504 518.249 786.766 518.321L944.533 527.848C944.555 527.851 944.577 527.852 944.598 527.852L944.599 527.851Z" fill="#0C0C0C"/>
<path d="M329.045 477V430.455H338.886V468.886H358.841V477H329.045ZM374.568 477H364.023L380.091 430.455H392.773L408.818 477H398.273L386.614 441.091H386.25L374.568 477ZM373.909 458.705H398.818V466.386H373.909V458.705ZM429.233 430.455H441.369L454.188 461.727H454.733L467.551 430.455H479.688V477H470.142V446.705H469.756L457.71 476.773H451.21L439.165 446.591H438.778V477H429.233V430.455ZM487.795 477V430.455H519.159V438.568H497.636V449.659H517.545V457.773H497.636V468.886H519.25V477H487.795ZM526.983 477V430.455H558.347V438.568H536.824V449.659H556.733V457.773H536.824V468.886H558.438V477H526.983ZM564.398 438.568V430.455H602.625V438.568H588.375V477H578.648V438.568H564.398ZM637.67 430.455H647.511V460.682C647.511 464.076 646.701 467.045 645.08 469.591C643.473 472.136 641.223 474.121 638.33 475.545C635.436 476.955 632.064 477.659 628.216 477.659C624.352 477.659 620.973 476.955 618.08 475.545C615.186 474.121 612.936 472.136 611.33 469.591C609.723 467.045 608.92 464.076 608.92 460.682V430.455H618.761V459.841C618.761 461.614 619.148 463.189 619.92 464.568C620.708 465.947 621.814 467.03 623.239 467.818C624.663 468.606 626.322 469 628.216 469C630.125 469 631.784 468.606 633.193 467.818C634.617 467.03 635.716 465.947 636.489 464.568C637.277 463.189 637.67 461.614 637.67 459.841V430.455ZM655.608 477V430.455H673.972C677.502 430.455 680.509 431.129 682.994 432.477C685.479 433.811 687.373 435.667 688.676 438.045C689.994 440.409 690.653 443.136 690.653 446.227C690.653 449.318 689.987 452.045 688.653 454.409C687.32 456.773 685.388 458.614 682.858 459.932C680.343 461.25 677.297 461.909 673.722 461.909H662.017V454.023H672.131C674.025 454.023 675.585 453.697 676.812 453.045C678.055 452.379 678.979 451.462 679.585 450.295C680.206 449.114 680.517 447.758 680.517 446.227C680.517 444.682 680.206 443.333 679.585 442.182C678.979 441.015 678.055 440.114 676.812 439.477C675.57 438.826 673.994 438.5 672.085 438.5H665.449V477H655.608Z" fill="#0C0C0C"/>
<path d="M381.009 497.545V515H377.318V501.048H377.216L373.219 503.554V500.281L377.54 497.545H381.009ZM391.472 497.307C392.37 497.307 393.234 497.457 394.063 497.759C394.898 498.06 395.643 498.54 396.296 499.199C396.955 499.858 397.475 500.733 397.856 501.824C398.242 502.909 398.438 504.241 398.444 505.821C398.444 507.304 398.276 508.628 397.941 509.793C397.612 510.952 397.137 511.938 396.518 512.75C395.898 513.562 395.151 514.182 394.276 514.608C393.401 515.028 392.424 515.239 391.344 515.239C390.18 515.239 389.151 515.014 388.259 514.565C387.367 514.111 386.648 513.494 386.103 512.716C385.563 511.932 385.237 511.051 385.123 510.074H388.762C388.904 510.71 389.202 511.205 389.657 511.557C390.112 511.903 390.674 512.077 391.344 512.077C392.481 512.077 393.344 511.582 393.935 510.594C394.526 509.599 394.825 508.239 394.83 506.511H394.711C394.45 507.023 394.097 507.463 393.654 507.832C393.211 508.196 392.702 508.477 392.129 508.676C391.56 508.875 390.955 508.974 390.313 508.974C389.285 508.974 388.367 508.733 387.56 508.25C386.754 507.767 386.117 507.102 385.651 506.256C385.185 505.409 384.952 504.443 384.952 503.358C384.947 502.188 385.217 501.145 385.762 500.23C386.308 499.315 387.069 498.599 388.046 498.082C389.029 497.56 390.171 497.301 391.472 497.307ZM391.498 500.205C390.924 500.205 390.413 500.341 389.964 500.614C389.521 500.886 389.168 501.253 388.907 501.713C388.651 502.173 388.526 502.687 388.532 503.256C388.532 503.83 388.657 504.347 388.907 504.807C389.163 505.261 389.509 505.625 389.947 505.898C390.39 506.165 390.896 506.298 391.464 506.298C391.89 506.298 392.285 506.219 392.648 506.06C393.012 505.901 393.327 505.682 393.594 505.403C393.867 505.119 394.08 504.793 394.234 504.423C394.387 504.054 394.464 503.662 394.464 503.247C394.458 502.696 394.327 502.19 394.072 501.73C393.816 501.27 393.464 500.901 393.015 500.622C392.566 500.344 392.06 500.205 391.498 500.205ZM411.413 515.213C410.419 515.213 409.518 514.957 408.712 514.446C407.911 513.929 407.274 513.17 406.803 512.17C406.337 511.165 406.104 509.932 406.104 508.472C406.104 506.972 406.345 505.724 406.828 504.73C407.311 503.73 407.953 502.983 408.754 502.489C409.561 501.989 410.445 501.739 411.405 501.739C412.138 501.739 412.749 501.864 413.237 502.114C413.732 502.358 414.129 502.665 414.43 503.034C414.737 503.398 414.97 503.756 415.129 504.108H415.24V497.545H418.862V515H415.283V512.903H415.129C414.959 513.267 414.717 513.628 414.405 513.986C414.098 514.338 413.697 514.631 413.203 514.864C412.714 515.097 412.118 515.213 411.413 515.213ZM412.564 512.324C413.149 512.324 413.643 512.165 414.047 511.847C414.456 511.523 414.768 511.071 414.984 510.491C415.206 509.912 415.317 509.233 415.317 508.455C415.317 507.676 415.209 507 414.993 506.426C414.777 505.852 414.464 505.409 414.055 505.097C413.646 504.784 413.149 504.628 412.564 504.628C411.967 504.628 411.464 504.79 411.055 505.114C410.646 505.437 410.337 505.886 410.126 506.46C409.916 507.034 409.811 507.699 409.811 508.455C409.811 509.216 409.916 509.889 410.126 510.474C410.342 511.054 410.652 511.509 411.055 511.838C411.464 512.162 411.967 512.324 412.564 512.324ZM427.813 515.256C426.467 515.256 425.308 514.983 424.336 514.438C423.37 513.886 422.626 513.108 422.103 512.102C421.58 511.091 421.319 509.895 421.319 508.514C421.319 507.168 421.58 505.986 422.103 504.969C422.626 503.952 423.362 503.159 424.31 502.591C425.265 502.023 426.384 501.739 427.668 501.739C428.532 501.739 429.336 501.878 430.08 502.156C430.83 502.429 431.484 502.841 432.04 503.392C432.603 503.943 433.04 504.636 433.353 505.472C433.665 506.301 433.822 507.273 433.822 508.386V509.384H422.768V507.134H430.404C430.404 506.611 430.29 506.148 430.063 505.744C429.836 505.341 429.521 505.026 429.117 504.798C428.719 504.565 428.256 504.449 427.728 504.449C427.177 504.449 426.688 504.577 426.262 504.832C425.842 505.082 425.512 505.42 425.273 505.847C425.035 506.267 424.913 506.736 424.907 507.253V509.392C424.907 510.04 425.026 510.599 425.265 511.071C425.509 511.543 425.853 511.906 426.296 512.162C426.739 512.418 427.265 512.545 427.873 512.545C428.276 512.545 428.646 512.489 428.981 512.375C429.316 512.261 429.603 512.091 429.842 511.864C430.08 511.636 430.262 511.358 430.387 511.028L433.745 511.25C433.575 512.057 433.225 512.761 432.697 513.364C432.174 513.96 431.498 514.426 430.668 514.761C429.844 515.091 428.893 515.256 427.813 515.256ZM457.854 506.273C457.854 508.176 457.493 509.795 456.771 511.131C456.055 512.466 455.078 513.486 453.839 514.19C452.607 514.889 451.22 515.239 449.68 515.239C448.129 515.239 446.737 514.886 445.504 514.182C444.271 513.477 443.297 512.457 442.581 511.122C441.865 509.787 441.507 508.17 441.507 506.273C441.507 504.369 441.865 502.75 442.581 501.415C443.297 500.08 444.271 499.062 445.504 498.364C446.737 497.659 448.129 497.307 449.68 497.307C451.22 497.307 452.607 497.659 453.839 498.364C455.078 499.062 456.055 500.08 456.771 501.415C457.493 502.75 457.854 504.369 457.854 506.273ZM454.112 506.273C454.112 505.04 453.928 504 453.558 503.153C453.195 502.307 452.68 501.665 452.016 501.227C451.351 500.79 450.572 500.571 449.68 500.571C448.788 500.571 448.01 500.79 447.345 501.227C446.68 501.665 446.163 502.307 445.794 503.153C445.43 504 445.249 505.04 445.249 506.273C445.249 507.506 445.43 508.545 445.794 509.392C446.163 510.239 446.68 510.881 447.345 511.318C448.01 511.756 448.788 511.974 449.68 511.974C450.572 511.974 451.351 511.756 452.016 511.318C452.68 510.881 453.195 510.239 453.558 509.392C453.928 508.545 454.112 507.506 454.112 506.273ZM466.434 515.256C465.093 515.256 463.94 514.972 462.974 514.403C462.013 513.83 461.275 513.034 460.758 512.017C460.246 511 459.991 509.83 459.991 508.506C459.991 507.165 460.249 505.989 460.766 504.977C461.289 503.96 462.031 503.168 462.991 502.599C463.951 502.026 465.093 501.739 466.417 501.739C467.559 501.739 468.559 501.946 469.417 502.361C470.275 502.776 470.954 503.358 471.454 504.108C471.954 504.858 472.229 505.739 472.281 506.75H468.854C468.758 506.097 468.502 505.571 468.087 505.173C467.678 504.77 467.141 504.568 466.477 504.568C465.914 504.568 465.423 504.722 465.002 505.028C464.587 505.33 464.263 505.77 464.031 506.349C463.798 506.929 463.681 507.631 463.681 508.455C463.681 509.29 463.795 510 464.022 510.585C464.255 511.17 464.582 511.616 465.002 511.923C465.423 512.23 465.914 512.384 466.477 512.384C466.891 512.384 467.263 512.298 467.593 512.128C467.928 511.957 468.204 511.71 468.42 511.386C468.641 511.057 468.786 510.662 468.854 510.202H472.281C472.224 511.202 471.951 512.082 471.462 512.844C470.979 513.599 470.312 514.19 469.46 514.616C468.607 515.043 467.599 515.256 466.434 515.256ZM481.568 501.909V504.636H473.685V501.909H481.568ZM475.474 498.773H479.105V510.977C479.105 511.312 479.156 511.574 479.259 511.761C479.361 511.943 479.503 512.071 479.685 512.145C479.872 512.219 480.088 512.256 480.332 512.256C480.503 512.256 480.673 512.241 480.844 512.213C481.014 512.179 481.145 512.153 481.236 512.136L481.807 514.838C481.625 514.895 481.369 514.96 481.04 515.034C480.71 515.114 480.31 515.162 479.838 515.179C478.963 515.213 478.196 515.097 477.537 514.83C476.884 514.562 476.375 514.148 476.011 513.585C475.648 513.023 475.469 512.312 475.474 511.455V498.773ZM492.328 509.426V501.909H495.959V515H492.473V512.622H492.337C492.041 513.389 491.55 514.006 490.862 514.472C490.18 514.937 489.348 515.17 488.365 515.17C487.49 515.17 486.72 514.972 486.055 514.574C485.391 514.176 484.871 513.611 484.496 512.878C484.126 512.145 483.939 511.267 483.933 510.244V501.909H487.564V509.597C487.57 510.369 487.777 510.98 488.186 511.429C488.595 511.878 489.143 512.102 489.831 512.102C490.268 512.102 490.678 512.003 491.058 511.804C491.439 511.599 491.746 511.298 491.979 510.901C492.217 510.503 492.334 510.011 492.328 509.426ZM498.931 515V497.545H502.562V504.108H502.673C502.832 503.756 503.062 503.398 503.363 503.034C503.67 502.665 504.067 502.358 504.556 502.114C505.05 501.864 505.664 501.739 506.397 501.739C507.352 501.739 508.232 501.989 509.039 502.489C509.846 502.983 510.491 503.73 510.974 504.73C511.457 505.724 511.698 506.972 511.698 508.472C511.698 509.932 511.462 511.165 510.991 512.17C510.525 513.17 509.888 513.929 509.082 514.446C508.281 514.957 507.383 515.213 506.388 515.213C505.684 515.213 505.085 515.097 504.59 514.864C504.102 514.631 503.701 514.338 503.388 513.986C503.076 513.628 502.837 513.267 502.673 512.903H502.511V515H498.931ZM502.485 508.455C502.485 509.233 502.593 509.912 502.809 510.491C503.025 511.071 503.337 511.523 503.746 511.847C504.156 512.165 504.653 512.324 505.238 512.324C505.829 512.324 506.329 512.162 506.738 511.838C507.147 511.509 507.457 511.054 507.667 510.474C507.883 509.889 507.991 509.216 507.991 508.455C507.991 507.699 507.886 507.034 507.675 506.46C507.465 505.886 507.156 505.437 506.746 505.114C506.337 504.79 505.835 504.628 505.238 504.628C504.647 504.628 504.147 504.784 503.738 505.097C503.335 505.409 503.025 505.852 502.809 506.426C502.593 507 502.485 507.676 502.485 508.455ZM514.121 515V501.909H517.641V504.193H517.777C518.016 503.381 518.416 502.767 518.979 502.352C519.541 501.932 520.189 501.722 520.922 501.722C521.104 501.722 521.3 501.733 521.51 501.756C521.72 501.778 521.905 501.81 522.064 501.849V505.071C521.893 505.02 521.658 504.974 521.357 504.935C521.055 504.895 520.78 504.875 520.53 504.875C519.996 504.875 519.518 504.991 519.098 505.224C518.683 505.452 518.354 505.77 518.109 506.179C517.871 506.588 517.751 507.06 517.751 507.594V515H514.121ZM529.298 515.256C527.951 515.256 526.792 514.983 525.82 514.438C524.854 513.886 524.11 513.108 523.587 512.102C523.065 511.091 522.803 509.895 522.803 508.514C522.803 507.168 523.065 505.986 523.587 504.969C524.11 503.952 524.846 503.159 525.795 502.591C526.749 502.023 527.869 501.739 529.153 501.739C530.016 501.739 530.82 501.878 531.565 502.156C532.315 502.429 532.968 502.841 533.525 503.392C534.087 503.943 534.525 504.636 534.837 505.472C535.15 506.301 535.306 507.273 535.306 508.386V509.384H524.252V507.134H531.888C531.888 506.611 531.775 506.148 531.548 505.744C531.32 505.341 531.005 505.026 530.602 504.798C530.204 504.565 529.741 504.449 529.212 504.449C528.661 504.449 528.173 504.577 527.746 504.832C527.326 505.082 526.996 505.42 526.758 505.847C526.519 506.267 526.397 506.736 526.391 507.253V509.392C526.391 510.04 526.511 510.599 526.749 511.071C526.994 511.543 527.337 511.906 527.781 512.162C528.224 512.418 528.749 512.545 529.357 512.545C529.761 512.545 530.13 512.489 530.465 512.375C530.8 512.261 531.087 512.091 531.326 511.864C531.565 511.636 531.746 511.358 531.871 511.028L535.229 511.25C535.059 512.057 534.71 512.761 534.181 513.364C533.658 513.96 532.982 514.426 532.153 514.761C531.329 515.091 530.377 515.256 529.298 515.256ZM548.054 515.213C547.06 515.213 546.159 514.957 545.352 514.446C544.551 513.929 543.915 513.17 543.443 512.17C542.977 511.165 542.744 509.932 542.744 508.472C542.744 506.972 542.986 505.724 543.469 504.73C543.952 503.73 544.594 502.983 545.395 502.489C546.202 501.989 547.085 501.739 548.045 501.739C548.778 501.739 549.389 501.864 549.878 502.114C550.372 502.358 550.77 502.665 551.071 503.034C551.378 503.398 551.611 503.756 551.77 504.108H551.881V497.545H555.503V515H551.923V512.903H551.77C551.599 513.267 551.358 513.628 551.045 513.986C550.739 514.338 550.338 514.631 549.844 514.864C549.355 515.097 548.759 515.213 548.054 515.213ZM549.205 512.324C549.79 512.324 550.284 512.165 550.688 511.847C551.097 511.523 551.409 511.071 551.625 510.491C551.847 509.912 551.957 509.233 551.957 508.455C551.957 507.676 551.849 507 551.634 506.426C551.418 505.852 551.105 505.409 550.696 505.097C550.287 504.784 549.79 504.628 549.205 504.628C548.608 504.628 548.105 504.79 547.696 505.114C547.287 505.437 546.977 505.886 546.767 506.46C546.557 507.034 546.452 507.699 546.452 508.455C546.452 509.216 546.557 509.889 546.767 510.474C546.983 511.054 547.293 511.509 547.696 511.838C548.105 512.162 548.608 512.324 549.205 512.324ZM564.454 515.256C563.107 515.256 561.948 514.983 560.977 514.438C560.011 513.886 559.266 513.108 558.744 512.102C558.221 511.091 557.96 509.895 557.96 508.514C557.96 507.168 558.221 505.986 558.744 504.969C559.266 503.952 560.002 503.159 560.951 502.591C561.906 502.023 563.025 501.739 564.309 501.739C565.173 501.739 565.977 501.878 566.721 502.156C567.471 502.429 568.124 502.841 568.681 503.392C569.244 503.943 569.681 504.636 569.994 505.472C570.306 506.301 570.462 507.273 570.462 508.386V509.384H559.408V507.134H567.045C567.045 506.611 566.931 506.148 566.704 505.744C566.477 505.341 566.161 505.026 565.758 504.798C565.36 504.565 564.897 504.449 564.369 504.449C563.817 504.449 563.329 504.577 562.903 504.832C562.482 505.082 562.153 505.42 561.914 505.847C561.675 506.267 561.553 506.736 561.548 507.253V509.392C561.548 510.04 561.667 510.599 561.906 511.071C562.15 511.543 562.494 511.906 562.937 512.162C563.38 512.418 563.906 512.545 564.513 512.545C564.917 512.545 565.286 512.489 565.621 512.375C565.957 512.261 566.244 512.091 566.482 511.864C566.721 511.636 566.903 511.358 567.028 511.028L570.386 511.25C570.215 512.057 569.866 512.761 569.337 513.364C568.815 513.96 568.138 514.426 567.309 514.761C566.485 515.091 565.533 515.256 564.454 515.256ZM578.352 515V512.341L584.565 506.588C585.094 506.077 585.537 505.616 585.895 505.207C586.259 504.798 586.534 504.398 586.722 504.006C586.909 503.608 587.003 503.179 587.003 502.719C587.003 502.207 586.886 501.767 586.653 501.398C586.42 501.023 586.102 500.736 585.699 500.537C585.295 500.332 584.838 500.23 584.327 500.23C583.793 500.23 583.327 500.338 582.929 500.554C582.531 500.77 582.224 501.08 582.009 501.483C581.793 501.886 581.685 502.366 581.685 502.923H578.182C578.182 501.781 578.44 500.79 578.957 499.949C579.474 499.108 580.199 498.457 581.131 497.997C582.063 497.537 583.136 497.307 584.352 497.307C585.602 497.307 586.69 497.528 587.616 497.972C588.548 498.409 589.273 499.017 589.79 499.795C590.307 500.574 590.565 501.466 590.565 502.472C590.565 503.131 590.435 503.781 590.173 504.423C589.918 505.065 589.46 505.778 588.801 506.562C588.142 507.341 587.213 508.276 586.014 509.366L583.466 511.864V511.983H590.795V515H578.352ZM600.313 515.384C598.847 515.378 597.586 515.017 596.529 514.301C595.478 513.585 594.668 512.548 594.1 511.19C593.538 509.832 593.259 508.199 593.265 506.29C593.265 504.386 593.546 502.764 594.109 501.423C594.677 500.082 595.487 499.062 596.538 498.364C597.594 497.659 598.853 497.307 600.313 497.307C601.773 497.307 603.029 497.659 604.08 498.364C605.137 499.068 605.95 500.091 606.518 501.432C607.086 502.767 607.367 504.386 607.362 506.29C607.362 508.205 607.077 509.841 606.509 511.199C605.947 512.557 605.14 513.594 604.089 514.31C603.038 515.026 601.779 515.384 600.313 515.384ZM600.313 512.324C601.313 512.324 602.112 511.821 602.708 510.815C603.305 509.81 603.6 508.301 603.594 506.29C603.594 504.966 603.458 503.864 603.185 502.983C602.918 502.102 602.538 501.44 602.043 500.997C601.555 500.554 600.978 500.332 600.313 500.332C599.319 500.332 598.523 500.83 597.927 501.824C597.33 502.818 597.029 504.307 597.023 506.29C597.023 507.631 597.157 508.75 597.424 509.648C597.697 510.54 598.08 511.21 598.575 511.659C599.069 512.102 599.648 512.324 600.313 512.324ZM609.993 515V512.341L616.206 506.588C616.734 506.077 617.178 505.616 617.536 505.207C617.899 504.798 618.175 504.398 618.362 504.006C618.55 503.608 618.643 503.179 618.643 502.719C618.643 502.207 618.527 501.767 618.294 501.398C618.061 501.023 617.743 500.736 617.339 500.537C616.936 500.332 616.479 500.23 615.967 500.23C615.433 500.23 614.967 500.338 614.57 500.554C614.172 500.77 613.865 501.08 613.649 501.483C613.433 501.886 613.325 502.366 613.325 502.923H609.822C609.822 501.781 610.081 500.79 610.598 499.949C611.115 499.108 611.839 498.457 612.771 497.997C613.703 497.537 614.777 497.307 615.993 497.307C617.243 497.307 618.331 497.528 619.257 497.972C620.189 498.409 620.913 499.017 621.43 499.795C621.947 500.574 622.206 501.466 622.206 502.472C622.206 503.131 622.075 503.781 621.814 504.423C621.558 505.065 621.101 505.778 620.442 506.562C619.783 507.341 618.854 508.276 617.655 509.366L615.107 511.864V511.983H622.436V515H609.993ZM624.471 511.932V509.026L631.758 497.545H634.263V501.568H632.781L628.187 508.838V508.974H638.542V511.932H624.471ZM632.849 515V511.045L632.917 509.759V497.545H636.377V515H632.849Z" fill="#0C0C0C"/>
</g>
<defs>
<clipPath id="clip0_1_3">
<rect width="991.358" height="552.782" fill="white"/>
</clipPath>
</defs>
</svg>
