<svg width="1124" height="783" viewBox="0 0 1124 783" fill="none" xmlns="http://www.w3.org/2000/svg">
<g clip-path="url(#clip0_5_463)" filter="url(#filter0_d_5_463)">
<path opacity="0.2" d="M337.548 100.376L336.755 100.176L85.066 627.108L972.322 695.6L973.322 695.677L1005.83 267.927L1005.9 267.086L337.548 100.376ZM592.429 439.241L88.558 624.437L337.5 103.258L592.429 439.241ZM593.907 440.828L968.7 693.309L91.25 625.579L593.907 440.828ZM594.37 438.492L339.819 103L1001.67 268.087L594.37 438.492ZM971.533 692.809L596.139 439.92L1003.71 269.4L971.533 692.809Z" fill="white"/>
<path d="M1119.23 276.835C1118.43 297.12 1112.73 316.91 1102.61 334.513C1092.5 352.116 1078.28 367.008 1061.15 377.918C1044.03 388.827 1024.53 395.429 1004.3 397.16C984.071 398.891 963.725 395.699 945 387.856C936.218 384.175 927.888 379.496 920.176 373.91C905.436 363.268 893.167 349.569 884.21 333.748V333.734C874.659 316.813 869.162 297.907 868.151 278.503C867.139 259.099 870.641 239.724 878.381 221.902C886.121 204.079 897.888 188.294 912.758 175.787C927.628 163.28 945.196 154.391 964.081 149.819C982.966 145.247 1002.65 145.116 1021.6 149.436C1040.54 153.757 1058.23 162.412 1073.26 174.72C1088.3 187.029 1100.27 202.656 1108.25 220.374C1116.22 238.092 1119.98 257.418 1119.23 276.834L1119.23 276.835Z" fill="white"/>
<path opacity="0.09" d="M1119.23 276.835C1118.43 297.12 1112.73 316.91 1102.61 334.513C1092.5 352.116 1078.28 367.008 1061.15 377.918C1044.03 388.827 1024.53 395.429 1004.3 397.16C984.071 398.891 963.725 395.699 945 387.856C936.218 384.175 927.888 379.496 920.176 373.91C905.436 363.268 893.167 349.569 884.21 333.748V333.734C874.659 316.813 869.162 297.907 868.151 278.503C867.139 259.099 870.641 239.724 878.381 221.902C886.121 204.079 897.888 188.294 912.758 175.787C927.628 163.28 945.196 154.391 964.081 149.819C982.966 145.247 1002.65 145.116 1021.6 149.436C1040.54 153.757 1058.23 162.412 1073.26 174.72C1088.3 187.029 1100.27 202.656 1108.25 220.374C1116.22 238.092 1119.98 257.418 1119.23 276.834L1119.23 276.835Z" fill="#367CFF"/>
<path d="M1023.37 176.256C1023.37 176.256 1053.41 176.624 1043.05 218.029L1040.23 218.167L1034.5 218.446" fill="#0C0C0C"/>
<path d="M989.819 261.47C989.959 261.457 990.513 287.283 1020.53 286.198C1041.31 285.45 1049.56 263.751 1050.03 263.769C1047.82 263.208 1044.08 262.369 1043.11 261.803C1039.91 259.924 1035.95 257.943 1035.14 251.565C1034.68 247.889 1036.43 229.245 1036.26 225.538L1004.17 231.403C1004.31 239.225 1006.72 257.437 995.697 260.216C993.861 260.676 991.888 261.087 989.819 261.47Z" fill="#E98862"/>
<path opacity="0.52" d="M1002.88 253.09C1003.44 251.504 1003.83 249.86 1004.03 248.19C1004.53 244.38 1004.61 240.527 1004.27 236.699C1010.77 236.077 1016.96 233.645 1022.15 229.679C1022.65 231.879 1025.53 241.541 1024.55 243.579C1022.7 247.433 1014.46 253.54 1002.88 253.09Z" fill="#0C0C0C"/>
<path d="M1010.17 248.527C1022.74 247.627 1037.92 239.97 1038.44 222.927L1038.92 207.552C1039.45 190.512 1030.92 176.421 1014.88 175.925C998.836 175.425 986.416 188.871 985.889 205.911L985.679 212.718C985.647 215.057 985.775 217.396 986.061 219.718C986.773 225.858 987.879 235.194 991.922 241.569C995.738 247.587 1002.13 249.1 1010.17 248.527Z" fill="#E98862"/>
<path d="M1037.29 228.091C1042.16 228.241 1046.28 223.147 1046.43 218.272C1046.58 213.397 1042.71 210.585 1037.83 210.434L1035.22 213.623L1033.09 227.961L1037.29 228.091Z" fill="#E98862"/>
<path d="M986.714 224.864C987.595 225.908 988.723 226.716 989.995 227.213C991.268 227.71 992.645 227.881 994 227.71C996.9 227.345 998.823 228.535 1001.24 228.296C1003.28 228.096 1003.63 227.157 1007.1 226.952C1020.48 226.159 1030.53 225.315 1031.18 208.516L1039.7 200.949C1039.7 200.949 1043.51 247.501 1018.33 253.689C1002.86 257.489 988.345 256.1 986.479 241.569C984.963 229.762 986.714 224.864 986.714 224.864Z" fill="#0C0C0C"/>
<path d="M993.057 215.142C994.149 215.142 995.034 214.257 995.034 213.165C995.034 212.073 994.149 211.188 993.057 211.188C991.965 211.188 991.08 212.073 991.08 213.165C991.08 214.257 991.965 215.142 993.057 215.142Z" fill="#0C0C0C"/>
<path d="M1010.72 214.774C1011.81 214.774 1012.7 213.889 1012.7 212.797C1012.7 211.705 1011.81 210.82 1010.72 210.82C1009.63 210.82 1008.74 211.705 1008.74 212.797C1008.74 213.889 1009.63 214.774 1010.72 214.774Z" fill="#0C0C0C"/>
<path d="M1032.58 220.165C1032.58 220.165 1031.37 196.019 1024.08 194.396C1019.23 193.315 1007.3 200.009 996.392 197.723C991.623 196.723 987.058 197.823 986.554 200.077C986.354 200.969 982.58 193.058 990.254 183.432C996.363 175.768 1016.23 173.612 1025.07 176.322C1049.54 183.828 1038.82 211.515 1038.82 211.515L1037.57 219.809L1032.58 220.165Z" fill="#0C0C0C"/>
<path d="M1043.7 200.695C1050.9 200.695 1056.74 194.856 1056.74 187.653C1056.74 180.45 1050.9 174.611 1043.7 174.611C1036.5 174.611 1030.66 180.45 1030.66 187.653C1030.66 194.856 1036.5 200.695 1043.7 200.695Z" fill="#0C0C0C"/>
<g opacity="0.52">
<path d="M1001.48 227.52H1001.45C999.881 227.475 997.252 227.225 997.282 226.05C997.31 225.076 1000.27 214.638 1000.61 213.45C1000.64 213.348 1000.71 213.262 1000.8 213.21C1000.89 213.158 1001 213.146 1001.11 213.175C1001.21 213.204 1001.3 213.272 1001.35 213.365C1001.4 213.457 1001.41 213.567 1001.38 213.669C1000.07 218.292 998.102 225.41 998.082 226.069C998.229 226.351 999.847 226.669 1001.47 226.716C1001.58 226.715 1001.68 226.756 1001.76 226.83C1001.83 226.904 1001.88 227.005 1001.88 227.112C1001.88 227.218 1001.84 227.32 1001.76 227.396C1001.69 227.472 1001.59 227.515 1001.48 227.516V227.52Z" fill="#0C0C0C"/>
</g>
<path d="M996.7 206.448C995.077 205.967 993.354 205.933 991.713 206.348C990.905 206.547 990.132 206.865 989.419 207.294C988.713 207.714 988.063 208.222 987.484 208.805C987.384 208.895 987.323 209.021 987.316 209.156C987.308 209.29 987.355 209.422 987.444 209.523C987.534 209.623 987.66 209.683 987.795 209.691C987.93 209.698 988.062 209.652 988.162 209.562L988.193 209.536C988.733 209.049 989.331 208.632 989.975 208.295C990.609 207.959 991.289 207.721 991.994 207.589C993.385 207.317 994.823 207.417 996.163 207.88L996.214 207.899C996.309 207.936 996.409 207.953 996.511 207.95C996.612 207.948 996.712 207.925 996.805 207.883C996.897 207.841 996.98 207.781 997.049 207.707C997.118 207.633 997.172 207.545 997.207 207.45C997.242 207.355 997.258 207.254 997.253 207.152C997.249 207.051 997.224 206.952 997.181 206.86C997.137 206.768 997.076 206.686 997 206.618C996.925 206.55 996.837 206.498 996.741 206.465L996.7 206.448Z" fill="#0C0C0C"/>
<path d="M1008.35 207.882C1009.64 207.29 1011.06 207.051 1012.47 207.187C1013.18 207.25 1013.88 207.421 1014.55 207.694C1015.22 207.967 1015.86 208.323 1016.44 208.755L1016.47 208.777C1016.58 208.848 1016.71 208.875 1016.84 208.851C1016.97 208.828 1017.08 208.757 1017.16 208.652C1017.24 208.547 1017.27 208.417 1017.25 208.288C1017.24 208.159 1017.17 208.042 1017.07 207.959C1016.44 207.435 1015.74 206.993 1015 206.643C1014.25 206.286 1013.45 206.044 1012.62 205.924C1010.95 205.672 1009.24 205.875 1007.67 206.511C1007.49 206.591 1007.34 206.74 1007.27 206.926C1007.19 207.112 1007.19 207.32 1007.27 207.505C1007.35 207.691 1007.49 207.839 1007.68 207.916C1007.86 207.994 1008.07 207.996 1008.26 207.922L1008.29 207.906L1008.35 207.882Z" fill="#0C0C0C"/>
<path d="M1088.44 325.957C1087.32 334.4 1086.23 345.997 1085.26 357.988C1081.45 362.041 1077.38 365.838 1073.07 369.354C1070.33 371.579 1067.5 373.695 1064.58 375.7C1048.82 386.461 1030.82 393.497 1011.94 396.277C993.053 399.056 973.786 397.507 955.59 391.746C955.342 380.608 955.004 365.584 954.668 351.82C954.283 335.943 953.894 321.727 953.685 317.056C952.823 298.518 947.909 286.149 951.624 276.035C952.735 273.041 954.521 270.344 956.843 268.152C965.498 259.681 986.997 259.874 995.62 260.209C995.77 260.215 993.106 280.116 1021.48 279.876C1042.33 279.705 1043.89 262.082 1043.89 262.082C1043.89 262.082 1054.17 263.151 1060.99 264.336C1072.16 266.291 1079.41 270.385 1085.06 276.499C1090.33 282.2 1093.44 288.252 1088.44 325.957Z" fill="#367CFF"/>
<path d="M921.648 262.171L922.506 240.936C922.526 240.469 922.448 240.003 922.277 239.568C922.107 239.133 921.847 238.738 921.516 238.409C921.184 238.079 920.787 237.823 920.351 237.655C919.914 237.488 919.448 237.413 918.981 237.436C918.121 237.506 917.318 237.892 916.726 238.52C916.135 239.148 915.798 239.974 915.781 240.836L915.597 245.39L909.6 230.807C908.962 229.174 907.134 227.578 905.349 228.415C904.641 228.692 904.048 229.201 903.667 229.858C903.285 230.516 903.138 231.283 903.249 232.035C903.232 232.037 903.215 232.041 903.199 232.046C903.188 232.052 903.177 232.06 903.167 232.068L902.183 229.55C902.001 229.084 901.716 228.664 901.351 228.321C900.986 227.978 900.549 227.722 900.071 227.569C899.594 227.417 899.089 227.373 898.593 227.441C898.097 227.509 897.622 227.686 897.203 227.961C896.552 228.407 896.074 229.062 895.848 229.818C895.623 230.574 895.663 231.385 895.964 232.114L896.383 233.185C896.358 233.212 896.337 233.242 896.322 233.276C895.871 232.618 895.201 232.142 894.432 231.933C893.663 231.724 892.844 231.795 892.122 232.133C891.343 232.528 890.741 233.201 890.437 234.02C890.132 234.839 890.148 235.742 890.48 236.55L891.52 239.212C891.479 239.185 891.432 239.168 891.383 239.162C891.334 239.156 891.284 239.163 891.238 239.18C891.184 239.204 891.138 239.243 891.106 239.292C890.542 238.817 889.837 238.541 889.1 238.506C888.363 238.47 887.635 238.678 887.028 239.097C886.399 239.55 885.942 240.202 885.73 240.948C885.518 241.693 885.564 242.488 885.86 243.204L894.637 265.663C895.865 268.805 898.003 271.509 900.777 273.427C903.552 275.346 906.836 276.393 910.209 276.433C913.118 276.467 915.925 275.366 918.035 273.364C920.145 271.362 921.391 268.616 921.509 265.709L921.648 262.171Z" fill="#E98862"/>
<g opacity="0.2">
<path d="M909.111 246.5C909.035 246.529 908.951 246.528 908.876 246.496C908.801 246.464 908.742 246.403 908.711 246.328L903.028 232.451C903.01 232.413 903 232.371 902.999 232.329C902.997 232.287 903.004 232.245 903.02 232.206C903.035 232.166 903.058 232.131 903.088 232.101C903.117 232.071 903.153 232.047 903.192 232.031C903.231 232.015 903.273 232.007 903.315 232.008C903.357 232.008 903.399 232.018 903.437 232.035C903.476 232.052 903.51 232.077 903.539 232.109C903.567 232.14 903.589 232.176 903.603 232.216L909.286 246.093C909.302 246.131 909.309 246.171 909.309 246.212C909.309 246.253 909.301 246.293 909.285 246.331C909.269 246.369 909.246 246.403 909.217 246.431C909.188 246.46 909.154 246.483 909.116 246.498L909.111 246.5Z" fill="#0C0C0C"/>
</g>
<g opacity="0.2">
<path d="M903.06 249.176C902.984 249.206 902.899 249.204 902.824 249.172C902.75 249.139 902.69 249.079 902.66 249.003L896.318 233.516C896.288 233.44 896.289 233.356 896.321 233.281C896.353 233.206 896.413 233.147 896.488 233.116C896.564 233.089 896.647 233.091 896.721 233.123C896.795 233.154 896.855 233.212 896.888 233.285L903.23 248.772C903.261 248.848 903.261 248.934 903.229 249.01C903.197 249.086 903.136 249.146 903.06 249.177V249.176Z" fill="#0C0C0C"/>
</g>
<g opacity="0.2">
<path d="M896.523 252.111C896.447 252.141 896.362 252.139 896.287 252.107C896.213 252.074 896.153 252.014 896.123 251.938L891.064 239.585C891.033 239.509 891.033 239.424 891.065 239.348C891.097 239.272 891.157 239.212 891.234 239.181C891.31 239.149 891.395 239.15 891.471 239.182C891.547 239.213 891.607 239.274 891.638 239.35L896.7 251.7C896.731 251.776 896.731 251.862 896.699 251.938C896.667 252.014 896.606 252.074 896.53 252.105L896.523 252.111Z" fill="#0C0C0C"/>
</g>
<path d="M991.941 295.463L940.261 374.919C938.381 377.807 935.863 380.226 932.902 381.989C928.498 379.56 924.247 376.862 920.175 373.91C911.495 367.647 903.652 360.3 896.835 352.048L885.98 267.884L929.423 260.923L934.376 301.435L954.224 270.922L991.941 295.463Z" fill="#367CFF"/>
<path d="M998 231.855C1002.74 232.17 1007.45 230.896 1011.39 228.234C1011.52 228.143 1011.68 228.092 1011.85 228.088C1012.01 228.083 1012.17 228.126 1012.31 228.211C1012.46 228.295 1012.57 228.419 1012.64 228.566C1012.72 228.713 1012.75 228.878 1012.73 229.041C1012.41 231.841 1011.03 236.991 1005.16 237.647C1001.36 238.07 998.613 235.157 997.228 233.22C997.132 233.086 997.077 232.927 997.068 232.763C997.059 232.599 997.098 232.435 997.179 232.292C997.26 232.148 997.38 232.031 997.526 231.954C997.671 231.876 997.836 231.842 998 231.855Z" fill="white"/>
<path d="M1102.45 334.887C1094.82 348.054 1084.86 359.731 1073.07 369.354C1070.33 371.579 1067.5 373.695 1064.58 375.7L1044.4 298.909L1089.86 286.952L1102.45 334.887Z" fill="#367CFF"/>
<path d="M1065.03 375.4C1064.88 375.494 1064.73 375.6 1064.58 375.7C1064.44 375.8 1064.3 375.9 1064.15 375.993L1048.77 317.493L1049.74 317.24L1065.03 375.4Z" fill="#0C0C0C"/>
<path d="M954.79 355.437C954.665 355.432 954.546 355.38 954.458 355.292C954.369 355.203 954.317 355.085 954.311 354.96L953.319 333.16C953.313 333.027 953.36 332.898 953.45 332.8C953.539 332.702 953.664 332.644 953.797 332.638C953.929 332.632 954.059 332.679 954.157 332.768C954.255 332.858 954.313 332.982 954.319 333.115L955.31 354.915C955.316 355.047 955.269 355.177 955.18 355.275C955.091 355.372 954.966 355.431 954.834 355.437H954.79Z" fill="#0C0C0C"/>
<path d="M580.92 557.165C651.676 557.165 709.035 499.806 709.035 429.05C709.035 358.294 651.676 300.935 580.92 300.935C510.164 300.935 452.805 358.294 452.805 429.05C452.805 499.806 510.164 557.165 580.92 557.165Z" fill="white"/>
<path opacity="0.09" d="M709.036 429.047C709.036 454.385 701.522 479.155 687.445 500.223C673.368 521.291 653.359 537.711 629.95 547.408C606.54 557.105 580.781 559.642 555.929 554.698C531.078 549.755 508.25 537.554 490.333 519.637C472.416 501.72 460.215 478.892 455.272 454.041C450.328 429.189 452.865 403.43 462.562 380.02C472.259 356.611 488.679 336.602 509.747 322.525C530.815 308.448 555.585 300.934 580.923 300.934C597.764 300.872 614.452 304.143 630.023 310.559C645.595 316.975 659.743 326.41 671.651 338.319C683.56 350.227 692.995 364.375 699.411 379.947C705.827 395.518 709.098 412.205 709.036 429.047Z" fill="#367CFF"/>
<path d="M524.21 353.485C524.21 353.485 522.922 372.825 518.57 379.842C506.044 400.042 502.415 422.767 514.959 434.642C527.503 446.517 607.514 446.68 613.575 419.372C618.675 396.382 607.727 393.91 605.063 374.945C603.857 366.364 600.54 348.37 600.54 348.37" fill="#0A0A0A"/>
<path d="M592.865 415.365C592.727 415.347 591.195 440.778 561.651 438.565C541.199 437.033 533.907 415.333 533.438 415.333C535.643 414.865 539.356 414.183 540.338 413.661C543.558 411.93 547.543 410.13 548.581 403.875C549.181 400.275 548.164 381.829 548.481 378.182L579.875 385.189C579.437 392.889 576.366 410.749 587.127 413.909C588.912 414.428 590.841 414.909 592.865 415.365Z" fill="#E98862"/>
<path opacity="0.5" d="M580.309 406.608C579.818 405.023 579.501 403.389 579.365 401.735C579.02 397.961 579.089 394.161 579.57 390.402C573.189 389.541 567.178 386.908 562.219 382.802C561.636 384.955 558.43 394.362 559.319 396.409C561 400.274 568.88 406.608 580.309 406.608Z" fill="#0C0C0C"/>
<path d="M576.25 398.685C563.872 399.885 547.857 394.931 544.54 378.448L541.546 363.575C538.229 347.092 544.197 331.987 559.716 328.864C575.236 325.74 589.526 336.764 592.843 353.251L594.169 359.835C595.442 366.16 598.334 396.548 576.25 398.685Z" fill="#E98862"/>
<path opacity="0.1" d="M568.381 377.089C570.418 376.846 571.924 375.438 571.746 373.943C571.568 372.449 569.772 371.434 567.736 371.677C565.699 371.92 564.192 373.329 564.371 374.823C564.549 376.318 566.344 377.332 568.381 377.089Z" fill="#0C0C0C"/>
<path opacity="0.1" d="M589.905 371.112C590.088 372.603 591.883 373.612 593.92 373.376C594.272 373.334 594.619 373.255 594.955 373.142C595.049 371.363 595.055 369.651 595.003 368.067C594.437 367.926 593.85 367.892 593.272 367.967C591.235 368.206 589.729 369.614 589.905 371.112Z" fill="#0C0C0C"/>
<path opacity="0.5" d="M580.905 375.723H580.935C581.564 375.591 582.185 375.424 582.795 375.223C583.706 374.923 584.895 374.418 584.733 373.594C584.544 372.654 579.933 363.039 579.406 361.945C579.357 361.855 579.275 361.788 579.178 361.757C579.08 361.725 578.974 361.733 578.882 361.777C578.79 361.821 578.718 361.899 578.682 361.995C578.645 362.091 578.647 362.196 578.686 362.291C580.653 366.391 583.822 373.119 583.949 373.751C583.849 374.046 582.338 374.622 580.777 374.937C580.678 374.96 580.591 375.019 580.535 375.104C580.478 375.188 580.455 375.291 580.472 375.391C580.488 375.491 580.542 375.582 580.622 375.644C580.703 375.706 580.804 375.735 580.905 375.725V375.723Z" fill="#0C0C0C"/>
<path d="M529.163 368.914L543.077 366.196C553.587 361.796 556.569 343.484 556.569 343.484C556.569 343.484 569.54 355.837 600.54 348.367C600.54 348.367 593.806 305.091 548.032 318.227C533.272 322.462 522.817 337.507 524.372 357.433C525.461 371.4 529.163 368.914 529.163 368.914Z" fill="#0A0A0A"/>
<path d="M546.514 383.276C541.798 384.225 536.959 379.949 536.014 375.232C535.069 370.515 538.364 367.145 543.081 366.196L546.147 368.867L550.573 382.46L546.514 383.276Z" fill="#E98862"/>
<path d="M582.751 354.277C583.931 353.441 585.311 352.934 586.751 352.807C587.474 352.738 588.203 352.778 588.914 352.926C589.631 353.072 590.327 353.307 590.986 353.626L591.007 353.635C591.08 353.664 591.161 353.665 591.233 353.636C591.306 353.608 591.365 353.552 591.399 353.481C591.432 353.411 591.437 353.33 591.412 353.255C591.388 353.181 591.336 353.119 591.267 353.082C590.569 352.713 589.828 352.435 589.06 352.252C588.287 352.064 587.491 351.993 586.697 352.042C585.09 352.131 583.536 352.649 582.197 353.542C582.145 353.575 582.1 353.618 582.065 353.669C582.031 353.719 582.006 353.776 581.994 353.837C581.981 353.897 581.981 353.959 581.993 354.019C582.005 354.08 582.029 354.137 582.064 354.188C582.099 354.239 582.143 354.282 582.195 354.315C582.247 354.349 582.305 354.371 582.365 354.382C582.426 354.392 582.488 354.39 582.548 354.376C582.608 354.362 582.664 354.336 582.714 354.3L582.724 354.293L582.751 354.277Z" fill="#0C0C0C"/>
<path d="M570.041 356.033C568.461 355.719 566.826 355.835 565.306 356.368C564.555 356.627 563.847 356.998 563.206 357.468C562.567 357.931 561.989 358.473 561.485 359.08C561.434 359.14 561.408 359.218 561.413 359.297C561.418 359.377 561.454 359.451 561.512 359.504C561.571 359.557 561.648 359.586 561.727 359.584C561.806 359.581 561.882 359.549 561.937 359.492L561.953 359.475C562.438 358.927 562.991 358.443 563.598 358.034C564.198 357.624 564.856 357.308 565.551 357.095C566.93 356.663 568.399 356.603 569.809 356.922L569.844 356.93C569.903 356.946 569.965 356.949 570.025 356.941C570.086 356.932 570.144 356.912 570.197 356.881C570.249 356.85 570.295 356.808 570.331 356.759C570.367 356.71 570.394 356.654 570.408 356.594C570.422 356.535 570.425 356.473 570.415 356.413C570.405 356.353 570.383 356.295 570.351 356.243C570.319 356.191 570.276 356.146 570.226 356.111C570.176 356.076 570.12 356.051 570.06 356.038L570.041 356.033Z" fill="#0C0C0C"/>
<path d="M543.086 365.968C552.439 362.487 555.542 356.028 556.499 351.221C557.117 348.015 557.059 344.716 556.329 341.534L556.039 341.614C556.759 344.754 556.814 348.011 556.202 351.174C555.259 355.901 552.202 362.257 542.981 365.687L543.086 365.968Z" fill="#0C0C0C"/>
<path d="M661.338 410.3L666.938 391.3C667.061 390.883 667.27 390.495 667.551 390.163C667.831 389.831 668.178 389.56 668.569 389.369C668.96 389.179 669.387 389.071 669.822 389.054C670.257 389.037 670.69 389.11 671.095 389.27C671.833 389.588 672.427 390.169 672.761 390.9C673.095 391.631 673.146 392.46 672.904 393.226L671.704 397.3L681.357 386.222C682.409 384.971 684.499 384.109 685.824 385.382C686.366 385.838 686.737 386.465 686.877 387.159C687.017 387.853 686.918 388.575 686.595 389.205C686.609 389.212 686.623 389.22 686.635 389.23C686.643 389.239 686.651 389.249 686.657 389.259L688.279 387.33C688.58 386.973 688.956 386.688 689.381 386.495C689.806 386.302 690.268 386.206 690.735 386.215C691.201 386.223 691.66 386.335 692.078 386.544C692.496 386.752 692.861 387.051 693.149 387.418C693.59 388.006 693.816 388.727 693.789 389.462C693.762 390.196 693.483 390.899 693 391.453L692.31 392.274C692.325 392.305 692.334 392.339 692.336 392.374C692.931 391.928 693.665 391.708 694.407 391.754C695.149 391.8 695.851 392.108 696.387 392.623C696.957 393.204 697.287 393.979 697.311 394.792C697.335 395.606 697.051 396.399 696.516 397.012L694.801 399.05C694.846 399.038 694.892 399.037 694.937 399.047C694.982 399.056 695.024 399.077 695.06 399.106C695.1 399.143 695.129 399.192 695.143 399.245C695.784 398.995 696.489 398.963 697.15 399.154C697.811 399.345 698.391 399.747 698.8 400.3C699.219 400.888 699.427 401.6 699.391 402.321C699.354 403.042 699.076 403.73 698.6 404.273L684.136 421.473C682.112 423.879 679.417 425.625 676.394 426.488C673.371 427.352 670.16 427.293 667.171 426.319C664.594 425.48 662.446 423.668 661.183 421.27C659.92 418.872 659.642 416.076 660.408 413.476L661.338 410.3Z" fill="#E98862"/>
<g opacity="0.2">
<path d="M677.09 400.222C677.148 400.269 677.222 400.292 677.297 400.286C677.371 400.279 677.44 400.245 677.49 400.189L686.656 389.642C686.706 389.584 686.731 389.509 686.726 389.432C686.721 389.356 686.685 389.284 686.627 389.234C686.569 389.184 686.494 389.159 686.417 389.164C686.34 389.169 686.269 389.205 686.219 389.263L677.053 399.809C677.028 399.838 677.009 399.871 676.997 399.907C676.985 399.943 676.98 399.981 676.983 400.019C676.986 400.057 676.996 400.094 677.013 400.128C677.03 400.162 677.053 400.192 677.082 400.217L677.09 400.222Z" fill="#0C0C0C"/>
</g>
<g opacity="0.2">
<path d="M681.63 404.392C681.688 404.439 681.762 404.463 681.837 404.456C681.911 404.45 681.981 404.415 682.03 404.359L692.259 392.589C692.284 392.56 692.303 392.527 692.315 392.491C692.327 392.455 692.332 392.417 692.329 392.379C692.326 392.341 692.316 392.304 692.299 392.27C692.282 392.236 692.259 392.206 692.23 392.181C692.171 392.133 692.096 392.11 692.02 392.115C691.945 392.121 691.874 392.155 691.822 392.21L681.6 403.98C681.575 404.009 681.556 404.042 681.544 404.078C681.532 404.114 681.527 404.152 681.53 404.19C681.533 404.228 681.543 404.265 681.56 404.299C681.577 404.333 681.6 404.363 681.629 404.388L681.63 404.392Z" fill="#0C0C0C"/>
</g>
<g opacity="0.2">
<path d="M686.521 408.938C686.579 408.985 686.653 409.008 686.728 409.002C686.802 408.996 686.872 408.961 686.921 408.905L695.081 399.517C695.126 399.459 695.148 399.385 695.141 399.311C695.133 399.237 695.098 399.169 695.042 399.12C694.986 399.072 694.914 399.046 694.84 399.049C694.766 399.053 694.696 399.084 694.644 399.137L686.484 408.526C686.459 408.555 686.44 408.588 686.428 408.624C686.416 408.66 686.411 408.698 686.414 408.736C686.417 408.774 686.427 408.811 686.444 408.845C686.461 408.879 686.484 408.909 686.513 408.934L686.521 408.938Z" fill="#0C0C0C"/>
</g>
<path d="M695.419 418.594L673.769 516.814C673.719 517.034 673.669 517.264 673.609 517.484C668.747 522.572 663.479 527.257 657.859 531.493C656.729 532.334 655.599 533.164 654.439 533.964C653.722 534.044 653.001 534.084 652.279 534.084C648.42 534.083 644.63 533.067 641.288 531.138C637.946 529.209 635.17 526.435 633.239 523.094L591.979 451.7L630.079 429.691L642.989 452.031L652.449 409.121L695.419 418.594Z" fill="#0CBC8B"/>
<path d="M628.789 463.374C628.659 464.933 628.399 467.714 628.039 471.374C626.239 490.084 622.029 531.784 620.079 551.054C595.444 558.929 569.008 559.198 544.219 551.824H544.209C525.902 546.344 509.056 536.831 494.909 523.984C494.989 506.754 494.739 487.374 493.579 474.914C490.109 437.683 493.389 431.854 498.779 426.464C499.219 426.024 499.679 425.594 500.139 425.174C505.709 420.114 512.699 416.814 522.889 415.433C529.629 414.524 539.769 413.864 539.769 413.864C539.769 413.864 540.629 431.243 561.099 432.203C588.969 433.514 587.109 413.864 587.249 413.864C594.259 413.864 609.859 414.304 619.699 419.314C619.709 419.314 619.709 419.314 619.719 419.324C621.7 420.288 623.503 421.584 625.049 423.154C636.319 435.094 630.759 440.2 628.789 463.374Z" fill="#0CBC8B"/>
<path d="M585.054 378.972C581.032 381.017 576.444 381.663 572.014 380.81C571.861 380.781 571.702 380.796 571.557 380.854C571.412 380.912 571.286 381.01 571.195 381.136C571.103 381.263 571.05 381.413 571.041 381.568C571.031 381.724 571.066 381.879 571.142 382.016C572.465 384.343 575.596 388.322 580.97 386.701C584.44 385.654 585.752 382.084 586.238 379.875C586.272 379.722 586.261 379.563 586.207 379.416C586.153 379.269 586.058 379.141 585.934 379.046C585.81 378.951 585.661 378.894 585.505 378.881C585.349 378.867 585.193 378.899 585.054 378.972Z" fill="white"/>
<path d="M585.306 361.086C586.379 361.086 587.249 360.216 587.249 359.143C587.249 358.07 586.379 357.2 585.306 357.2C584.233 357.2 583.363 358.07 583.363 359.143C583.363 360.216 584.233 361.086 585.306 361.086Z" fill="#0C0C0C"/>
<path d="M566.632 364.355C567.705 364.355 568.575 363.485 568.575 362.412C568.575 361.339 567.705 360.469 566.632 360.469C565.559 360.469 564.689 361.339 564.689 362.412C564.689 363.485 565.559 364.355 566.632 364.355Z" fill="#0C0C0C"/>
<path d="M624.492 505.319C624.479 505.32 624.467 505.32 624.454 505.319C624.375 505.308 624.304 505.266 624.256 505.203C624.208 505.14 624.187 505.06 624.198 504.981L627.633 470.372C627.638 470.333 627.65 470.294 627.67 470.26C627.69 470.226 627.716 470.195 627.748 470.172C627.779 470.148 627.816 470.13 627.854 470.121C627.893 470.111 627.933 470.11 627.972 470.116C628.051 470.127 628.122 470.169 628.17 470.232C628.218 470.295 628.239 470.375 628.228 470.454L624.793 505.063C624.782 505.135 624.746 505.2 624.691 505.248C624.635 505.295 624.565 505.32 624.492 505.319Z" fill="#0C0C0C"/>
<path d="M603.7 503.652L622.475 495.267C622.887 495.084 623.333 494.988 623.784 494.986C624.236 494.985 624.682 495.077 625.096 495.257C625.51 495.437 625.882 495.701 626.188 496.032C626.494 496.364 626.728 496.755 626.875 497.182C627.122 497.979 627.064 498.839 626.713 499.595C626.362 500.352 625.743 500.951 624.975 501.277L620.949 503.077L636.205 503.234C637.905 503.222 639.991 504.292 639.879 506.196C639.884 506.931 639.639 507.647 639.185 508.225C638.731 508.804 638.095 509.212 637.379 509.382C637.383 509.398 637.386 509.414 637.386 509.43C637.384 509.442 637.382 509.455 637.379 509.467L639.995 509.449C640.479 509.446 640.958 509.551 641.396 509.756C641.834 509.961 642.222 510.261 642.529 510.635C642.837 511.008 643.058 511.446 643.175 511.915C643.293 512.385 643.304 512.875 643.208 513.349C643.041 514.093 642.623 514.758 642.024 515.231C641.426 515.704 640.683 515.958 639.92 515.949L638.807 515.957C638.792 515.989 638.772 516.019 638.747 516.044C639.5 516.213 640.169 516.645 640.633 517.262C641.098 517.878 641.328 518.64 641.282 519.411C641.207 520.253 640.817 521.035 640.191 521.602C639.564 522.169 638.747 522.48 637.902 522.471L635.137 522.49C635.176 522.517 635.209 522.554 635.231 522.596C635.253 522.638 635.265 522.685 635.266 522.733C635.264 522.79 635.245 522.844 635.213 522.891C635.843 523.228 636.344 523.764 636.64 524.414C636.936 525.065 637.01 525.794 636.85 526.491C636.668 527.218 636.247 527.863 635.653 528.321C635.059 528.779 634.329 529.023 633.579 529.014L610.25 529.18C606.986 529.203 603.79 528.251 601.071 526.446C598.352 524.641 596.234 522.065 594.988 519.048C593.913 516.447 593.896 513.529 594.938 510.915C595.981 508.3 598.002 506.196 600.572 505.048L603.7 503.652Z" fill="#E98862"/>
<g opacity="0.2">
<path d="M622.278 509.3C622.278 509.38 622.31 509.456 622.366 509.512C622.422 509.568 622.498 509.6 622.578 509.6L637.086 509.731C637.166 509.732 637.242 509.701 637.299 509.645C637.356 509.589 637.388 509.513 637.388 509.434C637.389 509.354 637.358 509.277 637.302 509.221C637.247 509.164 637.171 509.132 637.091 509.131L622.581 509C622.501 509 622.425 509.032 622.369 509.088C622.313 509.144 622.281 509.22 622.281 509.3H622.278Z" fill="#0C0C0C"/>
</g>
<g opacity="0.2">
<path d="M622.044 515.7C622.044 515.78 622.076 515.856 622.132 515.912C622.188 515.968 622.264 516 622.344 516L638.534 516.146C638.614 516.146 638.69 516.114 638.746 516.058C638.802 516.002 638.834 515.926 638.834 515.846C638.832 515.767 638.799 515.692 638.744 515.636C638.688 515.581 638.613 515.548 638.534 515.546L622.343 515.4C622.263 515.4 622.187 515.432 622.131 515.488C622.075 515.544 622.044 515.62 622.044 515.7Z" fill="#0C0C0C"/>
</g>
<g opacity="0.2">
<path d="M621.75 522.623C621.75 522.703 621.782 522.779 621.838 522.835C621.894 522.891 621.97 522.923 622.05 522.923L634.965 523.04C635.045 523.04 635.121 523.008 635.177 522.952C635.233 522.896 635.265 522.82 635.265 522.74C635.265 522.66 635.233 522.584 635.177 522.528C635.121 522.472 635.045 522.44 634.965 522.44L622.05 522.324C621.97 522.324 621.894 522.356 621.838 522.412C621.782 522.468 621.75 522.544 621.75 522.624V522.623Z" fill="#0C0C0C"/>
</g>
<path d="M609.079 537.084L544.219 551.824H544.209C525.902 546.344 509.056 536.831 494.909 523.984C493.389 522.604 491.902 521.19 490.449 519.743C487.916 517.214 485.492 514.585 483.179 511.854L492.259 438.814C493.25 432.926 496.539 427.673 501.402 424.21C506.266 420.747 512.306 419.358 518.194 420.349C524.082 421.34 529.335 424.628 532.798 429.492C536.261 434.356 537.65 440.396 536.659 446.284L530.919 514.864L603.239 498.493L609.079 537.084Z" fill="#0CBC8B"/>
<path d="M516.29 517.558C516.251 517.561 516.211 517.556 516.173 517.544C516.136 517.531 516.101 517.512 516.071 517.486C516.041 517.46 516.017 517.429 515.999 517.394C515.981 517.358 515.97 517.32 515.967 517.28C515.965 517.241 515.969 517.201 515.982 517.164C515.994 517.126 516.014 517.092 516.039 517.062C516.065 517.032 516.097 517.007 516.132 516.989C516.167 516.972 516.206 516.961 516.245 516.958L530.745 513.858C530.784 513.852 530.824 513.854 530.862 513.863C530.9 513.873 530.936 513.89 530.968 513.913C531 513.936 531.027 513.966 531.047 514C531.068 514.033 531.081 514.071 531.087 514.11C531.093 514.149 531.091 514.189 531.081 514.227C531.072 514.265 531.055 514.301 531.031 514.333C531.008 514.365 530.978 514.391 530.944 514.412C530.91 514.432 530.873 514.445 530.834 514.451L516.329 517.551C516.316 517.554 516.303 517.557 516.29 517.558Z" fill="#0C0C0C"/>
<path d="M609.079 537.084C609.095 537.161 609.082 537.241 609.041 537.308C609 537.375 608.935 537.423 608.859 537.444L545.849 552.294C545.449 552.183 545.059 552.074 544.669 551.953L608.419 536.944L602.739 498.944L530.849 514.453C530.802 514.461 530.755 514.457 530.71 514.444C530.665 514.43 530.623 514.406 530.589 514.374C530.559 514.338 530.537 514.297 530.523 514.252C530.509 514.207 530.504 514.161 530.509 514.114L534.539 474.924C534.546 474.885 534.561 474.848 534.582 474.815C534.604 474.782 534.631 474.753 534.664 474.731C534.696 474.708 534.733 474.693 534.772 474.685C534.81 474.676 534.85 474.676 534.889 474.683C534.967 474.695 535.037 474.738 535.084 474.802C535.131 474.866 535.151 474.946 535.139 475.024L531.169 513.814L602.869 498.274C602.908 498.263 602.949 498.261 602.989 498.268C603.028 498.275 603.066 498.291 603.099 498.314C603.133 498.333 603.164 498.358 603.188 498.389C603.212 498.42 603.229 498.455 603.239 498.493L609.079 537.084Z" fill="#0C0C0C"/>
<path d="M121.474 704.777C186.353 704.777 238.948 652.182 238.948 587.303C238.948 522.424 186.353 469.829 121.474 469.829C56.5949 469.829 4 522.424 4 587.303C4 652.182 56.5949 704.777 121.474 704.777Z" fill="white"/>
<path opacity="0.09" d="M121.474 704.777C186.353 704.777 238.948 652.182 238.948 587.303C238.948 522.424 186.353 469.829 121.474 469.829C56.5949 469.829 4 522.424 4 587.303C4 652.182 56.5949 704.777 121.474 704.777Z" fill="#367CFF"/>
<path d="M89.123 520.672C89.123 520.672 90.396 556.053 114.011 557.679L118.011 511.023L89.123 520.672Z" fill="#0A0A0A"/>
<path d="M93.671 564.906C101.397 564.906 107.661 558.642 107.661 550.916C107.661 543.19 101.397 536.926 93.671 536.926C85.9446 536.926 79.681 543.19 79.681 550.916C79.681 558.642 85.9446 564.906 93.671 564.906Z" fill="#0A0A0A"/>
<path d="M148.41 574.1C148.285 574.083 146.903 597.025 120.251 595.025C101.8 593.646 95.222 574.07 94.8 574.07C96.9085 573.72 98.9884 573.215 101.023 572.561C103.928 571 107.523 569.376 108.459 563.734C108.999 560.482 108.084 543.845 108.365 540.555L136.687 546.877C136.287 553.825 133.521 569.934 143.229 572.786C144.843 573.257 146.583 573.691 148.41 574.1Z" fill="#E98862"/>
<path opacity="0.5" d="M137.083 566.2C136.639 564.769 136.353 563.293 136.231 561.8C135.92 558.396 135.982 554.968 136.416 551.577C130.66 550.8 125.237 548.424 120.763 544.719C120.237 546.661 117.345 555.148 118.146 556.993C119.66 560.489 126.773 566.2 137.083 566.2Z" fill="#0C0C0C"/>
<path d="M132.646 560.019C121.429 560.162 107.406 554.502 105.668 539.434L104.1 525.834C102.361 510.766 108.866 497.634 123.054 496.001C137.241 494.365 149.254 505.356 150.993 520.425L151.687 526.444C152.354 532.229 152.66 559.765 132.646 560.019Z" fill="#E98862"/>
<path d="M147.621 526.04C148.593 526.04 149.38 525.252 149.38 524.281C149.38 523.31 148.593 522.522 147.621 522.522C146.65 522.522 145.862 523.31 145.862 524.281C145.862 525.252 146.65 526.04 147.621 526.04Z" fill="#0C0C0C"/>
<path d="M129.642 528.096C130.614 528.096 131.401 527.308 131.401 526.337C131.401 525.366 130.614 524.578 129.642 524.578C128.671 524.578 127.883 525.366 127.883 526.337C127.883 527.308 128.671 528.096 129.642 528.096Z" fill="#0C0C0C"/>
<path opacity="0.5" d="M138.564 539.729H138.592C139.167 539.658 139.737 539.556 140.301 539.423C141.143 539.218 142.253 538.858 142.166 538.104C142.066 537.246 138.647 528.253 138.257 527.231C138.24 527.187 138.215 527.146 138.182 527.112C138.15 527.078 138.111 527.05 138.068 527.031C138.024 527.011 137.978 527.001 137.931 526.999C137.883 526.998 137.836 527.006 137.792 527.023C137.748 527.04 137.707 527.065 137.673 527.098C137.639 527.13 137.611 527.169 137.592 527.212C137.572 527.256 137.562 527.302 137.56 527.349C137.559 527.397 137.567 527.444 137.584 527.488C139.043 531.317 141.384 537.609 141.45 538.188C140.55 538.695 139.541 538.978 138.509 539.014C138.414 539.021 138.325 539.066 138.263 539.139C138.201 539.211 138.17 539.305 138.178 539.4C138.185 539.496 138.23 539.584 138.302 539.646C138.375 539.708 138.469 539.739 138.564 539.732V539.729Z" fill="#0C0C0C"/>
<path opacity="0.5" d="M136.028 546C138.332 545.868 140.573 545.197 142.571 544.041C142.65 543.992 142.707 543.915 142.73 543.825C142.753 543.736 142.741 543.641 142.697 543.56C142.652 543.479 142.577 543.418 142.489 543.39C142.401 543.362 142.305 543.369 142.222 543.41C137.908 545.797 133.782 545.935 130.292 543.81C130.222 543.765 130.149 543.724 130.074 543.686C129.988 543.652 129.891 543.653 129.806 543.689C129.72 543.724 129.651 543.791 129.613 543.876C129.575 543.961 129.572 544.057 129.603 544.144C129.634 544.231 129.698 544.303 129.781 544.345C129.808 544.359 129.854 544.387 129.917 544.426C131.752 545.547 133.88 546.095 136.028 546Z" fill="#0C0C0C"/>
<path d="M92.565 529.7L105.278 528.307C115.057 525.149 119.12 508.907 119.12 508.907C119.12 508.907 127.883 518.872 153.851 514.322C153.851 514.322 152.845 480.844 113.351 485.557C99.6 487.2 89.231 500.99 89.124 519.021C89.05 531.656 92.565 529.7 92.565 529.7Z" fill="#0A0A0A"/>
<path d="M107.079 543.923C102.767 544.423 98.74 540.211 98.243 535.899C97.746 531.587 100.966 528.807 105.278 528.31L107.833 530.942L110.786 543.495L107.079 543.923Z" fill="#E98862"/>
<path d="M141.4 519.892C142.672 519.188 144.109 518.839 145.562 518.88C146.279 518.896 146.99 519.02 147.671 519.247C148.347 519.469 148.993 519.776 149.592 520.16C149.652 520.198 149.695 520.258 149.712 520.327C149.729 520.396 149.719 520.469 149.683 520.531C149.648 520.592 149.59 520.638 149.522 520.658C149.453 520.678 149.38 520.671 149.317 520.638L149.299 520.628C148.731 520.291 148.123 520.026 147.489 519.841C146.861 519.653 146.208 519.562 145.553 519.57C144.249 519.577 142.97 519.928 141.846 520.589L141.819 520.606C141.773 520.637 141.72 520.657 141.666 520.667C141.611 520.677 141.555 520.676 141.501 520.664C141.446 520.652 141.395 520.629 141.35 520.596C141.305 520.564 141.267 520.523 141.238 520.475C141.209 520.428 141.19 520.375 141.182 520.32C141.174 520.265 141.177 520.209 141.191 520.155C141.205 520.101 141.23 520.051 141.264 520.007C141.298 519.963 141.341 519.926 141.389 519.899L141.4 519.892Z" fill="#0C0C0C"/>
<path d="M130.006 521.988C128.763 521.594 127.437 521.537 126.165 521.823C125.524 521.963 124.908 522.199 124.338 522.523C123.762 522.845 123.228 523.239 122.75 523.694L122.735 523.708C122.681 523.748 122.613 523.767 122.546 523.761C122.479 523.755 122.416 523.724 122.369 523.675C122.323 523.626 122.297 523.561 122.295 523.493C122.293 523.426 122.316 523.36 122.36 523.308C122.859 522.8 123.419 522.357 124.028 521.989C124.641 521.616 125.306 521.336 126.002 521.16C127.409 520.795 128.888 520.815 130.285 521.217C130.339 521.231 130.39 521.255 130.434 521.289C130.478 521.323 130.515 521.365 130.543 521.414C130.57 521.462 130.588 521.516 130.594 521.571C130.6 521.627 130.595 521.683 130.579 521.736C130.563 521.79 130.537 521.839 130.501 521.882C130.466 521.925 130.422 521.96 130.372 521.986C130.323 522.011 130.269 522.027 130.213 522.031C130.158 522.035 130.102 522.028 130.049 522.01H130.038L130.006 521.988Z" fill="#0C0C0C"/>
<path opacity="0.52" d="M136.269 549.407C136.686 549.39 137.101 549.337 137.509 549.25C137.6 549.227 137.678 549.17 137.728 549.091C137.778 549.012 137.795 548.917 137.775 548.825C137.756 548.733 137.702 548.653 137.624 548.601C137.547 548.548 137.452 548.528 137.36 548.544C136.723 548.73 136.053 548.778 135.396 548.685C134.738 548.592 134.108 548.359 133.548 548.003C133.474 547.942 133.379 547.914 133.284 547.923C133.189 547.933 133.101 547.98 133.041 548.054C132.981 548.128 132.952 548.223 132.962 548.318C132.971 548.413 133.018 548.5 133.092 548.561C134.021 549.202 135.144 549.501 136.269 549.407Z" fill="#0C0C0C"/>
<path opacity="0.1" d="M127.206 540.008C129.055 539.943 130.516 538.791 130.469 537.434C130.421 536.077 128.883 535.03 127.034 535.095C125.184 535.16 123.723 536.312 123.771 537.669C123.818 539.025 125.356 540.073 127.206 540.008Z" fill="#0C0C0C"/>
<path opacity="0.1" d="M147 536.263C147.052 537.618 148.589 538.663 150.439 538.602C150.759 538.591 151.076 538.546 151.387 538.469C151.606 536.877 151.74 535.339 151.813 533.911C151.315 533.741 150.79 533.666 150.264 533.689C148.418 533.751 146.958 534.9 147 536.263Z" fill="#0C0C0C"/>
<path d="M188.215 598.264C188.135 606.274 185.385 615.824 184.405 627.364C184.145 630.444 177.534 639.354 176.574 649.264C175.364 661.884 178.055 681.564 178.415 690.074C159.833 700.356 138.813 705.414 117.588 704.709C96.3627 704.005 75.7244 697.565 57.865 686.074C57.385 664.214 56.815 637.224 56.085 630.754C53.715 609.394 54.355 595.884 57.775 589.564C63.365 579.244 73.315 576.094 83.725 574.674C90.085 573.814 99.635 573.204 99.635 573.204C99.635 573.204 100.445 589.574 119.745 590.484C146.015 591.724 144.265 573.204 144.395 573.204C153.925 573.204 171.985 575.484 178.905 580.204C186.245 585.194 188.305 591.114 188.215 598.264Z" fill="#FFC239"/>
<path d="M97.455 610.724L61.815 688.5C48.1309 680.422 36.2249 669.655 26.815 656.85L56.545 591.97L97.455 610.724Z" fill="#FFC239"/>
<path d="M217.005 655.674C210.023 665.415 201.596 674.034 192.015 681.234C188.861 683.615 185.587 685.831 182.205 687.874L145.625 607.454L186.585 588.814L217.005 655.674Z" fill="#FFC239"/>
<path d="M365.956 244.618C433.505 244.618 488.265 189.858 488.265 122.309C488.265 54.7596 433.505 0 365.956 0C298.407 0 243.647 54.7596 243.647 122.309C243.647 189.858 298.407 244.618 365.956 244.618Z" fill="white"/>
<path opacity="0.09" d="M365.956 244.618C433.505 244.618 488.265 189.858 488.265 122.309C488.265 54.7596 433.505 0 365.956 0C298.407 0 243.647 54.7596 243.647 122.309C243.647 189.858 298.407 244.618 365.956 244.618Z" fill="#367CFF"/>
<path d="M389.606 49.0681C389.606 49.0681 397.351 40.6741 396.752 24.6861C396.289 12.3071 386.573 22.1401 386.573 22.1401C386.573 22.1401 386.152 13.2301 379.973 15.2401C373.794 17.2501 371.894 27.0341 371.894 27.0341" fill="#0C0C0C"/>
<path d="M347.388 22.1901C347.388 22.1901 316.543 31.2551 335.629 71.8211L338.446 71.5031L344.164 70.8591" fill="#0C0C0C"/>
<path d="M391.1 113.9C390.96 113.882 389.4 139.76 359.337 137.5C338.525 135.941 331.104 113.86 330.627 113.86C332.871 113.383 335.644 112.66 336.746 112.411C339.148 111.854 341.323 110.578 342.983 108.754C344.642 106.93 345.707 104.644 346.035 102.2C346.644 98.5321 345.611 79.7661 345.929 76.0551L377.875 83.1851C377.429 91.0241 374.305 109.195 385.255 112.411C387.078 112.944 389.041 113.434 391.1 113.9Z" fill="#E98862"/>
<path opacity="0.52" d="M378.324 104.986C377.824 103.373 377.502 101.711 377.363 100.028C377.012 96.1879 377.082 92.3209 377.572 88.496C371.079 87.6196 364.962 84.9394 359.916 80.76C359.322 82.951 356.06 92.524 356.963 94.606C358.671 98.542 366.694 104.986 378.324 104.986Z" fill="#0C0C0C"/>
<path d="M373.109 96.747C360.509 97.88 344.244 92.731 340.983 75.935L338.04 60.78C334.779 43.98 340.957 28.655 356.771 25.585C372.585 22.514 387.049 33.835 390.311 50.631L391.611 57.34C392.019 59.6513 392.268 61.9877 392.357 64.333C392.639 70.533 393.044 79.956 390.064 86.922C387.252 93.5 381.161 96.024 373.109 96.747Z" fill="#E98862"/>
<path opacity="0.5" d="M375.014 80.1421C377.322 80.0987 379.587 79.5136 381.627 78.4341C381.671 78.414 381.711 78.3852 381.744 78.3493C381.777 78.3134 381.802 78.2712 381.819 78.2253C381.835 78.1794 381.841 78.1307 381.838 78.0821C381.835 78.0335 381.822 77.9861 381.8 77.9426C381.778 77.8991 381.748 77.8606 381.711 77.8292C381.673 77.7978 381.63 77.7743 381.584 77.7601C381.537 77.7458 381.488 77.7411 381.44 77.7463C381.391 77.7515 381.345 77.7664 381.302 77.7901C376.902 80.0111 372.773 79.9901 369.366 77.7361C369.297 77.6885 369.226 77.6444 369.153 77.6041C369.111 77.5832 369.064 77.5709 369.017 77.5679C368.97 77.5648 368.922 77.5711 368.878 77.5864C368.833 77.6017 368.792 77.6256 368.756 77.6569C368.72 77.6882 368.691 77.7261 368.671 77.7686C368.65 77.8111 368.637 77.8573 368.634 77.9045C368.631 77.9517 368.638 77.9991 368.653 78.0439C368.668 78.0887 368.692 78.1301 368.723 78.1656C368.755 78.2012 368.793 78.2302 368.835 78.2511C368.862 78.2661 368.906 78.2961 368.968 78.3371C370.759 79.5272 372.864 80.1557 375.014 80.1421Z" fill="#0C0C0C"/>
<path opacity="0.52" d="M375.125 83.5591C375.542 83.5578 375.959 83.521 376.37 83.4491C376.417 83.4411 376.461 83.4241 376.501 83.3989C376.541 83.3737 376.576 83.3409 376.603 83.3023C376.631 83.2637 376.65 83.2201 376.661 83.174C376.671 83.1279 376.672 83.0802 376.664 83.0336C376.657 82.9869 376.64 82.9423 376.614 82.9023C376.589 82.8623 376.556 82.8276 376.518 82.8003C376.479 82.7729 376.436 82.7534 376.389 82.7429C376.343 82.7324 376.296 82.7311 376.249 82.7391C375.605 82.9004 374.934 82.9227 374.281 82.8044C373.627 82.6861 373.007 82.43 372.46 82.0531C372.388 81.9923 372.295 81.9621 372.201 81.969C372.107 81.9759 372.02 82.0193 371.958 82.09C371.895 82.1606 371.863 82.2529 371.868 82.3469C371.873 82.441 371.915 82.5293 371.984 82.5931C372.888 83.2687 373.998 83.6101 375.125 83.5591Z" fill="#0C0C0C"/>
<path d="M386.526 61.572C387.622 61.572 388.51 60.6837 388.51 59.588C388.51 58.4923 387.622 57.604 386.526 57.604C385.43 57.604 384.542 58.4923 384.542 59.588C384.542 60.6837 385.43 61.572 386.526 61.572Z" fill="#0C0C0C"/>
<path d="M367.234 63.827C368.33 63.827 369.218 62.9387 369.218 61.843C369.218 60.7473 368.33 59.859 367.234 59.859C366.138 59.859 365.25 60.7473 365.25 61.843C365.25 62.9387 366.138 63.827 367.234 63.827Z" fill="#0C0C0C"/>
<path d="M342.959 80.861C338.153 81.794 333.259 77.409 332.325 72.603C331.391 67.797 334.774 64.391 339.579 63.458L342.679 66.197L347.089 80.059L342.959 80.861Z" fill="#E98862"/>
<path d="M346.35 72.2531C346.35 72.2531 343.665 48.1381 350.622 45.3601C355.255 43.5091 368.156 48.2211 378.589 44.2051C383.153 42.4471 387.853 42.8051 388.713 44.9561C389.054 45.8071 389.7 32.5681 380.551 24.2651C373.267 17.6551 353.587 18.9781 345.267 23.0841C322.23 34.4531 338.776 64.6841 338.776 64.6841L341.346 72.7001L346.35 72.2531Z" fill="#0C0C0C"/>
<g opacity="0.52">
<path d="M377.972 74.1701H378.003C379.553 73.8701 382.119 73.2031 381.903 72.0441C381.718 71.0831 377.103 61.2191 376.579 60.0981C376.557 60.0503 376.525 60.0075 376.486 59.9719C376.447 59.9364 376.402 59.9089 376.352 59.891C376.302 59.873 376.25 59.8651 376.197 59.8675C376.144 59.8699 376.093 59.8827 376.045 59.9051C375.997 59.9275 375.954 59.959 375.919 59.998C375.883 60.0369 375.856 60.0825 375.838 60.1321C375.82 60.1817 375.812 60.2343 375.814 60.287C375.817 60.3396 375.83 60.3913 375.852 60.4391C377.898 64.8071 380.988 71.5391 381.114 72.1941C381.014 72.4941 379.462 73.0731 377.858 73.3801C377.752 73.3958 377.656 73.4531 377.593 73.5393C377.529 73.6255 377.502 73.7335 377.517 73.8396C377.533 73.9457 377.591 74.0411 377.677 74.105C377.763 74.1688 377.871 74.1958 377.977 74.1801L377.972 74.1701Z" fill="#0C0C0C"/>
</g>
<path d="M379.068 50.0001C380.619 49.2567 382.341 48.9457 384.054 49.1001C384.894 49.1708 385.719 49.367 386.501 49.6821C387.273 49.9891 388.004 50.3923 388.675 50.8821C388.8 50.9683 388.886 51.0994 388.916 51.248C388.946 51.3965 388.917 51.5508 388.835 51.6784C388.753 51.8061 388.625 51.8971 388.478 51.9322C388.331 51.9674 388.175 51.9441 388.045 51.8671L388 51.8511C387.391 51.4624 386.736 51.1516 386.05 50.9261C385.375 50.7008 384.67 50.5791 383.959 50.5651C382.557 50.526 381.169 50.8582 379.937 51.5281L379.886 51.5571C379.786 51.6143 379.675 51.6513 379.561 51.6658C379.446 51.6804 379.33 51.6722 379.218 51.6418C379.107 51.6114 379.003 51.5593 378.911 51.4886C378.82 51.4179 378.744 51.3299 378.686 51.2296C378.629 51.1293 378.592 51.0188 378.578 50.9042C378.563 50.7897 378.571 50.6734 378.602 50.562C378.632 50.4506 378.684 50.3463 378.755 50.2551C378.826 50.1638 378.914 50.0873 379.014 50.0301L379.068 50.0001Z" fill="#0C0C0C"/>
<path d="M367.693 53.0741C366.342 52.6962 364.916 52.6813 363.558 53.0311C362.868 53.2028 362.208 53.4783 361.6 53.8481C360.98 54.2204 360.409 54.6689 359.9 55.1831L359.868 55.2151C359.758 55.3212 359.612 55.3803 359.459 55.3798C359.307 55.3793 359.16 55.3192 359.051 55.2124C358.943 55.1056 358.88 54.9605 358.876 54.808C358.873 54.6555 358.929 54.5077 359.033 54.3961C359.578 53.7679 360.2 53.2111 360.884 52.7391C361.577 52.2577 362.337 51.8825 363.141 51.6261C363.944 51.3613 364.78 51.2078 365.625 51.1701C366.49 51.1225 367.358 51.1979 368.202 51.3941C368.429 51.4471 368.626 51.5882 368.749 51.7862C368.872 51.9843 368.911 52.2231 368.858 52.4501C368.805 52.6771 368.664 52.8738 368.466 52.9968C368.268 53.1198 368.029 53.1591 367.802 53.1061L367.75 53.0921L367.693 53.0741Z" fill="#0C0C0C"/>
<path d="M373.778 34.0234C377.208 32.6331 378.33 27.4128 376.284 22.3634C374.237 17.314 369.797 14.3477 366.367 15.7379C362.937 17.1281 361.815 22.3485 363.861 27.3979C365.907 32.4472 370.347 35.4136 373.778 34.0234Z" fill="#0C0C0C"/>
<path d="M432.65 140.641C432.77 148.931 429.53 158.251 428.45 170.871C428.23 173.431 427.71 179.071 427.02 186.421C425.89 198.591 424.29 215.421 422.89 230.591C402.869 241.1 380.329 245.86 357.769 244.346C335.208 242.832 313.507 235.101 295.07 222.011C294.63 221.681 294.19 221.361 293.75 221.051C292.58 203.901 291.2 185.901 289.94 174.531C287.57 153.301 284.34 142.731 286.15 135.591C286.295 134.983 286.489 134.388 286.73 133.811C291.94 121.171 308.53 115.531 319.77 114.011C326.63 113.081 336.95 112.411 336.95 112.411C336.95 112.411 337.82 130.091 358.65 131.071C387.01 132.411 385.12 112.411 385.26 112.411C389.85 112.411 414.86 115.751 421.11 119.831C422.158 120.511 423.16 121.259 424.11 122.071C426.825 124.336 429.001 127.178 430.479 130.391C431.956 133.603 432.698 137.105 432.65 140.641Z" fill="#383838"/>
<path d="M328.23 153.461L295.07 222.011C294.63 221.681 294.19 221.361 293.75 221.051C280.895 211.625 269.994 199.793 261.65 186.211L286.15 135.591L287.12 133.581L328.23 153.461Z" fill="#383838"/>
<path d="M325.03 161.351L294.87 221.861C294.67 221.711 294.48 221.571 294.28 221.441L324.4 161.041C324.443 160.957 324.518 160.893 324.607 160.863C324.697 160.833 324.795 160.84 324.88 160.881C324.962 160.924 325.024 160.997 325.052 161.085C325.08 161.173 325.072 161.269 325.03 161.351Z" fill="white"/>
<path d="M477.95 171.551C471.939 185.175 463.498 197.59 453.04 208.191L427.02 186.421L393.97 158.761L424.11 122.071L424.2 121.961L477.95 171.551Z" fill="#383838"/>
<path d="M427.421 186.688C427.506 186.684 427.586 186.649 427.648 186.59C427.709 186.531 427.747 186.452 427.754 186.367L429.471 166.237C429.479 166.144 429.45 166.052 429.39 165.98C429.33 165.909 429.244 165.864 429.151 165.856C429.058 165.849 428.967 165.879 428.896 165.939C428.825 165.999 428.78 166.084 428.771 166.176L427.054 186.307C427.046 186.4 427.076 186.492 427.136 186.563C427.196 186.634 427.281 186.679 427.374 186.687L427.421 186.688Z" fill="white"/>
<path d="M941.877 774.25C1006.3 774.25 1058.53 722.021 1058.53 657.593C1058.53 593.165 1006.3 540.936 941.877 540.936C877.449 540.936 825.22 593.165 825.22 657.593C825.22 722.021 877.449 774.25 941.877 774.25Z" fill="white"/>
<path opacity="0.09" d="M825.219 657.59C825.219 680.662 832.06 703.216 844.878 722.4C857.697 741.584 875.915 756.536 897.231 765.366C918.547 774.195 942.003 776.506 964.632 772.005C987.261 767.504 1008.05 756.393 1024.36 740.079C1040.68 723.764 1051.79 702.978 1056.29 680.35C1060.79 657.721 1058.48 634.265 1049.65 612.949C1040.82 591.633 1025.87 573.414 1006.68 560.596C987.5 547.778 964.946 540.936 941.874 540.936C926.539 540.88 911.344 543.858 897.166 549.701C882.987 555.543 870.105 564.134 859.261 574.977C848.417 585.821 839.827 598.703 833.984 612.882C828.142 627.06 825.163 642.255 825.219 657.59Z" fill="#367CFF"/>
<path d="M994.811 593.218C992.948 614.818 994.675 622.142 1003.64 634.518C1011.21 644.952 968.166 636.083 949.122 632.691L965.927 583.573C965.927 583.573 995.465 585.633 994.811 593.218Z" fill="#0A0A0A"/>
<path d="M929.106 584.231C923.487 605.17 924.118 611.648 913.122 622.644C904.009 631.758 939.527 633.611 958.585 636.922L959.549 585.022C959.549 585.022 931.08 576.878 929.106 584.231Z" fill="#0A0A0A"/>
<path d="M931 645.133C931.125 645.116 932.521 668.273 959.422 666.254C978.045 664.859 984.685 645.1 985.112 645.1C982.984 644.746 980.885 644.237 978.831 643.577C975.899 642.001 972.27 640.361 971.325 634.667C970.78 631.384 971.704 614.592 971.42 611.267L942.833 617.648C943.233 624.662 946.033 640.922 936.233 643.799C934.6 644.279 932.843 644.717 931 645.133Z" fill="#E98862"/>
<path opacity="0.5" d="M942.432 637.158C942.88 635.715 943.168 634.227 943.292 632.721C943.607 629.285 943.544 625.825 943.106 622.402C948.916 621.618 954.39 619.22 958.906 615.48C959.437 617.441 962.356 626.006 961.548 627.869C960.019 631.391 952.84 637.158 942.432 637.158Z" fill="#0C0C0C"/>
<path d="M946.129 629.944C957.4 631.034 971.982 626.526 975.003 611.517L977.729 597.974C980.75 582.965 975.315 569.211 961.184 566.367C947.052 563.523 934.04 573.567 931.019 588.573L929.813 594.573C928.654 600.328 926.02 628 946.129 629.944Z" fill="#E98862"/>
<path d="M991.369 602.249L978.656 600.856C953.78 596.282 947.688 576.209 947.688 576.209C947.688 576.209 937.253 590.14 928.393 586.941C928.393 586.941 931.249 553.35 970.581 559.253C986.035 561.572 994.81 574.383 994.81 591.567C994.81 604.2 991.369 602.249 991.369 602.249Z" fill="#0A0A0A"/>
<path opacity="0.1" d="M956.939 608.208C957.101 606.847 955.73 605.565 953.875 605.344C952.02 605.122 950.385 606.046 950.223 607.407C950.06 608.767 951.432 610.05 953.287 610.271C955.142 610.492 956.777 609.568 956.939 608.208Z" fill="#0C0C0C"/>
<path opacity="0.1" d="M933.7 604.837C933.534 606.195 931.9 607.118 930.044 606.899C929.723 606.86 929.408 606.789 929.102 606.685C929.016 605.065 929.011 603.507 929.058 602.064C929.573 601.936 930.107 601.905 930.634 601.972C932.484 602.191 933.856 603.473 933.7 604.837Z" fill="#0C0C0C"/>
<path opacity="0.5" d="M941.891 609.036H941.863C941.291 608.917 940.726 608.766 940.17 608.584C939.34 608.306 938.254 607.851 938.405 607.1C938.577 606.245 942.777 597.489 943.255 596.494C943.275 596.45 943.303 596.41 943.339 596.376C943.375 596.343 943.416 596.317 943.462 596.301C943.508 596.284 943.556 596.276 943.605 596.279C943.653 596.281 943.701 596.293 943.745 596.314C943.789 596.335 943.828 596.365 943.86 596.401C943.893 596.438 943.917 596.48 943.933 596.527C943.948 596.573 943.954 596.622 943.95 596.67C943.947 596.719 943.933 596.766 943.911 596.809C942.119 600.537 939.234 606.668 939.118 607.244C939.98 607.83 940.971 608.2 942.006 608.323C942.098 608.342 942.178 608.396 942.231 608.473C942.284 608.55 942.305 608.645 942.291 608.737C942.276 608.829 942.226 608.912 942.152 608.969C942.077 609.026 941.984 609.051 941.891 609.041V609.036Z" fill="#0C0C0C"/>
<path d="M973.205 615.913C977.5 616.777 981.905 612.884 982.77 608.589C983.635 604.294 980.63 601.225 976.335 600.361L973.543 602.793L969.513 615.17L973.205 615.913Z" fill="#E98862"/>
<path d="M940.21 589.507C939.68 589.132 939.102 588.829 938.491 588.607C937.873 588.375 937.225 588.229 936.567 588.174C935.909 588.111 935.244 588.148 934.597 588.283C933.944 588.416 933.31 588.631 932.711 588.922L932.692 588.93C932.627 588.953 932.556 588.952 932.492 588.925C932.428 588.899 932.376 588.85 932.347 588.787C932.317 588.725 932.312 588.654 932.332 588.588C932.352 588.522 932.396 588.466 932.455 588.43C933.09 588.095 933.765 587.84 934.464 587.673C935.168 587.502 935.894 587.438 936.617 587.483C938.082 587.564 939.497 588.037 940.717 588.852C940.805 588.916 940.865 589.011 940.884 589.119C940.903 589.226 940.879 589.336 940.818 589.426C940.757 589.516 940.663 589.579 940.556 589.601C940.45 589.623 940.339 589.602 940.247 589.543L940.237 589.536L940.21 589.507Z" fill="#0C0C0C"/>
<path d="M951.783 591.107C953.221 590.821 954.71 590.926 956.094 591.412C956.779 591.647 957.425 591.984 958.01 592.412C958.592 592.833 959.118 593.326 959.577 593.879C959.627 593.934 959.653 594.006 959.649 594.079C959.646 594.153 959.614 594.222 959.559 594.272C959.505 594.322 959.432 594.348 959.359 594.344C959.285 594.341 959.216 594.309 959.166 594.254L959.151 594.239C958.708 593.74 958.204 593.3 957.651 592.927C957.104 592.554 956.505 592.266 955.872 592.072C954.616 591.678 953.279 591.624 951.995 591.914L951.964 591.922C951.856 591.949 951.743 591.931 951.648 591.874C951.553 591.816 951.485 591.724 951.458 591.616C951.431 591.508 951.449 591.395 951.506 591.3C951.564 591.205 951.656 591.137 951.764 591.11L951.783 591.107Z" fill="#0C0C0C"/>
<path d="M887.674 760.91C883.088 758.91 879.657 756.77 871.826 750.87C866.175 746.629 860.924 741.88 856.137 736.683L896.347 660.169L898.095 656.845L934.363 675.912L902.903 735.782L902.758 736.046L903.031 737.111" fill="#EA394A"/>
<path d="M1021.4 699.359C1020.34 710.705 1020.12 728.351 1020.19 744.04C1005.03 757.793 986.512 767.311 966.505 771.638C946.497 775.965 925.703 774.948 906.214 768.689C903.829 745.029 900.282 710.26 898.283 688.851C896.257 666.675 890.299 659.351 906.56 648.731C915.52 644.17 929.724 643.769 936.108 643.769C933.941 664.789 978.24 667.376 979.341 643.769C1012.47 646.867 1027.81 647.637 1021.4 699.359Z" fill="#EA394A"/>
<path d="M938.112 611.994C941.774 613.856 945.952 614.445 949.986 613.667C950.126 613.641 950.27 613.654 950.403 613.707C950.535 613.76 950.649 613.849 950.733 613.965C950.816 614.08 950.865 614.217 950.873 614.359C950.882 614.501 950.849 614.643 950.78 614.767C949.58 616.886 946.724 620.509 941.831 619.033C938.671 618.079 937.477 614.833 937.031 612.818C937 612.678 937.009 612.533 937.058 612.398C937.107 612.264 937.194 612.146 937.307 612.06C937.421 611.973 937.558 611.921 937.7 611.909C937.843 611.897 937.986 611.927 938.112 611.994Z" fill="white"/>
<path d="M937.883 595.708C938.86 595.708 939.652 594.916 939.652 593.939C939.652 592.962 938.86 592.17 937.883 592.17C936.906 592.17 936.114 592.962 936.114 593.939C936.114 594.916 936.906 595.708 937.883 595.708Z" fill="#0C0C0C"/>
<path d="M954.887 598.684C955.864 598.684 956.656 597.892 956.656 596.915C956.656 595.938 955.864 595.146 954.887 595.146C953.91 595.146 953.118 595.938 953.118 596.915C953.118 597.892 953.91 598.684 954.887 598.684Z" fill="#0C0C0C"/>
<path d="M902.2 727.041H902.234C902.306 727.031 902.371 726.993 902.414 726.935C902.458 726.877 902.477 726.804 902.467 726.732L899.339 695.219C899.335 695.183 899.324 695.149 899.306 695.117C899.288 695.086 899.264 695.058 899.235 695.037C899.206 695.015 899.173 694.999 899.138 694.991C899.103 694.982 899.067 694.98 899.031 694.986C898.995 694.991 898.961 695.003 898.93 695.021C898.899 695.039 898.872 695.063 898.85 695.092C898.829 695.12 898.813 695.153 898.804 695.188C898.795 695.222 898.793 695.259 898.798 695.294L901.925 726.808C901.935 726.874 901.968 726.933 902.019 726.976C902.069 727.019 902.134 727.042 902.2 727.041Z" fill="#0C0C0C"/>
<path d="M898.111 703.041H866.182V742.2H898.111V703.041Z" fill="white"/>
<path d="M885.036 722.621C885.037 720.035 885.804 717.507 887.241 715.357C888.678 713.207 890.721 711.532 893.11 710.542C895.5 709.553 898.129 709.295 900.665 709.8C903.202 710.305 905.531 711.55 907.36 713.379C909.188 715.208 910.433 717.538 910.937 720.075C911.441 722.611 911.182 725.24 910.192 727.629C909.202 730.018 907.526 732.06 905.376 733.497C903.225 734.934 900.697 735.7 898.111 735.7C894.644 735.696 891.32 734.317 888.869 731.865C886.417 729.413 885.039 726.088 885.036 722.621ZM890.391 722.621C890.391 724.148 890.844 725.64 891.692 726.91C892.54 728.179 893.746 729.169 895.157 729.753C896.567 730.338 898.12 730.491 899.617 730.193C901.115 729.895 902.49 729.159 903.57 728.08C904.65 727 905.385 725.625 905.683 724.127C905.981 722.63 905.828 721.077 905.243 719.667C904.659 718.256 903.67 717.05 902.4 716.202C901.13 715.354 899.638 714.901 898.111 714.901C896.064 714.903 894.102 715.718 892.655 717.165C891.208 718.612 890.393 720.574 890.391 722.621Z" fill="white"/>
<path d="M897.857 727.467C897.964 726.805 898.301 726.201 898.809 725.762C899.317 725.323 899.963 725.077 900.634 725.067C900.616 725.04 900.602 725.01 900.595 724.978L899.644 724.772C898.981 724.641 898.384 724.285 897.954 723.764C897.523 723.243 897.286 722.59 897.282 721.914C897.288 721.49 897.388 721.073 897.575 720.693C897.762 720.313 898.031 719.979 898.363 719.715C898.694 719.451 899.081 719.264 899.493 719.168C899.906 719.071 900.335 719.068 900.749 719.157L902.992 719.641C902.992 719.633 902.992 719.625 902.992 719.616C902.997 719.598 903.004 719.581 903.012 719.564C902.427 719.289 901.953 718.825 901.667 718.246C901.38 717.667 901.298 717.008 901.434 716.377C901.679 714.718 903.67 714.172 905.128 714.487L910.938 715.527L908.977 714.227C908.358 713.799 907.925 713.151 907.766 712.416C907.606 711.68 907.731 710.912 908.116 710.265C908.326 709.938 908.601 709.658 908.923 709.441C909.246 709.223 909.609 709.074 909.991 709.002C910.373 708.93 910.765 708.936 911.145 709.021C911.524 709.106 911.882 709.267 912.197 709.494L935.616 736.294L930.416 733.935C928.802 736.309 926.516 738.146 923.851 739.212C921.186 740.278 918.264 740.523 915.458 739.917L902.758 737.149C902.095 737.018 901.498 736.662 901.067 736.141C900.636 735.621 900.399 734.967 900.395 734.291C900.404 733.682 900.608 733.091 900.977 732.605C901.345 732.119 901.859 731.764 902.444 731.591C902.426 731.548 902.419 731.501 902.425 731.455C902.432 731.412 902.45 731.37 902.477 731.335C902.503 731.301 902.539 731.273 902.579 731.255L900.235 730.749C899.497 730.605 898.84 730.186 898.399 729.577C897.957 728.968 897.764 728.214 897.857 727.467Z" fill="#E98862"/>
<path opacity="0.2" d="M907.234 720.585C907.295 720.572 907.35 720.538 907.388 720.489C907.427 720.44 907.448 720.379 907.447 720.317C907.445 720.255 907.423 720.194 907.382 720.147C907.341 720.1 907.286 720.068 907.224 720.057L903.301 719.393C903.266 719.386 903.229 719.385 903.193 719.392C903.158 719.399 903.124 719.414 903.094 719.434C903.064 719.454 903.039 719.481 903.019 719.511C903 719.541 902.986 719.576 902.98 719.611C902.974 719.647 902.976 719.684 902.984 719.719C902.992 719.754 903.008 719.787 903.029 719.816C903.051 719.845 903.078 719.87 903.109 719.888C903.14 719.907 903.175 719.918 903.211 719.923L907.134 720.587C907.167 720.593 907.201 720.592 907.234 720.585Z" fill="#0C0C0C"/>
<path opacity="0.2" d="M906.287 726.134C906.348 726.121 906.403 726.088 906.442 726.039C906.481 725.99 906.501 725.929 906.5 725.867C906.5 725.804 906.477 725.744 906.437 725.697C906.396 725.649 906.34 725.617 906.279 725.606L900.905 724.653C900.869 724.645 900.833 724.644 900.797 724.65C900.761 724.657 900.727 724.671 900.696 724.691C900.666 724.711 900.64 724.737 900.62 724.767C900.6 724.798 900.586 724.832 900.58 724.868C900.573 724.904 900.574 724.941 900.582 724.976C900.591 725.012 900.606 725.045 900.628 725.075C900.65 725.104 900.677 725.129 900.708 725.147C900.74 725.166 900.775 725.178 900.811 725.182L906.185 726.136C906.219 726.142 906.253 726.141 906.287 726.134Z" fill="#0C0C0C"/>
<path opacity="0.2" d="M905.3 732.15C905.362 732.137 905.417 732.103 905.456 732.053C905.494 732.004 905.515 731.942 905.513 731.879C905.511 731.817 905.487 731.756 905.446 731.709C905.404 731.662 905.347 731.631 905.285 731.621L902.736 731.231C902.668 731.225 902.599 731.245 902.545 731.287C902.491 731.329 902.455 731.39 902.445 731.458C902.434 731.526 902.45 731.596 902.489 731.652C902.529 731.709 902.588 731.748 902.655 731.762L905.204 732.153C905.236 732.158 905.268 732.157 905.3 732.15Z" fill="#0C0C0C"/>
<path d="M1037.67 724.154C1023.3 744.816 1002.65 760.293 978.79 768.289L978.781 768.28C973.481 767.243 922.922 747.28 916.234 745.969L923.552 711.83C942.342 715.569 976.612 729.983 995.509 733.736L982.177 673.289C981.694 670.619 981.746 667.88 982.329 665.23C982.913 662.58 984.017 660.072 985.577 657.852C987.137 655.632 989.123 653.744 991.418 652.297C993.714 650.85 996.273 649.874 998.949 649.424C1001.63 648.974 1004.36 649.059 1007.01 649.676C1009.65 650.292 1012.14 651.427 1014.34 653.014C1016.54 654.602 1018.41 656.61 1019.83 658.923C1021.24 661.236 1022.19 663.808 1022.61 666.489L1037.67 724.154Z" fill="#EA394A"/>
<path d="M1009.83 738.186C1009.9 738.185 1009.97 738.158 1010.01 738.111C1010.06 738.064 1010.09 738.001 1010.1 737.933C1010.1 737.865 1010.08 737.797 1010.04 737.744C1010 737.69 1009.94 737.654 1009.87 737.642L995.665 732.822C995.629 732.816 995.593 732.818 995.558 732.826C995.523 732.835 995.49 732.85 995.461 732.872C995.432 732.893 995.408 732.92 995.389 732.951C995.371 732.982 995.359 733.016 995.354 733.052C995.343 733.124 995.362 733.197 995.405 733.255C995.448 733.313 995.512 733.351 995.584 733.362L1009.79 738.182C1009.81 738.185 1009.82 738.186 1009.83 738.186Z" fill="#0C0C0C"/>
<path d="M995.883 733.053C995.891 733.139 995.865 733.224 995.81 733.29C995.779 733.32 995.741 733.342 995.7 733.354C995.659 733.367 995.615 733.37 995.573 733.363L924.007 712.24L916.835 745.84L978.462 768.388C978.271 768.452 978.07 768.515 977.879 768.579C977.742 768.625 977.606 768.67 977.46 768.707L916.434 746.3C916.365 746.281 916.306 746.237 916.269 746.176C916.231 746.115 916.219 746.042 916.234 745.972L923.552 711.833C923.561 711.798 923.577 711.766 923.598 711.738C923.62 711.71 923.648 711.686 923.679 711.669C923.709 711.648 923.744 711.634 923.78 711.628C923.816 711.621 923.853 711.623 923.889 711.633L995.282 732.783L987.2 699.459C987.19 699.388 987.209 699.316 987.251 699.258C987.294 699.2 987.357 699.162 987.428 699.15C987.463 699.143 987.5 699.143 987.535 699.151C987.57 699.158 987.604 699.172 987.633 699.192C987.663 699.213 987.688 699.239 987.708 699.269C987.727 699.299 987.741 699.333 987.747 699.368L995.883 733.053Z" fill="#0C0C0C"/>
<path d="M62.667 689.507C62.6004 689.507 62.5345 689.494 62.473 689.468C62.4125 689.442 62.3575 689.405 62.3113 689.359C62.2651 689.312 62.2286 689.257 62.2038 689.196C62.179 689.135 62.1664 689.07 62.1668 689.004C62.1672 688.938 62.1805 688.873 62.206 688.813L81.8 642.24C81.8516 642.118 81.9496 642.021 82.0726 641.971C82.1955 641.921 82.3332 641.922 82.4555 641.973C82.5778 642.025 82.6745 642.123 82.7245 642.246C82.7745 642.369 82.7736 642.507 82.722 642.629L63.128 689.2C63.09 689.291 63.0259 689.368 62.9439 689.423C62.8619 689.478 62.7656 689.507 62.667 689.507Z" fill="#0C0C0C"/>
<path d="M177.965 690.036H177.943C177.877 690.039 177.812 690.029 177.75 690.007C177.688 689.984 177.632 689.95 177.583 689.906C177.535 689.861 177.495 689.808 177.468 689.748C177.44 689.689 177.424 689.625 177.421 689.559L175.237 641.925C175.235 641.794 175.283 641.667 175.372 641.57C175.46 641.472 175.582 641.413 175.713 641.402C175.779 641.399 175.844 641.409 175.906 641.431C175.968 641.453 176.025 641.488 176.073 641.532C176.122 641.576 176.161 641.63 176.189 641.689C176.217 641.749 176.233 641.813 176.236 641.879L178.42 689.513C178.426 689.642 178.383 689.769 178.298 689.866C178.213 689.964 178.094 690.024 177.965 690.036Z" fill="#0C0C0C"/>
</g>
<defs>
<filter id="filter0_d_5_463" x="0" y="0" width="1123.33" height="782.251" filterUnits="userSpaceOnUse" color-interpolation-filters="sRGB">
<feFlood flood-opacity="0" result="BackgroundImageFix"/>
<feColorMatrix in="SourceAlpha" type="matrix" values="0 0 0 0 0 0 0 0 0 0 0 0 0 0 0 0 0 0 127 0" result="hardAlpha"/>
<feOffset dy="4"/>
<feGaussianBlur stdDeviation="2"/>
<feComposite in2="hardAlpha" operator="out"/>
<feColorMatrix type="matrix" values="0 0 0 0 0 0 0 0 0 0 0 0 0 0 0 0 0 0 0.25 0"/>
<feBlend mode="normal" in2="BackgroundImageFix" result="effect1_dropShadow_5_463"/>
<feBlend mode="normal" in="SourceGraphic" in2="effect1_dropShadow_5_463" result="shape"/>
</filter>
<clipPath id="clip0_5_463">
<rect width="1115.33" height="774.251" fill="white" transform="translate(4)"/>
</clipPath>
</defs>
</svg>
