<svg width="198" height="486" viewBox="0 0 198 486" fill="none" xmlns="http://www.w3.org/2000/svg">
<path d="M110.117 474.2L89.264 471.72C90.202 463.827 91.264 454.346 91.336 452.791C91.336 452.891 91.336 452.973 91.336 453.036H112.336C112.331 453.661 112.331 455.577 110.117 474.2Z" fill="#E98862"/>
<path d="M26.442 476.705L5.44202 476.637C5.44202 476.637 5.51201 454.952 5.51201 453.031H26.512C26.512 454.958 26.442 476.705 26.442 476.705Z" fill="#E98862"/>
<path d="M80.87 467.563L117.864 466.933C116.127 422.902 116.021 376.715 115.479 332.576C108.258 285 104.455 232.76 95.543 185.527L18.418 181.734C18.418 181.734 16.218 212.861 15.458 225.286C11.751 285.567 4.54903 397.233 0.0300293 466.371L36.898 469.486C43.541 401.7 53.821 302.93 60.144 231.72C67.405 266.389 72.344 302.288 78.658 336.66C79.92 379.686 80.989 424.665 80.87 467.563Z" fill="#262626"/>
<path d="M51.97 484.827C52.5348 484.824 53.0929 484.705 53.6096 484.477C54.1263 484.249 54.5904 483.917 54.9729 483.502C55.3554 483.086 55.6482 482.596 55.8328 482.063C56.0174 481.529 56.09 480.963 56.046 480.4C55.9852 479.62 55.7027 478.873 55.2318 478.248C54.7609 477.623 54.1212 477.145 53.388 476.871L28.945 468.684C28.4715 468.527 27.9697 468.475 27.474 468.53C26.9783 468.585 26.5004 468.747 26.073 469.004C22.7126 471.335 18.693 472.527 14.605 472.404C11.421 472.178 8.36472 471.061 5.78502 469.181C5.55822 468.995 5.28321 468.877 4.99205 468.842C4.7009 468.806 4.40562 468.854 4.14063 468.98C3.87564 469.105 3.65187 469.304 3.49543 469.552C3.33898 469.8 3.2563 470.088 3.25702 470.381V482.333C3.25702 482.686 3.32665 483.035 3.46192 483.36C3.59719 483.686 3.79544 483.982 4.04528 484.231C4.29512 484.479 4.59164 484.676 4.91782 484.81C5.244 484.944 5.59341 485.012 5.94602 485.011L51.97 484.827Z" fill="#C1D8ED"/>
<path d="M135.7 484.827C136.265 484.824 136.823 484.705 137.34 484.477C137.856 484.249 138.32 483.917 138.703 483.502C139.085 483.086 139.378 482.596 139.563 482.063C139.747 481.529 139.82 480.963 139.776 480.4C139.715 479.62 139.433 478.873 138.962 478.247C138.49 477.622 137.851 477.145 137.117 476.871L112.675 468.684C112.202 468.527 111.7 468.475 111.204 468.53C110.708 468.585 110.23 468.747 109.803 469.004C106.443 471.335 102.423 472.527 98.3351 472.404C95.1507 472.178 92.0941 471.061 89.5141 469.181C89.2872 468.995 89.0123 468.878 88.7213 468.842C88.4304 468.807 88.1353 468.855 87.8705 468.981C87.6057 469.106 87.382 469.305 87.2256 469.553C87.0692 469.801 86.9865 470.088 86.9871 470.381V482.333C86.9871 482.686 87.0567 483.035 87.192 483.36C87.3272 483.686 87.5255 483.982 87.7753 484.231C88.0251 484.479 88.3217 484.676 88.6479 484.81C88.974 484.944 89.3235 485.012 89.6761 485.011L135.7 484.827Z" fill="#C1D8ED"/>
<path d="M44.368 31.993C44.368 31.993 43.111 19.83 32.422 19.83C19.729 19.83 28.397 54.707 33.95 76.035C34.5423 78.3157 34.6468 80.6956 34.2567 83.0193C33.8667 85.3431 32.9908 87.5585 31.6864 89.5208C30.382 91.4831 28.6783 93.1482 26.6867 94.4073C24.695 95.6664 22.4602 96.4913 20.1281 96.828C17.8803 97.155 15.5895 97.0216 13.3948 96.4358C11.2002 95.85 9.14762 94.8242 7.36174 93.4206C5.57587 92.017 4.09402 90.2649 3.00624 88.2708C1.91847 86.2768 1.24748 84.0824 1.03405 81.821C-1.53495 54.473 -0.936951 4.013 27.834 4.984C46.5271 5.616 46.527 24.249 46.527 24.249L44.368 31.993Z" fill="#262626"/>
<path d="M44.368 73.806C44.368 73.806 52.1 69.706 50.374 48.65L66.3501 45.688C66.3501 45.688 64.555 64.566 72.638 70.56L44.368 73.806Z" fill="#E98862"/>
<g opacity="0.15">
<path d="M69.364 66.613L56.092 56.459L66.5161 56.351C66.8177 59.9192 67.7836 63.3997 69.364 66.613Z" fill="black"/>
</g>
<path d="M41.309 40.485C42.415 46.874 45.901 52.923 51.536 54.985C57.6788 57.4224 64.3247 58.3202 70.894 57.6C88.384 56.166 84.924 16.4 76.621 8.67399C68.318 0.94799 43.947 5.841 40.983 18.761C39.45 25.445 40.256 34.4 41.309 40.485Z" fill="#E98862"/>
<path d="M66.328 35.564C67.1283 35.564 67.777 34.9153 67.777 34.115C67.777 33.3147 67.1283 32.666 66.328 32.666C65.5278 32.666 64.879 33.3147 64.879 34.115C64.879 34.9153 65.5278 35.564 66.328 35.564Z" fill="#0F1011"/>
<path d="M77.7591 34.627C78.5593 34.627 79.2081 33.9783 79.2081 33.178C79.2081 32.3777 78.5593 31.729 77.7591 31.729C76.9588 31.729 76.3101 32.3777 76.3101 33.178C76.3101 33.9783 76.9588 34.627 77.7591 34.627Z" fill="#0F1011"/>
<path d="M80.2701 30.09H80.261L76.422 30.042C76.2416 30.0396 76.0695 29.9657 75.9435 29.8365C75.8175 29.7074 75.7479 29.5334 75.75 29.353C75.7552 29.1733 75.8302 29.0027 75.959 28.8773C76.0877 28.7518 76.2603 28.6814 76.4401 28.681L80.2791 28.728C80.4597 28.7292 80.6324 28.8021 80.7593 28.9306C80.8861 29.0592 80.9567 29.2329 80.9556 29.4135C80.9544 29.5941 80.8815 29.7669 80.7529 29.8937C80.6243 30.0206 80.4507 30.0912 80.2701 30.09Z" fill="#0F1011"/>
<path d="M63.2 31.489C63.0335 31.4886 62.8729 31.4271 62.7486 31.3163C62.6243 31.2055 62.5449 31.053 62.5254 30.8876C62.506 30.7222 62.5478 30.5554 62.643 30.4187C62.7382 30.2821 62.8801 30.1851 63.042 30.146L66.826 29.236C66.913 29.2151 67.0033 29.2115 67.0917 29.2254C67.1801 29.2393 67.2649 29.2706 67.3412 29.3173C67.4175 29.364 67.4839 29.4253 67.5366 29.4976C67.5892 29.57 67.6271 29.652 67.648 29.739C67.669 29.826 67.6726 29.9163 67.6586 30.0047C67.6447 30.0931 67.6135 30.1779 67.5668 30.2542C67.5201 30.3305 67.4588 30.3969 67.3864 30.4495C67.314 30.5022 67.232 30.5401 67.145 30.561L63.361 31.471C63.3082 31.4828 63.2542 31.4889 63.2 31.489Z" fill="#0F1011"/>
<path d="M67 45.527C67 45.527 72.349 46.091 76.1 44.781C76.1 44.781 76.07 48.304 71.837 48.651C67.604 48.998 67 45.527 67 45.527Z" fill="white"/>
<path d="M53.077 23.933C54.602 53.08 50.601 56.089 50.601 56.089C50.601 56.089 36.039 47.33 34.137 29.826C32.355 13.418 44.446 3.726 52.616 1.903C83.661 -5.039 87.0881 23.225 87.0881 23.225C71.5491 27.219 49.716 24.516 49.716 24.516" fill="#262626"/>
<path d="M58.79 37.661C58.8678 38.4713 58.7837 39.289 58.5427 40.0665C58.3016 40.844 57.9085 41.5659 57.386 42.1902C56.8636 42.8144 56.2223 43.3287 55.4994 43.7029C54.7765 44.0772 53.9865 44.304 53.1751 44.3703C52.3638 44.4366 51.5474 44.3409 50.7734 44.0889C49.9993 43.8369 49.2831 43.4336 48.6663 42.9024C48.0495 42.3711 47.5444 41.7226 47.1804 40.9945C46.8164 40.2664 46.6008 39.4732 46.546 38.661C46.4659 37.8544 46.5491 37.0399 46.7904 36.266C47.0317 35.4922 47.4264 34.7749 47.9508 34.1568C48.4752 33.5387 49.1187 33.0324 49.8429 32.6683C50.567 32.3041 51.3571 32.0894 52.166 32.037C56.544 31.9 58.513 34.28 58.79 37.661Z" fill="#E98862"/>
<g opacity="0.15">
<path d="M72.7601 42.152C72.6409 42.1511 72.526 42.1077 72.4361 42.0295C72.3461 41.9514 72.287 41.8437 72.2694 41.7259C72.2518 41.6081 72.2768 41.4878 72.34 41.3868C72.4032 41.2858 72.5004 41.2107 72.6141 41.175L75.5601 40.269L73.4981 35.679C73.4456 35.5584 73.4429 35.422 73.4903 35.2993C73.5378 35.1766 73.6316 35.0776 73.7516 35.0237C73.8716 34.9697 74.0079 34.9653 74.1312 35.0112C74.2544 35.0571 74.3546 35.1497 74.4101 35.269L76.7041 40.376C76.7331 40.4407 76.7481 40.5108 76.7481 40.5817C76.748 40.6525 76.7328 40.7226 76.7036 40.7872C76.6744 40.8518 76.6318 40.9094 76.5786 40.9563C76.5254 41.0031 76.4628 41.0382 76.3951 41.059L72.9061 42.13C72.8588 42.1447 72.8096 42.1521 72.7601 42.152Z" fill="black"/>
</g>
<path d="M34.772 22.551C34.417 22.5505 34.0661 22.4745 33.7426 22.3282C33.4192 22.1818 33.1305 21.9684 32.8957 21.7021C32.6609 21.4357 32.4854 21.1225 32.3809 20.7832C32.2763 20.444 32.245 20.0863 32.289 19.734C33.0082 15.1271 35.2565 10.8961 38.672 7.72201C39.1738 7.30322 39.8197 7.09759 40.4712 7.14918C41.1228 7.20076 41.7282 7.50546 42.1578 7.99799C42.5875 8.49052 42.8072 9.13173 42.7698 9.78425C42.7325 10.4368 42.4411 11.0487 41.958 11.489C39.4694 13.8613 37.8169 16.9763 37.248 20.367C37.1712 20.9698 36.8775 21.5239 36.4218 21.9259C35.9661 22.3278 35.3797 22.55 34.772 22.551Z" fill="#262626"/>
<path d="M150.655 73.148C150.655 73.148 150.805 61.138 159.39 61.763C164.806 62.157 190.541 60.963 190.924 63.306C191.872 69.106 168.332 70.524 166.196 75.929L150.655 73.148Z" fill="#E98862"/>
<path d="M156.35 62.148C156.35 62.148 168.299 58.248 171.236 58.948C173.836 59.565 168.416 63.798 168.416 63.798L156.35 62.148Z" fill="#E98862"/>
<path d="M100.361 183.151C96.1721 192.781 19.0341 196.781 17.9341 179.841C17.2341 169.061 26.6551 159.651 26.6551 138.641C26.6551 117.631 7.28206 95.871 23.0321 80.121C27.6021 75.551 30.4221 67.531 40.0421 67.521C40.7621 73.131 74.8221 73.151 75.0821 67.651C76.3821 67.671 77.3921 67.691 78.0221 67.721C111.202 69.151 93.4961 106.911 93.1761 134.651C92.7861 167.111 104.682 173.231 100.361 183.151Z" fill="white"/>
<path d="M75.082 67.651C74.822 73.151 71.8321 81.241 62.6021 81.851C50.3021 82.661 40.7621 73.131 40.0421 67.521H40.0721C52.1821 67.521 68.022 67.541 75.082 67.651Z" fill="#E98862"/>
<path d="M149.646 66.132L128.239 106.1L95.278 73.945C92.303 70.169 87.615 67.814 80.447 67.5C79.902 67.477 74.279 67.3 73.947 67.634C71.937 69.644 70.828 105.057 71.828 124.734C72.921 146.034 71.797 172.634 72.813 187.927C72.8788 188.931 73.1521 189.91 73.6157 190.802C74.0793 191.695 74.7231 192.481 75.5063 193.112C76.2896 193.743 77.1952 194.204 78.166 194.467C79.1367 194.73 80.1515 194.789 81.146 194.639C91.928 192.991 100.336 190.183 101.562 187.366C105.881 177.446 95.912 167.104 96.302 134.644C96.402 125.908 97.885 116.144 98.92 106.831L123.571 130.88C124.736 132.017 126.15 132.867 127.7 133.363C129.25 133.86 130.895 133.989 132.504 133.741C134.113 133.493 135.642 132.874 136.97 131.933C138.299 130.993 139.39 129.756 140.159 128.321L168.159 76.042L149.646 66.132Z" fill="#367CFF"/>
<path d="M118.006 142.021L62.273 143.721L50.331 118.732C48.404 99.586 45.852 83.27 44.681 74.711C43.181 66.784 43.981 67.346 40.219 67.343C30.599 67.353 22.532 70.479 17.962 75.049C2.21204 90.799 21.542 117.639 21.542 138.639C21.542 159.639 12.042 169.059 12.742 179.839C13.173 186.572 16.615 195.09 42.566 196.915C44.6673 197.063 46.745 196.398 48.3704 195.058C49.9958 193.718 51.0448 191.806 51.301 189.715C52.2273 181.631 52.7127 173.502 52.755 165.365C53.6499 165.605 54.5717 165.729 55.498 165.734C55.609 165.734 55.721 165.734 55.832 165.728L118.67 163.812L118.006 142.021Z" fill="#367CFF"/>
<path d="M37.56 91.258L40.04 83.128L35.26 80L39.19 67.37C41.5941 67.271 44.0021 67.3211 46.4 67.52C48.76 75.41 51.3 109.29 52.22 122.52L37.56 91.258Z" fill="#367CFF"/>
<path d="M78.96 83.128L82.66 95.258L71.97 127.838C71.97 127.838 69.84 78.618 72.67 67.588C73.6674 67.4538 74.6718 67.3786 75.678 67.363C77.732 67.334 79.843 67.473 79.843 67.473L83.74 80L78.96 83.128Z" fill="#367CFF"/>
<g opacity="0.24">
<path d="M37.56 91.258L40.04 83.128L35.26 80L39.19 67.37C41.5941 67.271 44.0021 67.3211 46.4 67.52C48.76 75.41 51.3 109.29 52.22 122.52L37.56 91.258Z" fill="white"/>
</g>
<g opacity="0.24">
<path d="M78.96 83.128L82.66 95.258L71.97 127.838C71.97 127.838 69.84 78.618 72.67 67.588C73.6674 67.4538 74.6718 67.3786 75.678 67.363C77.732 67.334 79.843 67.473 79.843 67.473L83.74 80L78.96 83.128Z" fill="white"/>
</g>
<path d="M113.523 90.036L101.381 141.007C101.192 141.8 101.186 142.626 101.361 143.422C101.537 144.218 101.891 144.964 102.396 145.603C102.902 146.243 103.545 146.76 104.279 147.116C105.012 147.472 105.817 147.657 106.632 147.657H178.216C179.399 147.657 180.549 147.268 181.489 146.551C182.43 145.834 183.109 144.828 183.422 143.687L197.413 92.716C197.633 91.9148 197.664 91.0738 197.506 90.2584C197.347 89.443 197.003 88.6751 196.499 88.0146C195.995 87.354 195.346 86.8186 194.602 86.4499C193.857 86.0813 193.038 85.8893 192.207 85.889H118.775C117.561 85.8891 116.382 86.2985 115.429 87.0509C114.476 87.8033 113.805 88.855 113.523 90.036Z" fill="#9EBCEA"/>
<path d="M162.416 141.313H75.897C74.1452 141.313 72.725 142.733 72.725 144.485C72.725 146.237 74.1452 147.657 75.897 147.657H162.416C164.168 147.657 165.588 146.237 165.588 144.485C165.588 142.733 164.168 141.313 162.416 141.313Z" fill="#9EBCEA"/>
<path d="M152.328 124.735C157.004 124.735 160.794 120.945 160.794 116.269C160.794 111.593 157.004 107.803 152.328 107.803C147.652 107.803 143.862 111.593 143.862 116.269C143.862 120.945 147.652 124.735 152.328 124.735Z" fill="white"/>
<path d="M136.024 154.347C131.534 157.117 124.584 158.427 118.524 158.907L118.183 147.867C121.034 147.787 125.414 147.487 129.704 147.657C131.642 146.076 132.758 145.607 134.748 143.617C136.866 141.499 142.424 140.227 143.474 143.617C144.524 147.007 139.964 151.907 136.024 154.347Z" fill="#E98862"/>
</svg>
