<svg width="402" height="887" viewBox="0 0 402 887" fill="none" xmlns="http://www.w3.org/2000/svg">
<path d="M122.033 808.8C122.033 808.8 103.096 836.671 119.88 856.737C136.664 876.803 117.644 886.955 117.644 886.955L49.1821 814.346L85.4561 780.141L122.033 808.8Z" fill="#367CFF"/>
<path d="M221.414 360.676C221.414 360.676 285.337 580.537 270.271 612.676C255.459 644.276 120.271 828.867 120.271 828.867L71.6543 786.5L191.893 591.506C191.893 591.506 156.3 478.9 137.057 419.845C125.457 384.245 105.939 385.379 104.085 347.983L221.414 360.676Z" fill="#262626"/>
<path d="M150.635 608.526L166.448 590.519L162.332 696.223L144.708 712.974L150.635 608.526Z" fill="#0A0A0A"/>
<path d="M148.016 453.69C148.016 453.69 140.445 408.749 148.542 418.375C174.871 449.675 177.492 545.993 177.492 545.993L148.016 453.69Z" fill="#0A0A0A"/>
<path d="M192.248 833.943C192.248 833.943 197.629 861.834 223.748 863.388C249.867 864.942 244.199 885.746 244.199 885.746H144.4V835.888L192.248 833.943Z" fill="#367CFF"/>
<path d="M43.2492 355.167C43.2492 355.167 42.8072 353.112 42.5492 365.128C42.3642 373.613 38.9182 403.646 50.8322 451.016C73.1502 539.767 140 851.743 140 851.743L205.575 851.192L143.735 352.44L43.2492 355.167Z" fill="#262626"/>
<path d="M42.234 355.527L42.02 355.539C42.02 355.539 42.174 351.408 42.234 355.527Z" fill="#333333"/>
<path d="M401.191 158.936C400.797 158.155 400.169 157.515 399.396 157.105C398.622 156.696 397.74 156.536 396.872 156.649C396.88 156.572 396.863 156.494 396.824 156.427C396.784 156.375 396.731 156.335 396.67 156.31C396.609 156.285 396.542 156.277 396.477 156.286L399.407 154.186C400.283 153.586 400.912 152.689 401.178 151.661C401.445 150.634 401.331 149.544 400.857 148.594C400.358 147.67 399.534 146.965 398.544 146.615C397.554 146.265 396.469 146.295 395.5 146.7C395.507 146.659 395.479 146.619 395.473 146.577L396.673 145.714C397.497 145.145 398.098 144.31 398.376 143.348C398.654 142.387 398.591 141.359 398.198 140.439C397.94 139.867 397.558 139.36 397.08 138.953C396.602 138.547 396.039 138.252 395.433 138.089C394.827 137.927 394.193 137.901 393.575 138.013C392.958 138.125 392.373 138.373 391.863 138.739L389.086 140.73C389.078 140.713 389.086 140.694 389.075 140.679C389.064 140.664 389.034 140.658 389.018 140.641C389.656 139.924 390.031 139.011 390.081 138.052C390.132 137.094 389.856 136.147 389.297 135.366C387.986 133.256 384.959 133.687 383.163 134.974L366.815 146.267L369.737 141.347C370.326 140.4 370.533 139.266 370.317 138.172C370.101 137.079 369.478 136.108 368.574 135.456C368.096 135.136 367.557 134.916 366.991 134.811C366.425 134.706 365.844 134.717 365.282 134.844C364.721 134.971 364.191 135.211 363.726 135.55C363.26 135.888 362.868 136.318 362.574 136.813L346.627 163.67C344.755 166.821 344.186 170.578 345.04 174.142C345.894 177.706 348.104 180.796 351.2 182.757C354.791 185.031 358.98 186.181 363.229 186.059C367.478 185.937 371.593 184.548 375.048 182.072L399.736 164.377C400.556 163.767 401.146 162.897 401.41 161.91C401.674 160.922 401.597 159.874 401.191 158.936Z" fill="#E98862"/>
<g opacity="0.25">
<path d="M372.912 151.886C372.972 151.969 373.062 152.025 373.163 152.042C373.264 152.059 373.367 152.036 373.451 151.978L388.984 141.219C389.026 141.19 389.062 141.152 389.09 141.109C389.118 141.066 389.137 141.018 389.146 140.967C389.155 140.917 389.154 140.865 389.143 140.815C389.133 140.764 389.112 140.717 389.083 140.674C389.053 140.632 389.016 140.596 388.973 140.568C388.93 140.541 388.881 140.522 388.831 140.512C388.78 140.503 388.728 140.504 388.678 140.515C388.628 140.526 388.58 140.547 388.538 140.576L373.005 151.335C372.963 151.364 372.927 151.401 372.899 151.444C372.871 151.488 372.852 151.536 372.842 151.586C372.833 151.637 372.834 151.689 372.845 151.739C372.855 151.789 372.876 151.837 372.905 151.879L372.912 151.886Z" fill="#0C0C0C"/>
</g>
<g opacity="0.25">
<path d="M377.468 158.868C377.528 158.95 377.619 159.006 377.719 159.023C377.82 159.04 377.923 159.017 378.007 158.959L395.342 146.952C395.384 146.923 395.421 146.886 395.449 146.843C395.476 146.799 395.496 146.751 395.505 146.701C395.514 146.65 395.513 146.598 395.503 146.548C395.492 146.498 395.471 146.45 395.442 146.408C395.381 146.326 395.291 146.27 395.19 146.251C395.089 146.232 394.985 146.253 394.898 146.308L377.563 158.315C377.521 158.344 377.485 158.381 377.457 158.424C377.429 158.468 377.41 158.516 377.4 158.566C377.391 158.617 377.392 158.669 377.403 158.719C377.413 158.769 377.434 158.817 377.463 158.859L377.468 158.868Z" fill="#0C0C0C"/>
</g>
<g opacity="0.25">
<path d="M382.359 166.458C382.42 166.54 382.51 166.596 382.61 166.613C382.711 166.63 382.814 166.607 382.898 166.549L396.726 156.972C396.812 156.913 396.87 156.822 396.888 156.72C396.907 156.618 396.884 156.513 396.825 156.427C396.766 156.342 396.675 156.284 396.573 156.265C396.471 156.247 396.366 156.27 396.28 156.329L382.452 165.906C382.41 165.935 382.374 165.972 382.346 166.015C382.318 166.059 382.299 166.107 382.29 166.157C382.28 166.208 382.281 166.26 382.292 166.31C382.303 166.36 382.323 166.408 382.352 166.45L382.359 166.458Z" fill="#0C0C0C"/>
</g>
<path d="M337.212 157.552L290.357 237.352L233.184 162.362L185.7 205.168L266.788 310.18L267.32 310.927C270.566 315.372 274.889 318.918 279.884 321.231C284.879 323.543 290.38 324.545 295.869 324.144C301.359 323.742 306.655 321.949 311.26 318.934C315.865 315.919 319.627 311.782 322.19 306.911L388.819 186.252L337.212 157.552Z" fill="#367CFF"/>
<path d="M285.763 246.948C285.661 246.948 285.561 246.922 285.472 246.872C285.383 246.822 285.309 246.75 285.255 246.664C285.202 246.577 285.172 246.477 285.168 246.376C285.165 246.274 285.187 246.173 285.233 246.082L289.826 237.082C289.909 236.961 290.032 236.875 290.174 236.839C290.315 236.802 290.465 236.819 290.595 236.886C290.725 236.952 290.827 237.064 290.88 237.2C290.934 237.336 290.936 237.487 290.886 237.624L286.293 246.624C286.243 246.721 286.167 246.803 286.073 246.86C285.98 246.917 285.873 246.947 285.763 246.948Z" fill="#0C0C0C"/>
<path d="M229.886 236.897L228.456 262.102L229.644 262.169L231.074 236.965L229.886 236.897Z" fill="#0C0C0C"/>
<path d="M78.908 54.488C78.908 54.488 76.708 82.543 70.278 92.656C51.753 121.771 46.1 154.7 64.114 172.146C82.128 189.592 198.275 191.176 207.533 151.635C215.327 118.346 199.471 114.574 195.921 86.997C194.315 74.519 189.803 48.341 189.803 48.341" fill="#262626"/>
<path d="M177.964 145.315C177.764 145.288 175.538 182.209 132.648 178.99C102.955 176.766 92.367 145.262 91.687 145.262C94.887 144.582 100.279 143.593 101.701 142.834C106.377 140.321 112.162 137.707 113.669 128.627C114.538 123.394 113.064 96.621 113.518 91.327L159.1 101.5C158.463 112.683 154.006 138.608 169.629 143.2C172.224 143.954 175.024 144.652 177.964 145.315Z" fill="#E98862"/>
<path opacity="0.52" d="M159.735 132.6C159.022 130.299 158.562 127.927 158.364 125.526C157.864 120.047 157.964 114.53 158.664 109.073C149.4 107.822 140.673 103.998 133.473 98.036C132.627 101.162 127.973 114.819 129.261 117.79C131.7 123.405 143.142 132.6 159.735 132.6Z" fill="#0C0C0C"/>
<path d="M153.694 120.98C135.706 122.51 112.54 115.054 108.001 91.069L103.901 69.428C99.3622 45.443 108.28 23.616 130.862 19.342C153.445 15.068 174.004 31.317 178.543 55.302L180.356 64.883C182.1 74.086 185.79 118.249 153.694 120.98Z" fill="#E98862"/>
<path d="M173.924 65.928C175.487 65.928 176.755 64.6605 176.755 63.097C176.755 61.5335 175.487 60.266 173.924 60.266C172.36 60.266 171.093 61.5335 171.093 63.097C171.093 64.6605 172.36 65.928 173.924 65.928Z" fill="#0C0C0C"/>
<path d="M144.922 69.801C146.485 69.801 147.753 68.5335 147.753 66.97C147.753 65.4065 146.485 64.139 144.922 64.139C143.358 64.139 142.091 65.4065 142.091 66.97C142.091 68.5335 143.358 69.801 144.922 69.801Z" fill="#0C0C0C"/>
<path d="M160.838 87.724C160.853 87.723 160.868 87.721 160.882 87.718C161.797 87.5379 162.701 87.3075 163.59 87.028C164.918 86.601 166.657 85.894 166.431 84.695C166.173 83.328 159.638 69.295 158.894 67.695C158.862 67.626 158.816 67.564 158.76 67.5126C158.704 67.4612 158.638 67.4213 158.567 67.3953C158.495 67.3693 158.419 67.3577 158.343 67.361C158.267 67.3644 158.192 67.3828 158.123 67.415C158.054 67.4472 157.992 67.4927 157.941 67.5489C157.889 67.6051 157.849 67.6709 157.823 67.7425C157.797 67.8141 157.786 67.8901 157.789 67.9662C157.793 68.0423 157.811 68.117 157.843 68.186C160.63 74.163 165.117 83.991 165.291 84.911C165.141 85.337 162.937 86.148 160.666 86.578C160.52 86.6068 160.39 86.6909 160.304 86.813C160.218 86.935 160.182 87.0855 160.204 87.2332C160.226 87.3809 160.305 87.5143 160.423 87.6057C160.541 87.6972 160.69 87.7395 160.838 87.724Z" fill="#0C0C0C"/>
<path d="M157.494 98.079C161.177 97.6018 164.697 96.2659 167.769 94.179C167.896 94.0944 167.985 93.9629 168.016 93.8132C168.047 93.6635 168.017 93.5077 167.934 93.3796C167.851 93.2515 167.72 93.1615 167.571 93.1292C167.421 93.0969 167.265 93.1249 167.136 93.207C160.488 97.538 153.882 98.239 148.036 95.233C147.918 95.1692 147.796 95.1114 147.672 95.06C147.528 95.0092 147.369 95.0174 147.231 95.083C147.093 95.1486 146.986 95.2661 146.934 95.4101C146.882 95.554 146.889 95.7127 146.953 95.8514C147.018 95.9902 147.135 96.0979 147.278 96.151C147.324 96.17 147.4 96.211 147.506 96.266C150.581 97.8506 154.059 98.4818 157.494 98.079Z" fill="#0C0C0C"/>
<path d="M85.8392 76.97L106.083 73.259C121.414 67.059 126.051 40.514 126.051 40.514C126.051 40.514 144.673 58.664 189.803 48.341C189.803 48.341 180.754 -14.596 114.082 3.704C92.5822 9.604 77.1542 31.269 79.0762 60.223C80.4232 80.514 85.8392 76.97 85.8392 76.97Z" fill="#262626"/>
<path d="M110.786 98.111C103.923 99.411 96.971 93.121 95.672 86.258C94.373 79.395 99.22 74.558 106.083 73.258L110.489 77.187L116.689 96.993L110.786 98.111Z" fill="#E98862"/>
<path d="M163.029 56.225C165.032 54.9321 167.346 54.2019 169.729 54.111C170.901 54.0591 172.074 54.1831 173.21 54.479C174.334 54.7681 175.418 55.1975 176.435 55.757C176.573 55.8303 176.678 55.9545 176.727 56.1035C176.776 56.2525 176.766 56.4147 176.698 56.556C176.629 56.6973 176.509 56.8067 176.362 56.8611C176.215 56.9156 176.052 56.9109 175.909 56.848L175.865 56.828C174.925 56.3663 173.93 56.0242 172.905 55.81C171.891 55.5928 170.851 55.5305 169.819 55.625C167.771 55.7962 165.804 56.5062 164.119 57.683L164.065 57.723C163.869 57.8527 163.63 57.9016 163.399 57.8595C163.168 57.8175 162.962 57.6876 162.825 57.4972C162.687 57.3068 162.629 57.0705 162.661 56.8379C162.694 56.6052 162.815 56.3942 163 56.249L163.029 56.225Z" fill="#0C0C0C"/>
<path d="M144.975 60.476C142.979 59.9871 140.89 60.035 138.919 60.615C137.923 60.9001 136.975 61.334 136.108 61.902C135.229 62.4723 134.425 63.151 133.716 63.922L133.684 63.954C133.573 64.0653 133.423 64.1291 133.266 64.1319C133.109 64.1348 132.957 64.0765 132.842 63.9693C132.727 63.8621 132.658 63.7144 132.65 63.5575C132.642 63.4005 132.695 63.2465 132.798 63.128C133.544 62.2387 134.399 61.4472 135.343 60.772C136.295 60.0861 137.344 59.5468 138.456 59.172C140.71 58.3972 143.13 58.2424 145.464 58.724C145.7 58.7748 145.906 58.9172 146.037 59.1201C146.168 59.3229 146.213 59.5694 146.162 59.8055C146.112 60.0415 145.969 60.2477 145.766 60.3787C145.564 60.5097 145.317 60.5548 145.081 60.504L145.044 60.495L144.975 60.476Z" fill="#0C0C0C"/>
<path d="M158.277 103.525C158.944 103.448 159.604 103.314 160.249 103.125C160.322 103.104 160.39 103.069 160.45 103.021C160.51 102.974 160.559 102.915 160.596 102.848C160.633 102.782 160.656 102.708 160.665 102.633C160.673 102.557 160.667 102.48 160.646 102.407C160.625 102.334 160.59 102.265 160.542 102.206C160.495 102.146 160.436 102.097 160.369 102.06C160.302 102.023 160.229 102 160.153 101.991C160.078 101.982 160.001 101.989 159.928 102.01C156.047 103.127 153.84 101.647 153.747 101.583C153.621 101.495 153.465 101.46 153.313 101.486C153.162 101.513 153.027 101.599 152.938 101.724C152.85 101.85 152.815 102.006 152.842 102.158C152.868 102.31 152.954 102.445 153.08 102.533C154.646 103.454 156.482 103.805 158.277 103.525Z" fill="#0C0C0C"/>
<path d="M106.127 73L105.927 72.44C131.576 63.232 125.304 38.062 125.238 37.809L125.813 37.658C125.88 37.918 132.3 63.608 106.127 73Z" fill="#0C0C0C"/>
<path opacity="0.1" d="M142.637 89.4913C145.599 89.1727 147.81 87.1534 147.576 84.9811C147.342 82.8088 144.752 81.3061 141.791 81.6247C138.829 81.9434 136.618 83.9627 136.852 86.135C137.086 88.3073 139.676 89.81 142.637 89.4913Z" fill="#0C0C0C"/>
<path opacity="0.1" d="M173.982 81.181C174.222 83.35 176.811 84.851 179.772 84.536C180.284 84.4809 180.789 84.3726 181.278 84.213C181.445 81.632 181.478 79.148 181.433 76.847C180.614 76.6328 179.763 76.5731 178.922 76.671C175.96 76.985 173.75 79 173.982 81.181Z" fill="#0C0C0C"/>
<path d="M231.253 226.6C229.902 242.471 223.33 341.491 222.032 361.041H42.605C41.594 343.409 37.466 266.309 33.631 231.829C29.971 198.929 22.789 182.454 28.053 172.729C36.653 156.829 60.162 147.645 76.19 145.475C85.978 144.15 100.699 143.2 100.699 143.2C100.699 143.2 101.946 168.415 131.666 169.818C172.125 171.727 169.423 143.2 169.624 143.2C176.178 143.2 213.624 147.349 222.781 152.779C247.743 167.556 234.121 192.962 231.253 226.6Z" fill="#367CFF"/>
<path d="M342.814 237.684L326.247 318.207C325.911 319.842 325.024 321.312 323.734 322.372C322.445 323.433 320.831 324.019 319.162 324.034L205.084 325.005C203.996 325.014 202.92 324.779 201.934 324.318C200.948 323.858 200.078 323.182 199.387 322.342C198.695 321.501 198.201 320.517 197.939 319.461C197.678 318.404 197.655 317.303 197.874 316.237L214.442 235.714C214.779 234.079 215.666 232.609 216.955 231.549C218.244 230.488 219.858 229.902 221.527 229.887L335.605 228.916C336.693 228.907 337.77 229.142 338.755 229.603C339.741 230.064 340.611 230.739 341.302 231.58C341.993 232.42 342.488 233.404 342.749 234.461C343.011 235.517 343.033 236.618 342.814 237.684Z" fill="#292A2E"/>
<path d="M236.439 294.881C236.5 295.941 236.176 296.988 235.527 297.828C234.877 298.669 233.945 299.245 232.903 299.452L229.392 300.226C229.455 300.247 229.511 300.282 229.557 300.33C229.602 300.378 229.635 300.436 229.653 300.5C229.662 300.575 229.645 300.65 229.606 300.714C230.45 300.951 231.199 301.445 231.75 302.128C232.3 302.811 232.624 303.648 232.677 304.523C232.682 305.543 232.342 306.535 231.714 307.339C231.085 308.143 230.204 308.711 229.213 308.952L199.558 315.535C198.042 315.876 196.493 316.047 194.939 316.047C191.478 316.047 188.069 315.204 185.005 313.593C181.942 311.981 179.317 309.649 177.356 306.797C175.276 303.78 174.456 300.07 175.07 296.457C175.684 292.844 177.683 289.613 180.642 287.452L205.868 269.012C206.423 268.605 207.068 268.34 207.749 268.238L205.427 279.512L206.046 279.369L206.177 279.345L225.523 275.404C227.677 274.928 230.63 275.714 231.011 278.166C231.215 279.105 231.096 280.085 230.672 280.948C230.248 281.81 229.545 282.504 228.677 282.916C228.689 282.928 228.713 282.94 228.713 282.964C228.713 282.988 228.701 283 228.701 283.023L232.046 282.285C232.658 282.149 233.292 282.151 233.904 282.29C234.515 282.43 235.088 282.703 235.581 283.09C236.074 283.477 236.475 283.969 236.755 284.529C237.035 285.09 237.187 285.706 237.201 286.333C237.201 287.334 236.855 288.304 236.221 289.078C235.588 289.853 234.706 290.384 233.725 290.583L232.284 290.904C232.273 290.952 232.284 291.004 232.261 291.035C233.311 291.043 234.32 291.441 235.092 292.152C235.864 292.863 236.344 293.836 236.439 294.881Z" fill="#E98862"/>
<g opacity="0.25">
<path d="M209.443 286.931C209.465 287.031 209.525 287.119 209.611 287.175C209.697 287.231 209.802 287.251 209.903 287.231L228.413 283.431C228.514 283.41 228.603 283.35 228.66 283.263C228.717 283.176 228.738 283.071 228.717 282.969C228.696 282.867 228.635 282.778 228.549 282.721C228.462 282.664 228.356 282.644 228.255 282.665L209.745 286.465C209.644 286.487 209.556 286.547 209.5 286.634C209.443 286.72 209.424 286.825 209.445 286.926L209.443 286.931Z" fill="#0C0C0C"/>
</g>
<g opacity="0.25">
<path d="M210.892 295.141C210.915 295.241 210.976 295.327 211.062 295.382C211.148 295.437 211.252 295.457 211.352 295.436L232.009 291.2C232.11 291.178 232.198 291.117 232.254 291.031C232.31 290.944 232.33 290.839 232.309 290.738C232.285 290.638 232.224 290.552 232.138 290.496C232.052 290.44 231.948 290.419 231.847 290.438L211.19 294.674C211.089 294.696 211.001 294.757 210.945 294.843C210.889 294.93 210.869 295.035 210.89 295.136L210.892 295.141Z" fill="#0C0C0C"/>
</g>
<g opacity="0.25">
<path d="M212.41 304.042C212.432 304.142 212.492 304.23 212.579 304.286C212.665 304.343 212.769 304.363 212.87 304.342L229.347 300.963C229.398 300.953 229.446 300.934 229.49 300.905C229.533 300.876 229.57 300.84 229.599 300.797C229.628 300.754 229.648 300.705 229.658 300.654C229.668 300.603 229.667 300.551 229.657 300.5C229.647 300.45 229.626 300.402 229.597 300.359C229.568 300.316 229.53 300.279 229.487 300.251C229.444 300.223 229.395 300.204 229.344 300.194C229.293 300.185 229.241 300.186 229.19 300.197L212.712 303.576C212.611 303.598 212.523 303.659 212.467 303.745C212.411 303.832 212.391 303.937 212.412 304.038L212.41 304.042Z" fill="#0C0C0C"/>
</g>
<path d="M197.722 327.269L36.8361 356.343C31.8157 356.889 26.737 356.265 21.9985 354.519C17.2599 352.772 12.9905 349.952 9.5251 346.279C6.05972 342.605 3.49266 338.179 2.02534 333.347C0.558021 328.514 0.230359 323.408 1.06806 318.428L23.5921 184.551C25.0307 176.003 29.8062 168.376 36.868 163.349C40.3646 160.86 44.3173 159.084 48.5004 158.122C52.6834 157.16 57.0149 157.032 61.2476 157.744C65.4802 158.457 69.5311 159.996 73.1689 162.274C76.8068 164.552 79.9603 167.524 82.4495 171.02C84.9387 174.517 86.7149 178.47 87.6765 182.653C88.6381 186.836 88.7664 191.167 88.0541 195.4L72.7001 287.556L190.653 272.743L197.722 327.269Z" fill="#367CFF"/>
<path d="M36.8353 356.938C36.6928 356.928 36.5587 356.867 36.4571 356.766C36.3555 356.666 36.293 356.533 36.2809 356.39C36.2689 356.248 36.308 356.106 36.3913 355.99C36.4746 355.874 36.5966 355.791 36.7353 355.757L197.063 326.784L190.139 273.408L72.7703 288.147C72.6788 288.159 72.5859 288.149 72.499 288.118C72.4121 288.087 72.3337 288.036 72.2703 287.969C72.2058 287.902 72.158 287.821 72.1305 287.733C72.1031 287.644 72.0968 287.55 72.1123 287.459L81.8753 228.559C81.8873 228.482 81.9146 228.407 81.9557 228.34C81.9969 228.274 82.0509 228.216 82.1148 228.17C82.1786 228.125 82.2509 228.092 82.3274 228.075C82.4039 228.058 82.4831 228.056 82.5603 228.07C82.6374 228.083 82.7113 228.111 82.7777 228.152C82.844 228.193 82.9016 228.247 82.947 228.311C82.9925 228.375 83.0249 228.447 83.0424 228.523C83.06 228.599 83.0623 228.678 83.0493 228.755L73.4163 286.868L190.577 272.154C190.733 272.136 190.89 272.179 191.015 272.275C191.139 272.371 191.221 272.512 191.242 272.668L198.315 327.194C198.334 327.345 198.294 327.498 198.204 327.621C198.114 327.744 197.981 327.828 197.831 327.856L36.9423 356.929C36.9069 356.935 36.8711 356.938 36.8353 356.938Z" fill="#0C0C0C"/>
<path d="M72.6036 286.971L62.2544 288.627L62.4427 289.803L72.7919 288.147L72.6036 286.971Z" fill="#0C0C0C"/>
</svg>
