<svg width="197" height="251" viewBox="0 0 197 251" fill="none" xmlns="http://www.w3.org/2000/svg">
<path d="M115.283 71.074C115.283 71.074 107.551 66.974 109.277 45.918L93.3 42.956C93.3 42.956 95.095 61.834 87.013 67.828L115.283 71.074Z" fill="#E98862"/>
<g opacity="0.15">
<path d="M90.287 63.881L103.56 53.727L93.135 53.619C92.8334 57.1872 91.8675 60.6677 90.287 63.881Z" fill="black"/>
</g>
<path d="M118.342 37.753C117.236 44.142 113.75 50.191 108.115 52.253C101.425 54.702 96.47 54.868 88.757 54.868C78.232 54.868 78.58 43.892 78.284 32.83C77.984 21.724 78.871 9.81198 83.031 5.94198C91.331 -1.78302 115.704 3.10898 118.668 16.029C120.2 22.713 119.4 31.672 118.342 37.753Z" fill="#E98862"/>
<path d="M108.532 51.649C108.864 52.711 109.096 53.174 110.052 52.606C113.809 50.374 122.262 45.518 125.142 27.323C127.722 11.023 117.666 4.29702 109.642 1.89802C102.729 -0.169976 86.595 -0.594992 79.023 3.96901C72.498 7.90201 79.023 17.05 79.023 17.05C81.906 17.182 82.488 19.661 89.292 19.661C94.551 19.661 97.972 17.311 102.892 17.518C107.4 17.707 108.326 20.455 108.167 22.218C107.205 32.9 107.358 47.893 108.532 51.649Z" fill="#262626"/>
<path d="M93.324 32.832C94.1242 32.832 94.773 32.1833 94.773 31.383C94.773 30.5827 94.1242 29.934 93.324 29.934C92.5237 29.934 91.875 30.5827 91.875 31.383C91.875 32.1833 92.5237 32.832 93.324 32.832Z" fill="#0F1011"/>
<path d="M81.892 31.895C82.6923 31.895 83.341 31.2463 83.341 30.446C83.341 29.6458 82.6923 28.997 81.892 28.997C81.0918 28.997 80.443 29.6458 80.443 30.446C80.443 31.2463 81.0918 31.895 81.892 31.895Z" fill="#0F1011"/>
<path d="M79.381 27.358C79.2004 27.3592 79.0267 27.2886 78.8981 27.1617C78.7696 27.0348 78.6967 26.8621 78.6955 26.6815C78.6943 26.5009 78.7649 26.3272 78.8918 26.1986C79.0187 26.0701 79.1914 25.9972 79.372 25.996L83.211 25.949H83.22C83.3961 25.9545 83.5632 26.028 83.6862 26.1541C83.8093 26.2802 83.8786 26.449 83.8798 26.6252C83.8809 26.8013 83.8138 26.9711 83.6925 27.0988C83.5711 27.2265 83.405 27.3022 83.229 27.31L79.39 27.358H79.381Z" fill="#0F1011"/>
<path d="M96.452 28.758C96.3978 28.758 96.3437 28.7517 96.291 28.739L92.507 27.828C92.4191 27.808 92.336 27.7708 92.2625 27.7184C92.1891 27.666 92.1269 27.5996 92.0793 27.523C92.0318 27.4464 91.9999 27.3611 91.9856 27.2721C91.9712 27.1831 91.9748 27.0921 91.9959 27.0044C92.017 26.9168 92.0553 26.8342 92.1086 26.7614C92.1619 26.6887 92.2291 26.6273 92.3064 26.5807C92.3836 26.5342 92.4692 26.5034 92.5584 26.4903C92.6476 26.4771 92.7386 26.4817 92.826 26.504L96.61 27.415C96.7718 27.4541 96.9138 27.5511 97.009 27.6877C97.1042 27.8244 97.146 27.9912 97.1266 28.1566C97.1071 28.322 97.0277 28.4745 96.9034 28.5853C96.7791 28.6961 96.6185 28.7576 96.452 28.758Z" fill="#0F1011"/>
<path d="M100.861 34.929C100.739 36.547 101.262 38.1477 102.316 39.3814C103.37 40.6151 104.869 41.3817 106.487 41.5138C108.104 41.6459 109.708 41.1327 110.948 40.0863C112.188 39.04 112.964 37.5454 113.106 35.929C113.186 35.1223 113.103 34.3078 112.861 33.534C112.62 32.7601 112.225 32.0428 111.701 31.4247C111.176 30.8066 110.533 30.3004 109.808 29.9363C109.084 29.5721 108.294 29.3574 107.485 29.305C103.107 29.166 101.139 31.548 100.861 34.929Z" fill="#E98862"/>
<g opacity="0.15">
<path d="M86.891 39.42C86.8412 39.4201 86.7916 39.4126 86.744 39.398L83.257 38.327C83.1893 38.3062 83.1267 38.2711 83.0735 38.2243C83.0203 38.1774 82.9776 38.1198 82.9484 38.0552C82.9192 37.9906 82.9041 37.9205 82.904 37.8497C82.9039 37.7788 82.9189 37.7087 82.948 37.644L85.241 32.537C85.2979 32.4202 85.3979 32.3301 85.52 32.2858C85.6421 32.2415 85.7767 32.2464 85.8952 32.2995C86.0137 32.3527 86.1069 32.4499 86.155 32.5706C86.2031 32.6912 86.2024 32.8259 86.153 32.946L84.092 37.537L87.037 38.442C87.1514 38.4771 87.2495 38.5521 87.3133 38.6534C87.3771 38.7547 87.4025 38.8755 87.3848 38.9938C87.3672 39.1122 87.3076 39.2203 87.217 39.2985C87.1264 39.3767 87.0107 39.4199 86.891 39.42Z" fill="black"/>
</g>
<path d="M92.653 42.8C92.653 42.8 87.305 43.364 83.553 42.054C83.553 42.054 83.582 45.577 87.815 45.924C92.048 46.271 92.653 42.8 92.653 42.8Z" fill="white"/>
<path d="M52.4 226.077C50.5 225.759 29.065 222.097 29.065 222.097L32.6 201.397C32.6 201.397 53.977 205.049 55.871 205.366L52.4 226.077Z" fill="#E98862"/>
<path d="M16.832 245.933C16.7412 246.49 16.7665 247.061 16.906 247.608C17.0455 248.155 17.2964 248.668 17.643 249.114C17.9896 249.56 18.4244 249.929 18.9202 250.2C19.4161 250.47 19.9624 250.635 20.525 250.685C21.3048 250.754 22.088 250.598 22.7824 250.237C23.4769 249.876 24.0537 249.324 24.445 248.646L36.557 225.891C36.7898 225.45 36.9245 224.964 36.952 224.466C36.9794 223.968 36.8989 223.47 36.716 223.006C34.9708 219.307 34.459 215.146 35.256 211.134C36.005 208.031 37.6111 205.201 39.891 202.967C40.1122 202.774 40.2739 202.522 40.3572 202.241C40.4406 201.96 40.4421 201.66 40.3617 201.378C40.2813 201.096 40.1222 200.842 39.903 200.647C39.6838 200.452 39.4136 200.323 39.124 200.276L27.336 198.3C26.9882 198.242 26.6323 198.253 26.2888 198.332C25.9452 198.412 25.6208 198.559 25.3341 198.764C25.0474 198.969 24.804 199.229 24.618 199.529C24.4319 199.829 24.3069 200.162 24.25 200.51L16.832 245.933Z" fill="#C1D8ED"/>
<path d="M118.752 170.09C127.652 170.46 136.706 170.72 145.767 170.944L159.382 171.244L172.982 171.488L174.337 171.513C179.953 171.62 185.319 173.852 189.355 177.76C193.39 181.667 195.795 186.958 196.083 192.568C196.372 198.177 194.524 203.688 190.911 207.988C187.298 212.289 182.189 215.061 176.614 215.744L42.214 232.064L36.738 192.344L170.538 171.689L174.17 215.945L160.361 216.837L146.561 217.672C137.346 218.204 128.128 218.703 118.745 219.088L118.752 170.09Z" fill="#262626"/>
<path d="M152.655 217.379C134.1 214.679 132.255 214.179 131.642 214.02L137.099 193.742C137.037 193.725 136.957 193.703 136.861 193.682C138.381 194.014 147.811 195.454 155.676 196.598L152.655 217.379Z" fill="#E98862"/>
<path d="M175.833 235.43C176.028 235.96 176.111 236.525 176.078 237.088C176.045 237.652 175.896 238.203 175.64 238.707C175.385 239.21 175.028 239.655 174.592 240.015C174.157 240.375 173.652 240.64 173.109 240.796C172.356 241.012 171.558 241.008 170.807 240.785C170.057 240.562 169.386 240.13 168.873 239.538L152.662 219.5C152.351 219.111 152.128 218.66 152.007 218.176C151.886 217.693 151.871 217.19 151.962 216.7C152.973 212.737 152.686 208.554 151.142 204.767C149.818 201.863 147.704 199.389 145.042 197.628C144.788 197.48 144.582 197.264 144.447 197.003C144.312 196.743 144.254 196.45 144.279 196.157C144.304 195.865 144.412 195.586 144.59 195.353C144.768 195.12 145.009 194.942 145.284 194.84L156.484 190.664C156.814 190.541 157.166 190.484 157.518 190.497C157.871 190.51 158.217 190.593 158.537 190.74C158.858 190.887 159.146 191.096 159.385 191.355C159.625 191.614 159.811 191.917 159.933 192.248L175.833 235.43Z" fill="#C1D8ED"/>
<path d="M88.909 215.489C83.277 215.01 77.648 214.664 72.019 214.34C66.391 214.04 60.762 213.74 55.136 213.54L46.696 213.214L38.257 212.971C32.631 212.784 27.007 212.706 21.383 212.599L23.332 172.19C33.861 173.663 44.404 175.015 54.944 176.401C65.484 177.787 76.035 179.064 86.585 180.361L102.418 182.228L118.263 184C128.831 185.137 139.4 186.264 149.993 187.194L145.345 227.025C134.823 225.49 124.278 224.154 113.732 222.825L97.904 220.905L82.066 219.076C71.502 217.909 60.939 216.724 50.366 215.643C39.793 214.562 29.219 213.454 18.634 212.463C13.5566 211.987 8.84626 209.612 5.44543 205.812C2.0446 202.012 0.204243 197.068 0.292721 191.969C0.3812 186.87 2.39198 181.993 5.9226 178.313C9.45323 174.634 14.2432 172.423 19.334 172.124L20.587 172.053C26.202 171.724 31.819 171.424 37.433 171.015L45.856 170.438L54.276 169.78C59.89 169.357 65.503 168.832 71.114 168.312C76.726 167.766 82.338 167.197 87.946 166.496L88.909 215.489Z" fill="#262626"/>
<path d="M139.186 163.955L142.146 213.66L56.656 212.656L63.109 168.651L139.186 163.955Z" fill="#262626"/>
<path d="M167.725 152.717L145.068 82.472C144.13 78.8147 142.179 75.4962 139.44 72.898C134.87 68.328 126.98 65.378 117.36 65.368C116.64 70.978 82.58 70.998 82.32 65.498C81.02 65.518 80.01 65.538 79.38 65.568C65.62 66.161 60.08 71.458 58.322 79.43L29.439 149.322C28.733 151.033 28.4919 152.901 28.7402 154.735C28.9885 156.57 29.7174 158.306 30.853 159.768C31.9885 161.23 33.4903 162.365 35.2063 163.06C36.9222 163.754 38.7913 163.983 40.624 163.722L56.404 161.473C55.627 165.404 55.504 168.46 57.041 171.993C61.23 181.623 143.56 185.623 144.66 168.683C144.671 168.517 144.672 168.352 144.678 168.183L158.358 166.91C159.984 166.759 161.556 166.245 162.956 165.405C164.357 164.565 165.551 163.422 166.45 162.059C167.349 160.695 167.931 159.147 168.151 157.529C168.372 155.911 168.226 154.264 167.725 152.71V152.717ZM55.872 140.342L61.093 127.708C61.035 132.227 60.793 136.192 60.446 139.69L55.872 140.342ZM142.799 146.468L138.807 146.839C136.839 140.578 135.845 134.051 135.86 127.488C135.86 126.723 135.893 125.964 135.941 125.208L142.799 146.468Z" fill="#367CFF"/>
<path d="M110.747 98.977L114.28 151.655C114.322 152.276 114.236 152.899 114.027 153.485C113.818 154.072 113.49 154.609 113.065 155.063C112.64 155.518 112.126 155.881 111.555 156.128C110.984 156.376 110.368 156.504 109.746 156.504H36.169C35.0446 156.504 33.9601 156.087 33.1251 155.334C32.29 154.581 31.7638 153.545 31.648 152.427L26.2 99.748C26.1347 99.1152 26.2029 98.4757 26.4002 97.8709C26.5976 97.2662 26.9197 96.7096 27.3458 96.2371C27.7718 95.7647 28.2923 95.387 28.8735 95.1284C29.4548 94.8698 30.0838 94.7361 30.72 94.736H106.208C107.362 94.7349 108.472 95.1725 109.315 95.96C110.158 96.7475 110.67 97.8261 110.747 98.977Z" fill="#9EBCEA"/>
<path d="M42.315 156.504H119.621C121.373 156.504 122.793 155.084 122.793 153.332C122.793 151.58 121.373 150.16 119.621 150.16H42.315C40.5632 150.16 39.1429 151.58 39.1429 153.332C39.1429 155.084 40.5632 156.504 42.315 156.504Z" fill="#9EBCEA"/>
<path d="M68.293 132.62C72.159 132.62 75.293 129.486 75.293 125.62C75.293 121.754 72.159 118.62 68.293 118.62C64.427 118.62 61.293 121.754 61.293 125.62C61.293 129.486 64.427 132.62 68.293 132.62Z" fill="white"/>
<path d="M78.378 163.194C82.868 165.964 89.818 167.275 95.878 167.754L96.219 156.714C93.368 156.634 88.988 156.334 84.699 156.504C82.76 154.924 81.6441 154.454 79.6551 152.464C77.5361 150.346 71.978 149.075 70.929 152.464C69.88 155.853 74.438 160.754 78.378 163.194Z" fill="#E98862"/>
<path d="M82.32 65.5C82.58 71 85.57 79.09 94.8 79.7C107.1 80.51 116.64 70.98 117.36 65.37H117.33C105.22 65.368 89.38 65.388 82.32 65.5Z" fill="#E98862"/>
</svg>
