<svg width="463" height="848" viewBox="0 0 463 848" fill="none" xmlns="http://www.w3.org/2000/svg">
<path d="M295.82 430.307C246.027 430.307 205.663 443.891 205.663 460.648V496.769H385.978V460.648C385.978 443.891 345.613 430.307 295.82 430.307Z" fill="#367CFF"/>
<path opacity="0.49" d="M295.82 430.307C246.027 430.307 205.663 443.891 205.663 460.648V496.769H385.978V460.648C385.978 443.891 345.613 430.307 295.82 430.307Z" fill="white"/>
<path opacity="0.49" d="M361.417 460.652V496.767H205.661V460.652C205.661 445.292 239.561 432.602 283.539 430.596C327.521 432.6 361.417 445.292 361.417 460.652Z" fill="white"/>
<path d="M385.977 847.743L388.977 844.717L385.977 493.565L382.977 496.59L385.117 743.994L278.304 745.809L276.149 496.565L273.149 496.59L275.304 745.86L210.825 746.956L208.661 496.565L205.661 493.59L208.661 844.743L211.661 847.717L210.851 749.957L275.33 748.861L276.149 847.743L279.149 847.717L278.33 748.81L385.143 746.994L385.977 847.743Z" fill="#292A2E"/>
<path d="M110.531 794.705C110.531 794.705 105.17 822.499 79.1468 824.048C53.1238 825.597 58.7669 846.328 58.7669 846.328H158.212V796.644L110.531 794.705Z" fill="#367CFF"/>
<path d="M167.269 711.11C167.269 711.11 174.726 738.416 152.059 751.293C129.392 764.17 143.607 780.28 143.607 780.28L232.839 736.38L210.908 691.8L167.269 711.11Z" fill="#367CFF"/>
<path d="M157.828 729.157L90.5899 475.468C85.4899 447.442 93.1689 435.294 105 423.493C125.786 402.76 211.917 358.631 211.917 358.631L315.246 358.35C342.646 358.35 369.58 385.367 369.58 412.765C369.58 440.163 341.726 463.4 314.328 463.4L187.086 476.1L221.577 708.387L157.828 729.157Z" fill="#262626"/>
<path d="M221.577 708.383L207.999 616.935L139.207 658.899L157.828 729.157L221.577 708.383Z" fill="#0C0C0C"/>
<path d="M237.171 409.968C237.171 409.968 193.734 419.649 150.714 462.668C124.631 488.751 126.769 535.952 130.682 626.735L173.409 563.625L220.273 479.1L237.171 409.968Z" fill="#0C0C0C"/>
<path d="M387.568 358.319L317.395 357.988L317.368 358.912H296.12C296.12 358.912 242.896 407.891 200.042 438.754C168.872 461.202 149.857 482.604 148.211 505.93C144.2 562.791 98.9629 805.3 98.9629 805.3L167.044 815.61L226.787 525.798C226.787 525.798 320.212 482.731 341.821 467.742C362.169 453.628 376.542 448.173 383.275 432.771C394.905 406.165 387.568 358.319 387.568 358.319Z" fill="#262626"/>
<path d="M255.005 51.171C255.005 51.171 243.982 39.224 244.834 16.471C245.493 -1.146 259.322 12.848 259.322 12.848C259.322 12.848 259.922 0.167001 268.716 3.028C277.51 5.889 280.216 19.813 280.216 19.813" fill="#262626"/>
<path d="M315.09 12.916C315.09 12.916 358.99 25.816 331.825 83.552L327.816 83.1L319.678 82.184" fill="#262626"/>
<path d="M252.877 143.437C253.077 143.411 255.296 180.237 298.082 177.03C327.702 174.811 338.263 143.385 338.942 143.385C335.749 142.706 331.802 141.676 330.233 141.323C326.815 140.529 323.719 138.714 321.358 136.118C318.997 133.522 317.481 130.269 317.014 126.791C316.147 121.57 317.614 94.8631 317.165 89.5811L271.7 99.7291C272.335 110.884 276.782 136.746 261.2 141.323C258.6 142.08 255.809 142.776 252.877 143.437Z" fill="#E98862"/>
<path opacity="0.52" d="M271.061 130.754C271.773 128.459 272.231 126.092 272.428 123.697C272.927 118.231 272.826 112.728 272.128 107.284C281.369 106.037 290.075 102.222 297.257 96.275C298.101 99.393 302.744 113.016 301.457 115.975C299.032 121.581 287.613 130.754 271.061 130.754Z" fill="#262626"/>
<path d="M278.483 119.028C296.42 120.64 319.564 113.311 324.205 89.4071L328.393 67.8381C333.035 43.9381 324.242 22.1191 301.735 17.7491C279.228 13.3791 258.643 29.4901 254.002 53.3941L252.148 62.9431C251.568 66.2328 251.213 69.5582 251.086 72.8961C250.686 81.7151 250.109 95.1301 254.351 105.044C258.355 114.4 267.023 118 278.483 119.028Z" fill="#E98862"/>
<path d="M265.148 93.34C271.826 94.1112 278.57 92.6351 284.316 89.145C284.515 89.0249 284.744 88.9641 284.977 88.9696C285.209 88.9751 285.435 89.0467 285.629 89.1761C285.822 89.3055 285.974 89.4872 286.068 89.7001C286.162 89.913 286.193 90.1481 286.158 90.378C285.518 94.314 283.207 101.496 274.858 102.018C269.469 102.355 265.785 98.049 263.958 95.218C263.831 95.0216 263.763 94.7929 263.761 94.559C263.76 94.325 263.826 94.0957 263.952 93.8981C264.077 93.7005 264.256 93.5429 264.468 93.444C264.68 93.3451 264.916 93.309 265.148 93.34Z" fill="white"/>
<path d="M259.388 68.966C260.948 68.966 262.212 67.7017 262.212 66.142C262.212 64.5823 260.948 63.318 259.388 63.318C257.828 63.318 256.564 64.5823 256.564 66.142C256.564 67.7017 257.828 68.966 259.388 68.966Z" fill="#262626"/>
<path d="M286.844 72.1761C288.403 72.1761 289.668 70.9117 289.668 69.3521C289.668 67.7924 288.403 66.5281 286.844 66.5281C285.284 66.5281 284.02 67.7924 284.02 69.3521C284.02 70.9117 285.284 72.1761 286.844 72.1761Z" fill="#262626"/>
<path d="M321.393 96.418C328.233 97.746 335.199 91.506 336.527 84.666C337.855 77.826 333.042 72.978 326.203 71.649L321.788 75.549L315.513 95.278L321.393 96.418Z" fill="#E98862"/>
<path d="M316.567 84.168C316.567 84.168 320.388 49.846 310.487 45.892C303.893 43.259 285.532 49.965 270.687 44.249C264.187 41.749 257.503 42.257 256.278 45.317C255.793 46.529 254.878 27.688 267.894 15.871C278.261 6.46304 306.271 8.34604 318.111 14.19C350.897 30.37 327.349 73.399 327.349 73.399L323.691 84.808L316.567 84.168Z" fill="#262626"/>
<g opacity="0.52">
<path d="M271.562 86.9L271.517 86.893C269.317 86.471 265.66 85.517 265.974 83.867C266.237 82.5 272.803 68.461 273.552 66.867C273.582 66.7967 273.627 66.7331 273.682 66.6801C273.737 66.6272 273.803 66.5859 273.875 66.5587C273.946 66.5316 274.023 66.5191 274.099 66.522C274.176 66.525 274.251 66.5433 274.32 66.5758C274.39 66.6084 274.452 66.6546 274.503 66.7117C274.554 66.7687 274.593 66.8355 274.618 66.908C274.643 66.9805 274.653 67.0572 274.648 67.1337C274.643 67.2101 274.622 67.2847 274.587 67.353C271.674 73.569 267.276 83.153 267.098 84.084C267.24 84.515 269.449 85.334 271.732 85.772C271.876 85.8008 272.004 85.8839 272.088 86.0042C272.173 86.1245 272.208 86.2727 272.186 86.4181C272.164 86.5635 272.087 86.6948 271.971 86.785C271.855 86.8751 271.708 86.917 271.562 86.902V86.9Z" fill="#262626"/>
</g>
<path d="M270 52.5C267.793 51.4425 265.342 51 262.905 51.219C261.709 51.3197 260.535 51.5992 259.422 52.0481C258.323 52.4864 257.283 53.062 256.328 53.761C256.142 53.8804 256.012 54.0686 255.965 54.2843C255.918 54.4999 255.959 54.7254 256.078 54.911C256.197 55.0967 256.385 55.2273 256.601 55.2742C256.817 55.3211 257.042 55.2804 257.228 55.161L257.286 55.1261C258.152 54.5734 259.085 54.1316 260.061 53.8111C261.021 53.4904 262.025 53.3171 263.037 53.297C265.032 53.2424 267.007 53.715 268.761 54.6671L268.835 54.709C268.978 54.7905 269.135 54.8431 269.298 54.8638C269.461 54.8845 269.626 54.8728 269.785 54.8296C269.943 54.7863 270.092 54.7122 270.222 54.6116C270.352 54.511 270.46 54.3857 270.542 54.243C270.623 54.1004 270.676 53.943 270.697 53.78C270.717 53.617 270.706 53.4515 270.662 53.293C270.619 53.1345 270.545 52.9861 270.445 52.8562C270.344 52.7263 270.219 52.6175 270.076 52.536C270.051 52.527 270.025 52.513 270 52.5Z" fill="#262626"/>
<path d="M286.191 56.8721C288.113 56.3337 290.143 56.3123 292.076 56.8101C293.058 57.0548 293.998 57.447 294.863 57.9731C295.744 58.5027 296.554 59.141 297.276 59.8731L297.323 59.9171C297.478 60.0718 297.688 60.1592 297.907 60.1601C298.126 60.1611 298.337 60.0756 298.493 59.9221C298.65 59.7687 298.739 59.5598 298.742 59.3408C298.746 59.1217 298.663 58.9102 298.511 58.7521C297.735 57.8584 296.85 57.0659 295.876 56.3931C294.89 55.7081 293.808 55.1746 292.664 54.8101C290.337 54.0547 287.85 53.9403 285.464 54.4791C285.141 54.5547 284.861 54.7555 284.686 55.0375C284.511 55.3195 284.455 55.6594 284.53 55.9826C284.606 56.3057 284.807 56.5856 285.089 56.7607C285.371 56.9358 285.711 56.9917 286.034 56.9161C286.059 56.9101 286.084 56.9041 286.109 56.8961L286.191 56.8721Z" fill="#262626"/>
<path d="M291.646 20.3321C294.559 13.1457 292.961 5.71597 288.079 3.73725C283.196 1.75853 276.877 5.98014 273.965 13.1665C271.053 20.3529 272.65 27.7827 277.532 29.7614C282.415 31.7401 288.734 27.5184 291.646 20.3321Z" fill="#262626"/>
<path d="M199.718 224.52C201.066 240.352 210.618 339.13 211.918 358.631H387.492C388.5 341.042 393.03 264.131 396.856 229.736C400.507 196.915 405.626 181.979 401.42 171.779C394 153.79 370.39 145.757 354.4 143.592C344.636 142.27 329.951 141.323 329.951 141.323C329.951 141.323 328.708 166.476 299.06 167.875C258.7 169.775 261.395 141.323 261.195 141.323C254.657 141.323 219.067 146.077 210.168 151.878C197.599 160.07 193.884 171.235 193.737 181.492C193.569 193.3 198.187 206.563 199.718 224.52Z" fill="#367CFF"/>
<path d="M45.0709 139.836C44.7824 139.269 44.3814 138.766 43.8923 138.359C43.4032 137.952 42.8363 137.648 42.2261 137.467C41.6159 137.286 40.9753 137.231 40.3433 137.306C39.7112 137.381 39.101 137.584 38.5499 137.902C37.505 138.556 36.7471 139.582 36.4294 140.773C36.1116 141.964 36.2576 143.231 36.8379 144.318L39.7049 149.958L22.4878 136.312C20.5998 134.762 17.2879 134.067 15.6879 136.299C15.0168 137.118 14.6432 138.14 14.628 139.198C14.6127 140.256 14.9567 141.289 15.6039 142.126C15.5831 142.141 15.5643 142.158 15.5478 142.177C15.5381 142.193 15.5298 142.209 15.5229 142.226L12.6109 139.835C12.0745 139.395 11.4471 139.079 10.774 138.911C10.1008 138.743 9.3987 138.726 8.71825 138.862C8.0378 138.997 7.396 139.283 6.8391 139.696C6.2822 140.11 5.8241 140.643 5.49785 141.255C4.99778 142.242 4.85404 143.371 5.09093 144.452C5.32782 145.533 5.93079 146.499 6.79784 147.186L8.03686 148.204C8.02342 148.255 8.01939 148.308 8.02489 148.36C7.03868 147.871 5.91148 147.744 4.84142 148.004C3.77136 148.263 2.82688 148.891 2.17388 149.777C1.4789 150.795 1.19631 152.039 1.38323 153.258C1.57015 154.476 2.21268 155.578 3.1809 156.341L6.22588 158.841C6.15731 158.836 6.08847 158.847 6.02514 158.874C5.9618 158.901 5.9058 158.942 5.86187 158.995C5.81217 159.06 5.78296 159.139 5.77788 159.221C4.7954 159.033 3.77857 159.165 2.87633 159.597C1.9741 160.029 1.23381 160.738 0.763845 161.621C0.26377 162.608 0.120032 163.737 0.356924 164.818C0.593815 165.899 1.19684 166.865 2.06389 167.552L28.0259 188.874C31.6581 191.856 36.0981 193.686 40.777 194.129C45.4558 194.573 50.1604 193.609 54.2879 191.361L67.5769 184.122L45.0709 139.836Z" fill="#E98862"/>
<g opacity="0.2">
<path d="M32.5788 155.721C32.5065 155.807 32.4034 155.862 32.2914 155.874C32.1794 155.885 32.0673 155.853 31.9789 155.783L15.6219 142.783C15.5774 142.748 15.5404 142.704 15.5128 142.654C15.4853 142.605 15.4677 142.55 15.4613 142.494C15.4548 142.437 15.4596 142.38 15.4752 142.326C15.4908 142.271 15.517 142.22 15.5524 142.176C15.5877 142.131 15.6314 142.094 15.6811 142.067C15.7307 142.039 15.7853 142.021 15.8417 142.015C15.8981 142.009 15.9553 142.013 16.0099 142.029C16.0645 142.045 16.1154 142.071 16.1598 142.106L32.5169 155.106C32.5614 155.141 32.5984 155.185 32.626 155.235C32.6535 155.284 32.6711 155.339 32.6776 155.395C32.6841 155.451 32.6794 155.509 32.6639 155.563C32.6483 155.618 32.6221 155.669 32.5868 155.713L32.5788 155.721Z" fill="#0C0C0C"/>
</g>
<g opacity="0.2">
<path d="M27.0458 163.093C26.9735 163.179 26.8703 163.234 26.7583 163.246C26.6463 163.257 26.5342 163.225 26.4458 163.155L8.18977 148.649C8.14528 148.614 8.1082 148.57 8.08064 148.521C8.05308 148.471 8.03554 148.416 8.02913 148.36C8.02271 148.304 8.0275 148.246 8.04323 148.192C8.05895 148.137 8.08529 148.086 8.12074 148.042C8.19414 147.956 8.29769 147.9 8.41041 147.887C8.52313 147.874 8.63663 147.905 8.7278 147.972L26.9827 162.478C27.0272 162.513 27.0644 162.557 27.0919 162.607C27.1195 162.656 27.137 162.711 27.1434 162.767C27.1498 162.824 27.145 162.881 27.1293 162.935C27.1136 162.99 27.0872 163.041 27.0518 163.085L27.0458 163.093Z" fill="#0C0C0C"/>
</g>
<g opacity="0.2">
<path d="M21.0998 171.113C21.0273 171.199 20.9242 171.254 20.8122 171.265C20.7002 171.277 20.5881 171.244 20.4998 171.174L5.93579 159.6C5.84601 159.529 5.7883 159.425 5.77526 159.311C5.76223 159.197 5.79499 159.082 5.86633 158.993C5.93767 158.903 6.04177 158.845 6.1557 158.832C6.26963 158.819 6.38404 158.852 6.47381 158.923L21.0358 170.493C21.1255 170.565 21.1832 170.669 21.1961 170.783C21.209 170.897 21.1762 171.011 21.1048 171.101L21.0998 171.113Z" fill="#0C0C0C"/>
</g>
<path d="M293.726 395.377C293.106 395.523 292.523 395.793 292.011 396.172C291.5 396.55 291.07 397.029 290.75 397.579C290.429 398.129 290.224 398.738 290.147 399.37C290.07 400.001 290.122 400.642 290.301 401.253C290.687 402.424 291.504 403.404 292.586 403.995C293.667 404.586 294.933 404.745 296.127 404.438L302.286 402.991L284.945 416.48C282.991 417.946 281.531 420.995 283.32 423.08C283.956 423.926 284.86 424.532 285.885 424.798C286.909 425.064 287.994 424.974 288.961 424.544C288.97 424.568 288.982 424.59 288.997 424.611C289.01 424.624 289.024 424.636 289.038 424.647L286.025 426.908C285.47 427.325 285.015 427.859 284.691 428.473C284.368 429.087 284.185 429.765 284.156 430.459C284.126 431.152 284.251 431.843 284.521 432.482C284.791 433.122 285.199 433.693 285.717 434.155C286.557 434.875 287.62 435.283 288.726 435.309C289.832 435.335 290.914 434.978 291.787 434.299L293.07 433.337C293.116 433.362 293.166 433.378 293.218 433.385C292.509 434.227 292.119 435.292 292.117 436.393C292.115 437.494 292.501 438.561 293.208 439.405C294.032 440.322 295.173 440.892 296.401 440.999C297.629 441.107 298.852 440.744 299.823 439.984L302.975 437.619C302.953 437.685 302.948 437.754 302.959 437.822C302.97 437.89 302.997 437.955 303.038 438.01C303.09 438.074 303.16 438.12 303.238 438.145C302.823 439.055 302.709 440.073 302.914 441.052C303.119 442.031 303.632 442.918 304.377 443.585C305.217 444.305 306.28 444.712 307.386 444.738C308.493 444.764 309.574 444.408 310.447 443.728L337.32 423.565C341.079 420.745 343.911 416.866 345.451 412.425C346.992 407.985 347.171 403.186 345.966 398.643L342.087 384.016L293.726 395.377Z" fill="#E98862"/>
<g opacity="0.2">
<path d="M306.194 411.281C306.261 411.372 306.29 411.486 306.275 411.598C306.259 411.71 306.2 411.812 306.111 411.881L289.6 424.686C289.555 424.721 289.504 424.747 289.449 424.762C289.394 424.777 289.337 424.781 289.281 424.774C289.224 424.766 289.17 424.748 289.121 424.72C289.071 424.692 289.028 424.654 288.993 424.61C288.959 424.565 288.933 424.514 288.918 424.459C288.903 424.404 288.899 424.347 288.906 424.291C288.913 424.234 288.931 424.18 288.959 424.131C288.987 424.081 289.025 424.038 289.07 424.003L305.581 411.2C305.672 411.13 305.786 411.099 305.9 411.113C306.014 411.127 306.118 411.187 306.188 411.277L306.194 411.281Z" fill="#0C0C0C"/>
</g>
<g opacity="0.2">
<path d="M312.043 418.406C312.111 418.497 312.14 418.611 312.124 418.723C312.109 418.835 312.05 418.937 311.96 419.006L293.538 433.3C293.447 433.37 293.332 433.401 293.219 433.387C293.105 433.373 293.002 433.314 292.931 433.224C292.865 433.132 292.836 433.018 292.85 432.905C292.864 432.793 292.921 432.69 293.008 432.617L311.43 418.325C311.521 418.255 311.635 418.224 311.749 418.238C311.863 418.252 311.966 418.311 312.037 418.401L312.043 418.406Z" fill="#0C0C0C"/>
</g>
<g opacity="0.2">
<path d="M318.422 426.085C318.49 426.176 318.519 426.29 318.504 426.402C318.488 426.514 318.429 426.616 318.34 426.685L303.64 438.085C303.549 438.15 303.436 438.177 303.325 438.161C303.215 438.145 303.115 438.086 303.046 437.998C302.978 437.909 302.946 437.798 302.958 437.687C302.97 437.575 303.024 437.473 303.11 437.401L317.81 426C317.9 425.93 318.015 425.898 318.129 425.913C318.242 425.927 318.346 425.986 318.416 426.076L318.422 426.085Z" fill="#0C0C0C"/>
</g>
<path d="M459.6 292.855L459.27 292.173L400.87 171.443L342.356 199.748L390.717 299.725L307.258 383.458L347.545 425.558L452.481 329.804C457.482 325.229 460.876 319.164 462.158 312.508C463.44 305.853 462.543 298.961 459.6 292.855Z" fill="#367CFF"/>
<path d="M332 359.131C331.901 359.131 331.804 359.101 331.722 359.046C331.64 358.991 331.576 358.912 331.538 358.821C331.501 358.729 331.491 358.629 331.511 358.532C331.531 358.435 331.579 358.346 331.649 358.276L391.1 299.624L346.9 210.976C346.867 210.917 346.845 210.852 346.838 210.784C346.831 210.717 346.837 210.648 346.857 210.584C346.877 210.519 346.91 210.459 346.954 210.407C346.998 210.355 347.052 210.313 347.112 210.282C347.173 210.252 347.239 210.235 347.307 210.231C347.375 210.227 347.443 210.237 347.507 210.26C347.57 210.284 347.629 210.32 347.678 210.366C347.727 210.413 347.767 210.469 347.794 210.531L392.161 299.5C392.207 299.595 392.222 299.701 392.205 299.805C392.187 299.909 392.136 300.004 392.061 300.078L332.347 358.984C332.255 359.077 332.13 359.13 332 359.131Z" fill="#0C0C0C"/>
<path d="M205.77 154.911L124.078 230.292L63.947 155.135L23.8469 195.464L90.9999 288.518C97.0399 300.59 110.046 307.897 123.408 305.981C128.583 305.239 133.492 303.221 137.693 300.11L139.209 298.99L248.8 207.28L205.77 154.911Z" fill="#367CFF"/>
<path d="M202.078 246.408C201.956 246.409 201.838 246.366 201.746 246.286C201.654 246.206 201.594 246.095 201.578 245.974L197.778 217.474C197.762 217.344 197.799 217.212 197.879 217.109C197.96 217.005 198.078 216.937 198.208 216.919C198.338 216.902 198.47 216.936 198.575 217.015C198.68 217.094 198.749 217.211 198.769 217.341L202.569 245.841C202.578 245.906 202.574 245.973 202.557 246.036C202.54 246.1 202.511 246.16 202.471 246.212C202.431 246.264 202.381 246.308 202.324 246.341C202.267 246.374 202.204 246.395 202.139 246.404C202.119 246.407 202.098 246.408 202.078 246.408Z" fill="#0C0C0C"/>
<path d="M134.164 245.456C134.074 245.456 133.986 245.432 133.909 245.387C133.832 245.341 133.768 245.276 133.725 245.197L123.64 230.533C123.576 230.417 123.56 230.28 123.597 230.153C123.634 230.025 123.72 229.918 123.836 229.854C123.952 229.789 124.089 229.774 124.217 229.811C124.344 229.848 124.452 229.934 124.516 230.05L134.6 244.715C134.642 244.791 134.663 244.877 134.662 244.964C134.66 245.05 134.636 245.135 134.592 245.21C134.548 245.285 134.486 245.347 134.41 245.39C134.335 245.433 134.251 245.456 134.164 245.456Z" fill="#0C0C0C"/>
</svg>
