<svg width="557" height="477" viewBox="0 0 557 477" fill="none" xmlns="http://www.w3.org/2000/svg">
<path d="M525.826 27.1777H31.3948C14.9991 27.1777 1.70776 40.4691 1.70776 56.8647V445.953C1.70776 462.348 14.9991 475.64 31.3948 475.64H525.826C542.221 475.64 555.513 462.348 555.513 445.953V56.8647C555.513 40.4691 542.221 27.1777 525.826 27.1777Z" fill="white"/>
<path d="M525.826 476.572H31.3939C23.2761 476.562 15.4936 473.333 9.75356 467.593C4.01355 461.853 0.784878 454.07 0.775879 445.953V56.8646C0.784878 48.7469 4.01355 40.9642 9.75356 35.224C15.4936 29.4838 23.2761 26.2549 31.3939 26.2456H525.826C533.944 26.2549 541.726 29.4838 547.466 35.224C553.206 40.9642 556.435 48.7469 556.444 56.8646V445.953C556.435 454.07 553.206 461.853 547.466 467.593C541.726 473.333 533.944 476.562 525.826 476.572ZM31.3939 28.1086C23.7701 28.1173 16.4611 31.1498 11.0703 36.5408C5.67957 41.9317 2.64735 49.2408 2.63888 56.8646V445.953C2.64735 453.576 5.67957 460.886 11.0703 466.276C16.4611 471.667 23.7701 474.7 31.3939 474.709H525.826C533.45 474.7 540.759 471.667 546.149 466.276C551.54 460.886 554.572 453.576 554.581 445.953V56.8646C554.572 49.2408 551.54 41.9317 546.149 36.5408C540.759 31.1498 533.45 28.1173 525.826 28.1086H31.3939Z" fill="#292A2E"/>
<path d="M555.513 56.8678V113.162H1.70996V56.8678C1.70891 52.9684 2.47613 49.107 3.96778 45.5042C5.45944 41.9014 7.64629 38.6278 10.4034 35.8704C13.1606 33.113 16.434 30.9258 20.0366 29.4338C23.6393 27.9418 27.5006 27.1741 31.4 27.1748H525.828C533.702 27.1761 541.253 30.3052 546.82 35.8736C552.387 41.4421 555.514 48.9939 555.513 56.8678Z" fill="#367CFF"/>
<path d="M556.513 114.162H0.710938V56.8678C0.718614 48.7306 3.95425 40.9287 9.70778 35.1745C15.4613 29.4202 23.2627 26.1835 31.3999 26.1748H525.828C533.964 26.1849 541.765 29.4221 547.517 35.1762C553.27 40.9303 556.505 48.7313 556.513 56.8678V114.162ZM2.71294 112.162H554.513V56.8678C554.505 49.2617 551.481 41.9692 546.103 36.5901C540.726 31.211 533.434 28.1846 525.828 28.1748H31.3999C23.7931 28.1833 16.5002 31.2091 11.1217 36.5884C5.74319 41.9677 2.71835 49.2609 2.71094 56.8678L2.71294 112.162Z" fill="#367CFF"/>
<path d="M145.556 56.3411V14.7841C145.556 7.13389 139.354 0.932129 131.704 0.932129C124.054 0.932129 117.852 7.13389 117.852 14.7841V56.3411C117.852 63.9914 124.054 70.1931 131.704 70.1931C139.354 70.1931 145.556 63.9914 145.556 56.3411Z" fill="white"/>
<path d="M131.7 71.124C127.781 71.1187 124.024 69.5593 121.253 66.7878C118.483 64.0163 116.924 60.259 116.92 56.34V14.784C116.904 12.8324 117.274 10.8969 118.01 9.08918C118.746 7.28148 119.832 5.63735 121.207 4.25163C122.581 2.86591 124.216 1.76603 126.018 1.01544C127.819 0.264858 129.752 -0.121582 131.703 -0.121582C133.655 -0.121582 135.588 0.264858 137.389 1.01544C139.191 1.76603 140.826 2.86591 142.2 4.25163C143.575 5.63735 144.661 7.28148 145.397 9.08918C146.132 10.8969 146.503 12.8324 146.487 14.784V56.34C146.483 60.2602 144.923 64.0185 142.151 66.7903C139.379 69.562 135.62 71.1206 131.7 71.124ZM131.7 1.86301C128.274 1.86671 124.99 3.22922 122.568 5.65157C120.145 8.07393 118.783 11.3583 118.779 14.784V56.34C118.764 58.0463 119.087 59.7387 119.73 61.3195C120.372 62.9002 121.322 64.338 122.523 65.5499C123.724 66.7618 125.153 67.7238 126.729 68.3802C128.304 69.0367 129.993 69.3747 131.699 69.3747C133.406 69.3747 135.095 69.0367 136.67 68.3802C138.245 67.7238 139.675 66.7618 140.876 65.5499C142.077 64.338 143.027 62.9002 143.669 61.3195C144.312 59.7387 144.635 58.0463 144.62 56.34V14.784C144.616 11.3585 143.254 8.07425 140.832 5.65193C138.41 3.2296 135.125 1.86698 131.7 1.86301Z" fill="#262626"/>
<path d="M439.369 56.3401V14.7832C439.369 7.13292 433.167 0.931152 425.517 0.931152C417.867 0.931152 411.665 7.13292 411.665 14.7832V56.3401C411.665 63.9904 417.867 70.1921 425.517 70.1921C433.167 70.1921 439.369 63.9904 439.369 56.3401Z" fill="white"/>
<path d="M425.517 71.124C421.597 71.1198 417.839 69.5608 415.068 66.7892C412.296 64.0176 410.737 60.2597 410.733 56.34V14.784C410.733 10.863 412.291 7.10267 415.063 4.33013C417.836 1.5576 421.596 0 425.517 0C429.438 0 433.198 1.5576 435.971 4.33013C438.743 7.10267 440.301 10.863 440.301 14.784V56.34C440.297 60.2597 438.738 64.0176 435.966 66.7892C433.194 69.5608 429.437 71.1198 425.517 71.124ZM425.517 1.863C422.092 1.86776 418.809 3.23074 416.387 5.65298C413.966 8.07522 412.604 11.359 412.6 14.784V56.34C412.6 59.7669 413.961 63.0534 416.384 65.4765C418.808 67.8997 422.094 69.261 425.521 69.261C428.948 69.261 432.234 67.8997 434.657 65.4765C437.081 63.0534 438.442 59.7669 438.442 56.34V14.784C438.438 11.3576 437.075 8.07262 434.652 5.65015C432.229 3.22769 428.943 1.86565 425.517 1.863Z" fill="#262626"/>
<g opacity="0.08">
<path d="M108.498 152.996H28.769V231.361H108.498V152.996Z" fill="#367CFF"/>
<path d="M108.498 253.152H28.769V331.517H108.498V253.152Z" fill="#367CFF"/>
<path d="M108.498 353.309H28.769V431.674H108.498V353.309Z" fill="#367CFF"/>
<path d="M213.48 152.996H133.751V231.361H213.48V152.996Z" fill="#367CFF"/>
<path d="M213.48 253.152H133.751V331.517H213.48V253.152Z" fill="#367CFF"/>
<path d="M317.405 152.996H237.676V231.361H317.405V152.996Z" fill="#367CFF"/>
<path d="M317.405 253.152H237.676V331.517H317.405V253.152Z" fill="#367CFF"/>
<path d="M424.271 152.996H344.542V231.361H424.271V152.996Z" fill="#367CFF"/>
<path d="M424.271 253.152H344.542V331.517H424.271V253.152Z" fill="#367CFF"/>
<path d="M213.48 353.309H133.751V431.674H213.48V353.309Z" fill="#367CFF"/>
<path d="M317.405 353.309H237.676V431.674H317.405V353.309Z" fill="#367CFF"/>
<path d="M528.451 152.996H448.722V231.361H528.451V152.996Z" fill="#367CFF"/>
<path d="M528.451 253.152H448.722V331.517H528.451V253.152Z" fill="#367CFF"/>
</g>
<path d="M227.224 267.523C235.502 267.523 242.212 260.813 242.212 252.535C242.212 244.257 235.502 237.547 227.224 237.547C218.946 237.547 212.236 244.257 212.236 252.535C212.236 260.813 218.946 267.523 227.224 267.523Z" fill="#292A2E"/>
<path d="M329.996 267.523C338.274 267.523 344.984 260.813 344.984 252.535C344.984 244.257 338.274 237.547 329.996 237.547C321.718 237.547 315.008 244.257 315.008 252.535C315.008 260.813 321.718 267.523 329.996 267.523Z" fill="#292A2E"/>
<path d="M298.705 293.986H258.515C258.25 293.986 257.996 293.88 257.808 293.693C257.62 293.505 257.515 293.251 257.515 292.986C257.515 292.721 257.62 292.466 257.808 292.279C257.996 292.091 258.25 291.986 258.515 291.986H298.705C298.97 291.986 299.225 292.091 299.412 292.279C299.6 292.466 299.705 292.721 299.705 292.986C299.705 293.251 299.6 293.505 299.412 293.693C299.225 293.88 298.97 293.986 298.705 293.986Z" fill="#262626"/>
<path d="M211.763 295.409C219.147 295.409 225.133 292.258 225.133 288.372C225.133 284.486 219.147 281.335 211.763 281.335C204.379 281.335 198.393 284.486 198.393 288.372C198.393 292.258 204.379 295.409 211.763 295.409Z" fill="white"/>
<path d="M345.457 295.409C352.841 295.409 358.827 292.258 358.827 288.372C358.827 284.486 352.841 281.335 345.457 281.335C338.073 281.335 332.087 284.486 332.087 288.372C332.087 292.258 338.073 295.409 345.457 295.409Z" fill="white"/>
<g opacity="0.4">
<path d="M211.763 295.409C219.147 295.409 225.133 292.258 225.133 288.372C225.133 284.486 219.147 281.335 211.763 281.335C204.379 281.335 198.393 284.486 198.393 288.372C198.393 292.258 204.379 295.409 211.763 295.409Z" fill="#367CFF"/>
<path d="M345.457 295.409C352.841 295.409 358.827 292.258 358.827 288.372C358.827 284.486 352.841 281.335 345.457 281.335C338.073 281.335 332.087 284.486 332.087 288.372C332.087 292.258 338.073 295.409 345.457 295.409Z" fill="#367CFF"/>
</g>
</svg>
