<svg width="245.025" height="100.007" viewBox="0 0 245.025 100.007" xmlns="http://www.w3.org/2000/svg"><g id="svgGroup" stroke-linecap="round" fill-rule="evenodd" font-size="9pt" stroke="#000" stroke-width="0" fill="#259bfe" style="stroke:#000;stroke-width:0;fill:#259bfe"><path d="M 89.846 3.91 L 104.982 71.976 L 120.119 3.91 A 4.816 4.816 0 0 1 121.877 1.078 A 4.92 4.92 0 0 1 125.002 0.003 A 4.92 4.92 0 0 1 128.127 1.078 A 4.816 4.816 0 0 1 129.885 3.91 L 145.021 71.976 L 160.158 3.91 A 4.816 4.816 0 0 1 161.916 1.078 A 4.92 4.92 0 0 1 165.041 0.003 A 4.788 4.788 0 0 1 168.511 1.423 A 5.881 5.881 0 0 1 168.557 1.468 A 4.79 4.79 0 0 1 170.021 4.92 A 5.705 5.705 0 0 1 170.021 4.984 A 6.123 6.123 0 0 1 169.991 5.604 A 4.793 4.793 0 0 1 169.924 6.058 L 149.904 96.097 A 4.816 4.816 0 0 1 148.146 98.929 A 4.92 4.92 0 0 1 145.021 100.003 A 4.92 4.92 0 0 1 141.896 98.929 A 4.816 4.816 0 0 1 140.139 96.097 L 125.002 27.933 L 109.865 96.097 A 4.816 4.816 0 0 1 108.107 98.929 A 4.92 4.92 0 0 1 104.982 100.003 A 4.92 4.92 0 0 1 101.857 98.929 A 4.816 4.816 0 0 1 100.1 96.097 L 80.08 6.058 A 4.931 4.931 0 0 1 80.001 5.478 A 6.304 6.304 0 0 1 79.982 4.984 A 4.788 4.788 0 0 1 81.402 1.514 A 5.881 5.881 0 0 1 81.447 1.468 A 4.79 4.79 0 0 1 84.899 0.004 A 5.705 5.705 0 0 1 84.963 0.003 A 4.92 4.92 0 0 1 88.088 1.078 A 4.816 4.816 0 0 1 89.846 3.91 Z M 185.061 70.023 L 185.061 4.984 A 4.788 4.788 0 0 1 186.48 1.514 A 5.881 5.881 0 0 1 186.525 1.468 A 4.79 4.79 0 0 1 189.977 0.004 A 5.705 5.705 0 0 1 190.041 0.003 A 4.788 4.788 0 0 1 193.511 1.423 A 5.881 5.881 0 0 1 193.557 1.468 A 4.79 4.79 0 0 1 195.021 4.92 A 5.705 5.705 0 0 1 195.021 4.984 L 195.021 70.023 A 19.269 19.269 0 0 0 200.699 83.999 A 23.236 23.236 0 0 0 200.881 84.183 A 19.268 19.268 0 0 0 214.782 90.041 A 23.36 23.36 0 0 0 215.041 90.043 A 19.269 19.269 0 0 0 229.017 84.365 A 23.236 23.236 0 0 0 229.201 84.183 A 19.268 19.268 0 0 0 235.059 70.282 A 23.36 23.36 0 0 0 235.061 70.023 L 235.061 4.984 A 4.788 4.788 0 0 1 236.48 1.514 A 5.881 5.881 0 0 1 236.525 1.468 A 4.79 4.79 0 0 1 239.977 0.004 A 5.705 5.705 0 0 1 240.041 0.003 A 4.788 4.788 0 0 1 243.511 1.423 A 5.881 5.881 0 0 1 243.557 1.468 A 4.79 4.79 0 0 1 245.021 4.92 A 5.705 5.705 0 0 1 245.021 4.984 L 245.021 70.023 A 28.844 28.844 0 0 1 236.505 90.939 A 34.992 34.992 0 0 1 236.232 91.214 A 28.847 28.847 0 0 1 215.428 100.001 A 34.762 34.762 0 0 1 215.041 100.003 A 28.844 28.844 0 0 1 194.125 91.487 A 34.992 34.992 0 0 1 193.85 91.214 A 28.847 28.847 0 0 1 185.063 70.41 A 34.762 34.762 0 0 1 185.061 70.023 Z M 1.322 34.369 A 86.407 86.407 0 0 0 0.002 50.003 A 96.222 96.222 0 0 0 0.409 59.033 Q 1.185 67.266 3.444 74.027 A 43.226 43.226 0 0 0 13.771 91.214 A 34.992 34.992 0 0 0 14.047 91.487 A 28.844 28.844 0 0 0 34.963 100.003 A 34.762 34.762 0 0 0 35.35 100.001 A 28.847 28.847 0 0 0 56.154 91.214 A 40.801 40.801 0 0 0 63.633 80.853 Q 67.052 74.168 68.613 65.638 A 87.004 87.004 0 0 0 69.924 50.003 A 96.222 96.222 0 0 0 69.517 40.974 Q 68.74 32.741 66.481 25.98 A 43.226 43.226 0 0 0 56.154 8.793 A 34.992 34.992 0 0 0 55.879 8.52 A 28.844 28.844 0 0 0 34.963 0.003 A 34.751 34.751 0 0 0 34.564 0.006 A 28.522 28.522 0 0 0 13.869 8.793 A 40.811 40.811 0 0 0 6.337 19.154 Q 2.894 25.839 1.322 34.369 Z M 34.963 9.964 A 19.269 19.269 0 0 0 20.986 15.642 A 23.236 23.236 0 0 0 20.803 15.824 A 32.846 32.846 0 0 0 13.298 27.957 Q 11.422 33.076 10.601 39.412 A 82.604 82.604 0 0 0 9.963 50.003 Q 9.963 73.343 20.803 84.183 A 19.268 19.268 0 0 0 34.704 90.041 A 23.36 23.36 0 0 0 34.963 90.043 A 19.269 19.269 0 0 0 48.939 84.365 A 23.236 23.236 0 0 0 49.123 84.183 A 32.846 32.846 0 0 0 56.628 72.05 Q 58.504 66.931 59.324 60.595 A 82.604 82.604 0 0 0 59.963 50.003 Q 59.963 26.664 49.123 15.824 A 19.268 19.268 0 0 0 35.222 9.966 A 23.36 23.36 0 0 0 34.963 9.964 Z" vector-effect="non-scaling-stroke"/></g></svg>