<?xml version="1.0" standalone="no"?>
<!DOCTYPE svg PUBLIC "-//W3C//DTD SVG 20010904//EN"
 "http://www.w3.org/TR/2001/REC-SVG-20010904/DTD/svg10.dtd">
<svg version="1.0" xmlns="http://www.w3.org/2000/svg"
 width="1960.000000pt" height="1960.000000pt" viewBox="0 0 1960.000000 1960.000000"
 preserveAspectRatio="xMidYMid meet">
<metadata>
Created by potrace 1.14, written by Peter Selinger 2001-2017
</metadata>
<g transform="translate(0.000000,1960.000000) scale(0.100000,-0.100000)"
fill="#000000" stroke="none">
<path d="M2589 13796 c-2 -2 -35 -7 -74 -10 -96 -9 -123 -13 -250 -42 -203
-46 -346 -96 -513 -178 -162 -80 -382 -225 -487 -320 -109 -99 -254 -248 -336
-346 -29 -35 -58 -70 -64 -76 -5 -6 -19 -23 -30 -38 -20 -29 -69 -93 -83 -111
-26 -34 -122 -187 -122 -195 0 -5 -4 -10 -8 -10 -5 0 -23 -28 -41 -62 -17 -35
-49 -95 -69 -133 -49 -93 -152 -316 -156 -340 -2 -5 -10 -27 -19 -49 -9 -21
-17 -40 -17 -42 0 -1 -5 -15 -12 -31 -6 -15 -12 -32 -13 -38 0 -5 -4 -17 -8
-25 -13 -31 -83 -260 -93 -305 -1 -5 -7 -30 -14 -55 -13 -47 -15 -59 -34 -145
-1 -5 -5 -19 -9 -30 -3 -11 -8 -36 -11 -55 -3 -19 -8 -46 -11 -60 -3 -14 -10
-52 -15 -85 -5 -33 -12 -69 -14 -81 -2 -12 -7 -45 -11 -74 -4 -29 -8 -60 -10
-69 -3 -17 -15 -114 -21 -166 -1 -16 -5 -51 -8 -77 -4 -26 -8 -78 -11 -115 -3
-37 -8 -111 -12 -163 -16 -205 -7 -921 13 -1105 2 -22 6 -69 9 -105 8 -104 14
-153 19 -185 3 -16 9 -55 12 -85 9 -75 12 -95 14 -95 3 0 7 -27 14 -84 4 -29
8 -56 10 -60 2 -3 7 -22 10 -41 5 -32 10 -60 36 -185 5 -22 13 -52 19 -67 6
-16 8 -28 6 -28 -2 0 0 -11 5 -26 6 -14 12 -37 15 -52 17 -98 182 -581 206
-607 5 -5 9 -17 9 -27 0 -10 5 -18 10 -18 6 0 10 -6 10 -14 0 -32 201 -396
267 -482 12 -17 23 -36 23 -42 0 -7 4 -12 8 -12 4 0 15 -13 24 -28 9 -15 30
-43 47 -62 17 -19 31 -40 31 -47 0 -6 3 -13 8 -15 4 -1 28 -28 52 -58 25 -30
61 -72 80 -95 63 -72 264 -270 315 -311 28 -21 52 -41 55 -45 3 -3 27 -21 55
-40 27 -18 55 -39 62 -46 7 -6 38 -26 69 -45 31 -18 70 -41 88 -52 205 -122
513 -234 750 -272 21 -3 47 -7 58 -9 102 -20 517 -28 648 -12 108 12 170 22
225 34 17 4 35 7 40 8 6 0 30 6 55 13 79 22 185 53 200 58 8 3 15 4 15 2 1 -2
13 5 28 15 15 9 27 15 27 12 0 -2 35 12 78 31 42 20 82 37 87 38 6 1 15 4 20
8 6 3 42 23 80 43 87 47 223 132 251 157 11 10 26 18 32 18 7 0 12 4 12 8 0 4
21 24 47 43 112 84 272 242 409 404 76 90 154 193 154 204 0 5 4 11 8 13 10 4
97 132 137 203 16 28 32 52 35 55 12 10 190 377 190 391 0 8 5 20 11 26 6 6
12 17 13 24 1 8 8 28 15 44 7 17 19 45 27 63 8 18 14 37 14 43 0 6 6 25 14 42
15 35 64 182 70 213 2 10 9 33 16 49 6 17 11 31 11 33 -1 1 -1 3 0 5 0 1 2 9
4 17 1 8 12 51 23 95 12 44 24 95 27 114 3 19 7 37 9 40 2 3 7 24 10 46 4 22
8 47 11 55 2 8 6 31 9 50 3 19 8 46 11 60 6 29 11 58 20 120 12 79 14 94 20
150 3 30 8 66 10 80 2 14 7 52 10 85 3 33 7 76 9 95 32 303 37 959 10 1237 -2
28 -7 80 -9 115 -3 35 -7 77 -9 93 -3 17 -7 61 -11 99 -3 38 -8 79 -10 90 -3
12 -7 39 -10 61 -2 22 -6 51 -9 65 -2 14 -10 59 -16 100 -7 41 -14 84 -17 95
-2 11 -8 40 -13 65 -4 25 -11 56 -14 70 -4 14 -9 39 -12 55 -2 17 -10 48 -15
70 -6 22 -13 48 -15 59 -2 10 -8 33 -14 51 -6 18 -13 43 -16 56 -9 40 -12 54
-14 54 -1 0 -3 7 -5 15 -8 36 -76 243 -86 261 -6 12 -12 31 -15 43 -3 21 -18
57 -59 151 -7 17 -23 53 -35 80 -42 95 -148 299 -182 347 -10 14 -18 31 -18
37 0 6 -4 11 -10 11 -5 0 -10 6 -10 13 0 7 -8 22 -17 33 -10 10 -24 31 -32 46
-8 15 -22 37 -33 47 -10 11 -18 23 -18 26 0 3 -5 11 -10 18 -6 7 -24 30 -40
52 -16 22 -36 47 -45 56 -8 9 -15 19 -15 22 0 4 -8 15 -17 25 -34 35 -73 82
-69 82 2 0 -12 17 -32 38 -20 21 -67 70 -103 108 -137 143 -320 297 -440 369
-107 65 -155 91 -249 137 -58 29 -109 53 -115 54 -5 1 -41 14 -80 29 -134 52
-336 104 -470 121 -27 3 -59 8 -70 11 -23 6 -501 14 -506 9z m361 -800 c47 -3
92 -7 100 -9 8 -2 38 -8 65 -12 57 -10 55 -10 75 -17 12 -5 99 -29 120 -34 3
0 14 -4 25 -9 11 -4 43 -17 70 -27 94 -37 213 -102 310 -170 173 -123 436
-412 548 -605 18 -30 41 -69 51 -86 44 -72 124 -236 119 -241 -4 -3 -1 -6 5
-6 7 0 12 -8 12 -18 0 -10 4 -22 9 -27 9 -11 92 -221 95 -242 1 -7 5 -16 9
-19 4 -4 7 -17 7 -29 0 -12 3 -25 8 -29 4 -4 8 -12 8 -17 1 -5 2 -10 4 -11 1
-2 3 -10 5 -18 2 -8 18 -67 35 -130 17 -63 33 -128 36 -145 3 -16 9 -46 14
-65 10 -42 31 -145 35 -174 3 -24 16 -113 20 -136 2 -9 6 -43 10 -75 4 -33 9
-73 11 -90 2 -16 6 -57 9 -90 3 -33 8 -80 10 -105 25 -234 25 -774 1 -1110 -7
-95 -23 -244 -31 -295 -2 -16 -7 -47 -10 -67 -18 -133 -20 -146 -46 -273 -11
-55 -22 -109 -24 -120 -7 -34 -43 -168 -59 -220 -16 -53 -17 -54 -21 -70 -20
-65 -48 -154 -55 -170 -5 -11 -21 -51 -35 -90 -15 -38 -38 -94 -51 -123 -13
-29 -24 -57 -24 -62 0 -6 -4 -10 -10 -10 -5 0 -10 -9 -10 -19 0 -11 -4 -23
-10 -26 -5 -3 -20 -28 -32 -55 -13 -28 -26 -50 -30 -50 -5 0 -8 -5 -8 -11 0
-16 -77 -138 -152 -240 -133 -183 -304 -360 -441 -457 -29 -20 -54 -39 -57
-42 -7 -7 -76 -45 -140 -77 -30 -16 -56 -31 -58 -35 -2 -5 -12 -8 -22 -8 -10
0 -21 -4 -24 -9 -3 -5 -17 -12 -30 -15 -14 -3 -38 -11 -53 -18 -15 -6 -33 -12
-40 -14 -7 -1 -34 -9 -60 -17 -43 -14 -83 -23 -188 -42 -124 -22 -431 -22
-525 2 -14 3 -34 7 -45 9 -34 4 -69 12 -85 18 -8 3 -26 7 -40 10 -80 13 -318
120 -418 187 -24 16 -47 29 -52 29 -4 0 -10 3 -12 8 -1 4 -28 26 -58 49 -160
121 -358 351 -500 578 -51 82 -171 315 -200 390 -4 11 -15 36 -24 56 -9 20
-34 89 -55 154 -22 64 -42 119 -45 122 -3 4 -6 17 -6 30 0 14 -4 32 -10 42 -5
10 -11 29 -14 42 -6 29 -8 39 -34 149 -19 81 -37 165 -47 220 -2 14 -6 34 -8
45 -3 11 -8 45 -12 75 -4 30 -10 66 -12 80 -2 14 -6 48 -8 75 -2 28 -6 61 -9
75 -12 63 -29 306 -30 427 -1 46 -4 83 -8 83 -4 0 -3 11 2 24 5 13 6 27 3 30
-9 9 -9 367 0 373 4 2 3 12 -3 22 -5 10 -7 21 -4 24 4 3 8 48 9 99 2 51 6 127
10 168 3 41 8 96 10 122 2 26 7 69 10 95 3 27 8 66 10 88 8 72 17 138 21 159
3 12 7 35 9 51 4 34 12 78 21 115 3 14 7 36 9 50 1 14 10 57 20 95 21 88 24
100 30 125 3 11 7 28 9 38 10 41 56 192 71 233 9 24 25 71 37 104 41 122 163
382 209 446 10 15 19 30 19 33 0 14 166 247 215 302 6 6 30 35 55 65 58 68
174 184 220 218 19 14 41 32 49 39 31 29 182 122 263 161 92 44 276 108 337
117 20 3 43 7 51 10 68 24 269 32 460 20z"/>
<path d="M6663 13776 c-188 -69 -292 -251 -258 -451 3 -22 11 -57 16 -78 6
-21 12 -50 14 -65 2 -15 11 -55 19 -89 9 -34 18 -75 21 -90 2 -15 7 -38 10
-50 3 -13 7 -32 10 -44 2 -11 6 -28 9 -37 3 -9 7 -29 10 -45 3 -15 7 -35 10
-45 5 -15 11 -42 21 -97 3 -11 9 -38 14 -60 5 -22 12 -51 15 -65 2 -14 10 -47
16 -75 7 -27 13 -54 14 -60 4 -19 28 -130 30 -140 1 -5 5 -19 9 -30 3 -11 8
-36 11 -55 3 -19 10 -50 15 -67 5 -18 8 -33 6 -33 -3 0 -1 -10 4 -23 5 -13 12
-41 15 -61 4 -21 8 -42 11 -46 2 -3 7 -20 9 -36 3 -16 8 -40 11 -54 3 -14 7
-36 10 -50 3 -14 9 -40 15 -59 5 -19 8 -37 5 -39 -2 -3 0 -12 4 -21 5 -9 12
-33 15 -55 4 -21 8 -42 11 -46 3 -5 7 -21 9 -37 3 -15 12 -59 20 -98 16 -67
21 -92 32 -144 3 -12 12 -53 20 -90 9 -36 18 -76 20 -89 3 -13 18 -80 34 -150
16 -70 31 -138 34 -152 3 -14 10 -43 15 -65 5 -22 12 -53 14 -70 3 -16 18 -82
32 -145 15 -63 29 -124 31 -135 1 -11 5 -29 8 -40 20 -83 36 -154 39 -175 3
-14 10 -45 17 -70 7 -25 14 -56 16 -70 4 -26 4 -28 28 -130 15 -64 24 -106 31
-145 2 -11 22 -99 44 -197 22 -97 43 -187 45 -200 3 -12 10 -40 15 -60 5 -21
7 -38 4 -38 -3 0 0 -7 7 -15 7 -8 10 -15 7 -15 -3 0 0 -19 5 -42 15 -68 16
-69 34 -148 9 -41 17 -83 17 -92 1 -10 5 -18 10 -18 4 0 6 -3 3 -8 -2 -4 4
-43 15 -87 11 -44 22 -92 24 -107 2 -16 11 -56 19 -90 8 -35 20 -85 26 -113
21 -98 37 -171 49 -217 5 -20 6 -39 3 -42 -3 -4 -1 -6 4 -6 5 0 10 -8 10 -17
1 -25 9 -66 30 -148 9 -38 18 -79 19 -90 1 -11 4 -27 8 -35 3 -8 11 -40 16
-70 12 -63 14 -72 36 -160 8 -36 18 -77 20 -92 2 -15 9 -44 14 -65 6 -21 20
-83 32 -138 29 -137 55 -257 74 -340 9 -38 18 -81 21 -95 3 -14 14 -65 26
-115 11 -49 26 -117 34 -151 16 -74 21 -96 34 -154 6 -25 13 -56 15 -70 3 -14
13 -56 21 -95 9 -38 22 -97 29 -130 8 -33 23 -99 34 -147 12 -47 21 -93 21
-101 0 -31 64 -140 108 -182 50 -49 143 -101 188 -105 51 -5 168 -4 189 2 111
29 216 113 258 205 21 48 49 150 81 303 3 14 13 54 21 90 9 36 17 74 19 85 6
43 19 100 24 110 3 5 7 18 8 30 2 19 8 50 18 90 30 132 32 140 42 195 4 19 9
39 12 45 3 5 7 18 8 30 3 23 7 42 29 135 9 36 17 76 19 90 2 14 12 56 21 95 9
38 18 81 21 95 2 14 19 93 38 175 19 83 37 161 40 175 6 32 12 54 26 110 6 25
13 56 15 70 2 14 10 54 19 90 8 36 17 76 20 90 3 14 8 36 11 50 3 14 8 36 11
50 3 14 10 45 15 70 6 25 13 54 15 65 2 11 6 29 9 40 12 52 37 162 40 180 2
11 7 31 10 45 3 14 10 43 15 65 4 22 11 51 14 65 7 30 15 68 20 95 3 11 10 43
16 70 6 28 13 57 15 65 6 26 36 164 42 190 10 47 11 55 14 55 1 0 3 9 4 20 1
11 10 54 19 95 10 41 20 86 22 100 3 14 7 31 10 39 2 8 7 30 10 50 3 20 10 44
15 54 5 9 8 17 5 17 -2 0 1 19 6 43 5 23 11 49 13 57 2 8 16 69 30 135 15 66
29 129 31 140 3 11 7 31 10 45 3 14 7 30 8 35 2 6 6 28 10 50 5 22 16 74 27
115 10 41 21 91 24 110 3 19 12 60 20 90 8 30 16 66 19 80 4 20 26 122 51 235
3 11 7 31 10 45 3 14 8 36 11 50 3 14 7 36 10 50 3 14 7 33 10 42 5 15 10 41
18 83 1 6 5 16 10 23 4 7 6 16 3 18 -3 3 -1 21 5 41 5 19 11 43 13 52 2 9 11
50 20 91 9 41 19 86 21 99 3 12 12 53 20 90 22 90 22 93 23 115 2 48 35 -52
47 -139 1 -11 3 -20 4 -20 1 0 3 -8 5 -19 2 -10 9 -39 15 -65 11 -47 17 -77
26 -121 3 -14 10 -43 16 -65 5 -22 12 -49 13 -60 2 -11 11 -51 19 -90 9 -38
18 -79 20 -90 2 -11 12 -51 21 -90 9 -38 18 -79 20 -90 5 -28 40 -187 60 -270
9 -38 18 -79 20 -90 2 -11 13 -63 25 -115 23 -101 27 -121 34 -158 3 -13 7
-31 10 -40 7 -22 17 -70 22 -102 2 -14 10 -52 19 -85 8 -33 17 -73 20 -90 3
-16 10 -46 15 -65 5 -19 12 -47 15 -62 3 -16 7 -40 10 -55 3 -16 10 -44 15
-63 5 -19 12 -48 15 -65 7 -34 9 -44 31 -140 8 -38 17 -79 19 -90 2 -11 11
-51 20 -90 16 -67 50 -223 61 -275 3 -14 7 -33 10 -42 3 -10 7 -28 10 -40 4
-25 4 -23 34 -158 12 -52 23 -104 25 -115 2 -11 11 -51 20 -90 10 -38 19 -79
21 -90 1 -11 10 -51 19 -90 9 -38 18 -81 21 -95 3 -14 10 -43 16 -65 5 -22 12
-49 13 -60 2 -11 13 -65 25 -120 28 -131 26 -120 45 -195 8 -36 18 -76 20 -90
2 -14 11 -56 20 -95 9 -38 18 -81 21 -95 2 -14 7 -31 10 -39 2 -8 7 -30 10
-50 3 -20 9 -49 14 -66 8 -26 30 -128 46 -214 3 -14 7 -28 9 -31 2 -4 7 -20 9
-36 3 -16 8 -38 10 -49 20 -87 48 -214 52 -235 3 -14 9 -41 14 -60 10 -38 20
-86 24 -110 1 -8 8 -37 14 -65 6 -27 28 -122 47 -210 20 -88 45 -179 55 -203
25 -55 124 -154 181 -180 145 -66 309 -49 427 43 53 41 120 133 128 178 1 4 3
9 4 12 3 6 3 7 20 80 7 33 15 65 16 70 2 6 6 24 9 40 3 17 17 80 31 140 14 61
27 119 30 130 2 11 6 31 9 45 4 14 8 36 11 49 7 33 33 152 39 176 3 11 8 34
10 50 3 17 8 38 11 47 3 9 7 26 9 37 3 12 7 31 10 44 3 12 8 35 10 50 3 16 15
68 26 115 11 48 22 96 25 107 2 11 6 31 9 45 4 14 8 36 11 49 7 35 34 153 39
176 3 11 8 35 11 54 3 19 10 45 15 58 5 13 8 27 8 31 -1 4 0 9 1 12 2 7 7 31
14 70 4 19 11 49 16 65 7 25 29 124 34 160 1 6 5 16 9 23 5 6 6 12 4 12 -3 0
-1 17 4 38 5 20 18 80 30 132 11 52 22 103 25 113 4 16 6 27 19 87 6 30 10 45
29 130 30 133 57 256 62 280 3 14 11 52 19 85 8 33 17 76 21 95 10 47 11 50
14 53 1 1 4 11 5 22 3 19 6 35 20 95 3 14 8 41 11 60 3 19 8 38 9 41 2 3 11
39 20 80 20 91 23 107 30 139 4 14 8 36 11 50 2 14 7 32 10 40 3 8 8 31 10 50
3 19 8 44 11 55 8 25 12 41 18 84 3 18 7 36 10 40 4 7 13 51 20 91 1 8 5 22 8
30 4 8 8 26 11 40 2 14 9 45 15 70 9 43 14 66 26 128 3 15 11 45 17 67 6 22
12 47 13 55 2 16 16 88 21 105 3 9 8 32 18 80 2 11 14 62 25 113 12 51 23 103
25 115 3 12 5 22 6 22 1 0 3 9 5 20 5 28 15 72 28 125 4 14 9 36 11 50 2 14
10 48 16 75 6 28 14 59 16 70 2 11 6 31 9 45 4 14 8 34 10 45 3 11 7 31 10 45
4 14 8 36 11 50 3 14 10 43 15 65 5 22 12 51 15 65 17 82 36 167 39 180 17 76
25 109 29 132 2 15 7 31 9 35 5 7 14 53 22 108 2 11 4 20 5 20 2 0 6 20 14 65
4 19 11 49 16 65 5 17 12 44 15 60 11 63 23 120 25 120 1 0 3 9 5 20 7 42 16
81 26 111 5 18 12 47 14 65 2 19 8 49 14 67 5 18 10 36 11 40 0 4 3 16 5 27 3
11 7 31 9 45 2 14 7 32 10 40 3 8 7 29 10 45 7 41 15 82 27 130 5 22 12 51 15
65 2 14 7 33 10 42 3 10 7 30 10 45 2 16 8 42 11 58 4 17 8 35 9 40 0 6 6 28
12 50 6 22 14 54 16 70 3 17 9 41 12 55 68 280 52 400 -70 525 -126 128 -294
159 -457 84 -129 -60 -195 -155 -234 -339 -2 -8 -11 -51 -20 -95 -23 -107 -23
-110 -25 -112 -3 -3 -3 -3 -14 -58 -5 -22 -10 -47 -11 -55 -1 -8 -10 -46 -19
-85 -10 -38 -19 -85 -22 -104 -2 -18 -7 -37 -10 -42 -3 -5 -8 -22 -10 -37 -3
-15 -23 -108 -45 -207 -22 -99 -43 -193 -45 -210 -3 -16 -7 -37 -10 -45 -5
-12 -29 -119 -50 -219 -3 -13 -12 -51 -20 -85 -8 -34 -17 -72 -19 -86 -3 -21
-34 -159 -50 -225 -11 -48 -19 -81 -20 -95 -2 -8 -8 -37 -15 -65 -6 -27 -14
-61 -16 -75 -3 -14 -10 -45 -16 -70 -6 -25 -12 -54 -14 -65 -3 -18 -28 -131
-40 -180 -3 -11 -7 -29 -9 -40 -3 -11 -16 -69 -30 -130 -14 -60 -27 -121 -30
-135 -2 -14 -7 -36 -10 -50 -3 -14 -8 -34 -10 -45 -3 -11 -16 -72 -31 -135
-14 -63 -28 -126 -30 -140 -5 -23 -15 -68 -60 -263 -8 -37 -17 -79 -20 -95 -3
-15 -9 -43 -14 -62 -5 -19 -11 -46 -14 -60 -2 -14 -18 -86 -36 -160 -17 -74
-33 -148 -36 -165 -2 -16 -7 -38 -10 -47 -3 -10 -7 -30 -10 -45 -3 -16 -9 -44
-14 -63 -5 -19 -12 -53 -16 -75 -3 -22 -9 -44 -12 -50 -3 -5 -7 -16 -8 -25 -3
-26 -14 -83 -34 -165 -10 -44 -22 -96 -26 -115 -4 -19 -9 -39 -10 -45 -1 -5
-4 -22 -7 -38 -3 -15 -8 -35 -11 -45 -3 -9 -8 -29 -11 -44 -13 -70 -17 -85
-25 -118 -5 -19 -11 -46 -14 -60 -5 -24 -15 -74 -20 -95 -1 -5 -6 -26 -10 -45
-4 -19 -16 -71 -27 -115 -10 -44 -21 -98 -25 -120 -3 -22 -8 -43 -10 -47 -3
-4 -11 -38 -19 -75 -7 -38 -21 -99 -30 -138 -9 -38 -17 -76 -18 -82 -1 -28
-15 -10 -22 30 -4 23 -9 51 -12 62 -2 11 -16 79 -33 150 -16 72 -31 141 -34
155 -3 14 -11 48 -17 75 -6 28 -12 59 -14 70 -2 11 -7 31 -10 45 -13 51 -27
112 -45 195 -25 115 -40 181 -66 290 -9 39 -18 79 -19 90 -2 11 -6 31 -10 45
-6 28 -27 122 -40 183 -2 12 -9 42 -16 67 -6 25 -13 56 -15 70 -2 14 -13 63
-24 110 -44 194 -60 266 -64 290 -3 14 -5 25 -6 25 -2 0 -16 67 -26 125 -3 19
-8 38 -11 43 -2 4 -6 17 -9 30 -3 19 -23 109 -39 182 -3 11 -10 45 -17 75 -6
30 -12 57 -13 60 -2 6 -15 68 -19 90 -2 8 -6 26 -9 40 -18 70 -86 379 -93 420
-3 14 -9 39 -14 55 -4 17 -12 48 -16 70 -4 22 -8 45 -10 50 -12 51 -26 115
-30 135 -2 14 -6 35 -9 47 -3 13 -6 26 -7 30 -1 5 -5 24 -10 43 -5 19 -11 46
-14 60 -2 14 -13 63 -24 110 -65 286 -82 365 -85 390 -1 8 -5 22 -8 30 -5 14
-84 369 -93 420 -3 14 -9 41 -15 61 -5 21 -13 57 -18 80 -8 42 -37 172 -47
214 -3 11 -7 31 -10 45 -2 14 -7 36 -11 50 -13 53 -23 97 -28 125 -1 11 -8 38
-13 60 -6 22 -14 52 -17 68 -3 15 -7 39 -10 55 -3 15 -11 45 -17 67 -6 22 -11
43 -10 48 5 18 -39 157 -62 198 -47 84 -149 161 -248 187 -46 12 -153 12 -193
0 -16 -5 -34 -11 -40 -12 -120 -34 -233 -164 -259 -300 -2 -12 -14 -64 -26
-116 -25 -108 -23 -100 -45 -200 -23 -106 -24 -113 -29 -135 -2 -11 -10 -42
-16 -70 -6 -27 -14 -61 -16 -75 -3 -14 -9 -41 -14 -60 -5 -19 -11 -46 -14 -60
-3 -14 -7 -36 -10 -50 -3 -14 -8 -36 -11 -50 -5 -26 -11 -49 -25 -110 -13 -59
-41 -184 -46 -205 -3 -17 -11 -53 -20 -87 -1 -5 -2 -9 -3 -10 -2 -2 -4 -16 -6
-33 -2 -16 -8 -48 -14 -70 -21 -87 -38 -161 -47 -210 -2 -16 -9 -46 -14 -65
-5 -19 -11 -46 -14 -60 -2 -14 -5 -25 -6 -25 -1 0 -3 -9 -5 -20 -2 -11 -5 -29
-8 -40 -11 -44 -17 -71 -21 -95 -2 -14 -12 -54 -21 -90 -9 -36 -18 -74 -20
-85 -1 -11 -7 -40 -13 -65 -6 -25 -14 -61 -17 -80 -3 -19 -10 -48 -15 -65 -5
-16 -12 -43 -15 -60 -11 -66 -16 -86 -25 -109 -5 -13 -6 -26 -3 -29 3 -3 1
-12 -3 -19 -4 -7 -9 -19 -10 -28 -1 -15 -5 -29 -24 -108 -5 -23 -13 -59 -16
-80 -3 -20 -8 -40 -10 -43 -3 -6 -14 -57 -19 -94 -2 -11 -4 -22 -6 -25 -1 -3
-3 -9 -4 -15 -2 -5 -4 -12 -5 -15 -1 -3 -3 -12 -5 -20 -1 -8 -8 -41 -14 -72
-7 -32 -13 -61 -13 -65 0 -5 -4 -17 -8 -29 -5 -11 -11 -38 -14 -60 -4 -21 -11
-57 -17 -78 -6 -22 -12 -51 -14 -65 -2 -14 -4 -26 -5 -26 -1 0 -4 -11 -6 -25
-3 -14 -9 -43 -15 -65 -13 -46 -19 -72 -23 -100 -2 -11 -8 -40 -14 -65 -6 -25
-13 -56 -15 -70 -3 -14 -14 -64 -26 -112 -11 -48 -23 -98 -25 -110 -2 -13 -9
-43 -15 -68 -9 -43 -14 -66 -26 -127 -3 -16 -11 -46 -17 -68 -10 -40 -13 -52
-24 -110 -9 -44 -12 -60 -14 -60 -1 0 -3 -9 -4 -20 -2 -11 -22 -102 -44 -202
-40 -176 -46 -202 -58 -260 -3 -16 -11 -53 -19 -83 -8 -30 -16 -66 -19 -80 -3
-14 -8 -36 -11 -50 -3 -14 -8 -38 -11 -54 -2 -16 -6 -32 -8 -35 -2 -3 -7 -22
-10 -41 -3 -19 -10 -50 -15 -68 -5 -18 -10 -35 -10 -37 0 -5 -14 -79 -27 -135
-3 -14 -8 -38 -10 -55 -11 -60 -21 -43 -48 82 -15 71 -30 135 -33 143 -3 8 -7
24 -8 35 -1 11 -8 43 -14 70 -6 28 -14 61 -17 75 -3 14 -10 43 -16 65 -5 22
-12 51 -13 66 -2 14 -13 63 -24 110 -11 46 -22 96 -25 112 -3 15 -8 37 -11 48
-4 12 -8 31 -10 42 -2 12 -6 33 -10 47 -3 14 -8 36 -11 50 -2 14 -13 61 -24
105 -18 75 -21 92 -35 163 -3 15 -10 43 -15 62 -5 19 -11 47 -14 63 -3 15 -8
37 -12 50 -4 12 -8 29 -9 37 -1 8 -5 31 -9 50 -4 19 -8 42 -10 50 -2 8 -6 22
-9 30 -4 13 -18 76 -31 145 -2 11 -9 43 -16 70 -6 28 -14 61 -16 75 -3 14 -9
41 -14 60 -5 19 -11 46 -14 60 -3 14 -10 48 -16 75 -6 28 -13 59 -15 70 -2 11
-6 29 -9 40 -22 95 -28 123 -31 140 -2 11 -6 31 -10 45 -3 14 -8 34 -10 45 -3
11 -7 31 -10 45 -4 14 -8 34 -10 45 -3 11 -7 30 -10 43 -3 12 -7 32 -10 45 -3
12 -12 54 -21 93 -8 39 -17 79 -19 90 -2 10 -4 19 -5 19 -1 0 -3 9 -5 20 -2
11 -6 31 -9 45 -8 34 -16 71 -20 95 -2 11 -9 38 -14 60 -6 22 -13 51 -16 65
-3 14 -8 36 -11 50 -3 14 -8 38 -11 54 -2 16 -7 32 -9 36 -3 4 -7 22 -9 41 -3
19 -10 51 -15 72 -5 20 -6 37 -3 37 3 0 1 5 -6 12 -7 7 -12 26 -12 43 0 18 -3
35 -7 39 -4 3 -8 12 -9 19 -9 61 -14 86 -18 98 -3 8 -8 28 -11 44 -7 37 -17
87 -19 100 -1 6 -4 15 -7 20 -6 9 -11 35 -34 160 -2 11 -4 20 -6 20 -1 0 -3 9
-5 20 -1 11 -17 81 -34 155 -16 74 -32 144 -34 155 -2 11 -10 43 -16 70 -6 28
-14 61 -16 75 -3 14 -7 33 -10 42 -3 10 -7 28 -10 40 -9 49 -13 70 -18 86 -3
9 -7 28 -10 42 -2 14 -9 45 -15 70 -7 25 -13 57 -16 72 -2 15 -9 46 -16 70 -6
24 -13 52 -14 63 -5 32 -15 78 -21 97 -3 10 -7 30 -10 45 -3 16 -9 44 -14 63
-5 19 -12 49 -15 65 -3 17 -8 39 -10 50 -11 46 -15 66 -21 88 -3 12 -7 33 -10
47 -16 81 -24 110 -51 169 -40 90 -154 185 -248 207 -75 17 -179 13 -242 -10z"/>
<path d="M15115 13792 c-26 -5 -116 -44 -134 -57 -36 -28 -121 -119 -121 -130
0 -7 -4 -15 -8 -17 -4 -1 -17 -31 -28 -65 -20 -61 -20 -83 -18 -2810 1 -1511
4 -2761 7 -2778 2 -16 8 -55 12 -85 7 -55 10 -70 22 -125 3 -16 7 -41 9 -55 1
-14 3 -25 4 -25 1 0 3 -7 5 -15 20 -100 113 -367 137 -397 6 -7 8 -13 5 -13
-5 0 58 -130 83 -170 5 -8 26 -44 46 -80 21 -36 42 -66 46 -68 4 -2 8 -10 8
-18 0 -8 5 -14 10 -14 6 0 10 -5 10 -11 0 -22 165 -222 270 -327 171 -173 275
-259 455 -376 219 -143 587 -285 835 -322 19 -3 46 -7 60 -10 65 -12 202 -19
375 -19 159 0 330 8 330 15 0 1 11 3 25 5 79 8 192 32 325 68 51 14 191 62
195 66 3 3 14 8 25 9 11 2 22 8 23 13 2 5 10 9 18 9 24 0 305 146 312 163 2 4
10 7 18 7 8 0 14 4 14 8 0 5 10 14 23 19 91 42 410 328 543 488 71 85 143 183
156 211 6 13 14 24 17 24 4 0 18 21 31 47 14 26 30 53 37 60 6 7 15 23 19 36
4 12 10 24 13 27 9 7 54 103 92 198 18 42 37 91 44 107 8 17 17 44 21 60 4 17
9 35 13 40 3 6 6 15 7 20 1 6 11 46 23 91 11 44 23 98 26 120 3 21 8 45 11 53
2 7 7 34 10 60 3 25 8 57 12 71 12 46 14 5547 1 5593 -20 77 -49 127 -107 185
-52 53 -102 88 -142 97 -8 2 -29 8 -47 14 -18 5 -67 8 -110 7 -159 -4 -298
-107 -360 -267 -16 -41 -17 -236 -19 -2744 -2 -1485 -5 -2727 -8 -2761 -12
-134 -94 -444 -117 -444 -5 0 -8 -4 -7 -8 4 -13 -54 -142 -63 -142 -5 0 -9 -7
-9 -15 0 -9 -5 -21 -10 -28 -6 -7 -25 -34 -42 -62 -18 -27 -35 -52 -38 -55 -3
-3 -13 -15 -21 -27 -47 -68 -171 -199 -267 -280 -109 -93 -325 -225 -407 -250
-5 -1 -56 -18 -112 -38 -56 -19 -116 -37 -135 -40 -18 -3 -40 -8 -48 -10 -8
-3 -35 -7 -60 -10 -202 -25 -412 -22 -565 9 -120 24 -283 74 -342 104 -10 6
-43 22 -73 38 -95 48 -123 65 -205 123 -77 54 -299 267 -340 326 -11 15 -25
33 -30 39 -6 6 -25 34 -42 61 -18 28 -36 55 -40 60 -45 58 -140 284 -172 410
-18 73 -24 101 -37 175 -5 31 -15 280 -14 375 0 39 1 111 1 160 0 50 0 151 0
225 1 74 1 146 1 160 -1 49 -2 246 -1 500 1 134 0 239 -2 375 0 6 0 219 0 475
0 256 0 472 0 480 0 8 0 224 0 480 0 256 0 472 0 480 0 8 0 224 0 480 0 256 0
473 0 483 0 9 0 196 1 415 0 218 -2 408 -5 421 -18 90 -52 152 -120 218 -95
92 -230 131 -360 105z"/>
</g>
</svg>
