<svg width="207" height="25" viewBox="0 0 207 25" fill="none" xmlns="http://www.w3.org/2000/svg">
    <g clip-path="url(#clip0)">
        <path
            d="M31.5781 19.6824L32.8042 16.8218C34.1463 17.814 35.8968 18.3393 37.6483 18.3393C38.9319 18.3393 39.7497 17.8432 39.7497 17.0849C39.7204 14.9836 32.0157 16.6181 31.9573 11.3345C31.928 8.65025 34.3208 6.57812 37.7078 6.57812C39.7214 6.57812 41.735 7.07423 43.1658 8.21263L42.0196 11.1366C40.7048 10.2916 39.0801 9.70386 37.5362 9.70386C36.4855 9.70386 35.7818 10.2 35.7818 10.8413C35.8111 12.9134 43.5742 11.776 43.6619 16.8237C43.6619 19.5674 41.3228 21.4933 38.0001 21.4933C35.5489 21.4933 33.3023 20.9085 31.5801 19.6844"
            fill="white" />
        <path
            d="M78.9118 15.7896C78.5249 16.4745 77.922 17.0119 77.1974 17.318C76.4728 17.6241 75.6672 17.6816 74.9065 17.4815C74.1457 17.2815 73.4726 16.8351 72.9923 16.2122C72.512 15.5892 72.2515 14.8248 72.2515 14.0382C72.2515 13.2516 72.512 12.4871 72.9923 11.8642C73.4726 11.2412 74.1457 10.7949 74.9065 10.5948C75.6672 10.3948 76.4728 10.4523 77.1974 10.7584C77.922 11.0644 78.5249 11.6019 78.9118 12.2867L82.3231 10.3988C81.5177 8.95863 80.2573 7.82631 78.7394 7.17924C77.2215 6.53217 75.5318 6.4069 73.935 6.82306C72.3383 7.23922 70.9247 8.1733 69.9157 9.47896C68.9067 10.7846 68.3594 12.3881 68.3594 14.0382C68.3594 15.6883 68.9067 17.2917 69.9157 18.5974C70.9247 19.903 72.3383 20.8371 73.935 21.2533C75.5318 21.6694 77.2215 21.5442 78.7394 20.8971C80.2573 20.25 81.5177 19.1177 82.3231 17.6775L78.9118 15.7896Z"
            fill="white" />
        <path d="M49.6391 0.372314H45.3779V21.1988H49.6391V0.372314Z" fill="white" />
        <path
            d="M83.9761 0.372314V21.1988H88.2373V14.96L93.286 21.1988H98.7314L92.3113 13.7865L98.2646 6.87037H93.0521L88.2373 12.6199V0.372314H83.9761Z"
            fill="white" />
        <path
            d="M62.2697 15.815C61.6566 16.8364 60.373 17.5957 58.9422 17.5957C57.9979 17.5957 57.0923 17.2206 56.4246 16.5528C55.7569 15.8851 55.3818 14.9795 55.3818 14.0352C55.3818 13.091 55.7569 12.1853 56.4246 11.5176C57.0923 10.8499 57.9979 10.4748 58.9422 10.4748C60.373 10.4748 61.6566 11.2633 62.2697 12.313V15.815ZM62.2697 6.87052V8.56351C61.5689 7.39392 59.8477 6.5791 58.0377 6.5791C54.3028 6.5791 51.3555 9.87637 51.3555 14.0206C51.3555 18.1649 54.3028 21.4914 58.0377 21.4914C59.8477 21.4914 61.5689 20.6746 62.2697 19.507V21.199H66.5299V6.8715L62.2697 6.87052Z"
            fill="white" />
        <path
            d="M5.26316 15.7895C5.26316 16.31 5.10882 16.8188 4.81966 17.2516C4.5305 17.6843 4.1195 18.0216 3.63864 18.2208C3.15778 18.42 2.62866 18.4721 2.11818 18.3706C1.60771 18.269 1.13881 18.0184 0.770773 17.6503C0.40274 17.2823 0.152106 16.8134 0.0505662 16.3029C-0.0509738 15.7925 0.00114023 15.2633 0.200318 14.7825C0.399496 14.3016 0.736792 13.8906 1.16955 13.6015C1.60231 13.3123 2.1111 13.158 2.63158 13.158H5.26316V15.7895Z"
            fill="#E01E5A" />
        <path
            d="M6.57812 15.7898C6.57812 15.0918 6.85538 14.4225 7.3489 13.929C7.84241 13.4355 8.51177 13.1582 9.2097 13.1582C9.90764 13.1582 10.577 13.4355 11.0705 13.929C11.564 14.4225 11.8413 15.0918 11.8413 15.7898V22.3687C11.8413 23.0667 11.564 23.736 11.0705 24.2295C10.577 24.7231 9.90764 25.0003 9.2097 25.0003C8.51177 25.0003 7.84241 24.7231 7.3489 24.2295C6.85538 23.736 6.57812 23.0667 6.57812 22.3687V15.7898Z"
            fill="#E01E5A" />
        <path
            d="M9.20971 5.26316C8.68923 5.26316 8.18044 5.10882 7.74768 4.81966C7.31492 4.5305 6.97762 4.1195 6.77844 3.63864C6.57927 3.15778 6.52715 2.62866 6.62869 2.11818C6.73023 1.60771 6.98087 1.13881 7.3489 0.770773C7.71693 0.40274 8.18583 0.152106 8.69631 0.0505662C9.20679 -0.0509738 9.73591 0.00114023 10.2168 0.200318C10.6976 0.399496 11.1086 0.736792 11.3978 1.16955C11.6869 1.60231 11.8413 2.1111 11.8413 2.63158V5.26316H9.20971Z"
            fill="#36C5F0" />
        <path
            d="M9.21053 6.5791C9.90846 6.5791 10.5778 6.85636 11.0713 7.34987C11.5649 7.84339 11.8421 8.51274 11.8421 9.21068C11.8421 9.90862 11.5649 10.578 11.0713 11.0715C10.5778 11.565 9.90846 11.8423 9.21053 11.8423H2.63158C1.93364 11.8423 1.26429 11.565 0.770772 11.0715C0.277255 10.578 0 9.90862 0 9.21068C0 8.51274 0.277255 7.84339 0.770772 7.34987C1.26429 6.85636 1.93364 6.5791 2.63158 6.5791H9.21053Z"
            fill="#36C5F0" />
        <path
            d="M19.7383 9.21068C19.7383 8.69021 19.8926 8.18142 20.1818 7.74866C20.4709 7.31589 20.8819 6.9786 21.3628 6.77942C21.8437 6.58024 22.3728 6.52813 22.8833 6.62967C23.3937 6.73121 23.8626 6.98184 24.2307 7.34987C24.5987 7.71791 24.8493 8.18681 24.9509 8.69729C25.0524 9.20776 25.0003 9.73689 24.8011 10.2177C24.6019 10.6986 24.2646 11.1096 23.8319 11.3988C23.3991 11.6879 22.8903 11.8423 22.3699 11.8423H19.7383V9.21068Z"
            fill="#2EB67D" />
        <path
            d="M18.4204 9.21053C18.4204 9.90846 18.1431 10.5778 17.6496 11.0713C17.1561 11.5649 16.4867 11.8421 15.7888 11.8421C15.0909 11.8421 14.4215 11.5649 13.928 11.0713C13.4345 10.5778 13.1572 9.90846 13.1572 9.21053V2.63158C13.1572 1.93364 13.4345 1.26429 13.928 0.770772C14.4215 0.277255 15.0909 0 15.7888 0C16.4867 0 17.1561 0.277255 17.6496 0.770772C18.1431 1.26429 18.4204 1.93364 18.4204 2.63158V9.21053Z"
            fill="#2EB67D" />
        <path
            d="M15.7888 19.7368C16.3093 19.7368 16.8181 19.8912 17.2508 20.1803C17.6836 20.4695 18.0209 20.8805 18.2201 21.3613C18.4192 21.8422 18.4714 22.3713 18.3698 22.8818C18.2683 23.3923 18.0176 23.8612 17.6496 24.2292C17.2816 24.5972 16.8127 24.8479 16.3022 24.9494C15.7917 25.051 15.2626 24.9988 14.7817 24.7997C14.3009 24.6005 13.8899 24.2632 13.6007 23.8304C13.3116 23.3977 13.1572 22.8889 13.1572 22.3684V19.7368H15.7888Z"
            fill="#ECB22E" />
        <path
            d="M15.7888 18.4211C15.0909 18.4211 14.4215 18.1439 13.928 17.6503C13.4345 17.1568 13.1572 16.4875 13.1572 15.7895C13.1572 15.0916 13.4345 14.4222 13.928 13.9287C14.4215 13.4352 15.0909 13.158 15.7888 13.158H22.3678C23.0657 13.158 23.735 13.4352 24.2286 13.9287C24.7221 14.4222 24.9993 15.0916 24.9993 15.7895C24.9993 16.4875 24.7221 17.1568 24.2286 17.6503C23.735 18.1439 23.0657 18.4211 22.3678 18.4211H15.7888Z"
            fill="#ECB22E" />

    </g>
    <defs>
        <clipPath id="clip0">
            <rect width="206.978" height="25" fill="white" />
        </clipPath>
    </defs>
</svg>