<svg width="150" height="40" viewBox="0 0 150 40" fill="none" xmlns="http://www.w3.org/2000/svg">
<path d="M63.2101 1.12598V17.9484H59.6307V10.9546H52.4693V17.9484H48.9121V1.12598H52.4693V7.53543H59.6307V1.12598H63.2101Z" fill="#101010"/>
<path d="M77.0151 6.1426V17.9434H73.6255V16.2597C72.8095 17.4923 71.5351 18.1825 69.8785 18.1825C66.8242 18.1825 64.3984 15.419 64.3984 12.0195C64.3984 8.62006 66.8242 5.89355 69.8785 5.89355C71.5351 5.89355 72.8095 6.58874 73.6255 7.81393V6.13273L77.0151 6.1426ZM73.6255 12.0294C73.6266 11.643 73.5504 11.2603 73.4015 10.9038C73.2526 10.5473 73.0338 10.2243 72.7582 9.95351C72.4826 9.68273 72.1557 9.46972 71.7966 9.3271C71.4375 9.18448 71.0536 9.11507 70.6673 9.12296C70.282 9.11873 69.8996 9.19064 69.5422 9.33457C69.1848 9.47849 68.8593 9.69164 68.5844 9.96169C68.3096 10.2317 68.0908 10.5534 67.9406 10.9083C67.7903 11.2631 67.7117 11.6441 67.7091 12.0294C67.7097 12.4154 67.787 12.7974 67.9365 13.1533C68.086 13.5092 68.3047 13.8318 68.58 14.1024C68.8552 14.3731 69.1815 14.5863 69.5398 14.7298C69.8981 14.8733 70.2813 14.9441 70.6673 14.9383C71.0543 14.9482 71.4395 14.8801 71.7996 14.7381C72.1598 14.596 72.4876 14.383 72.7637 14.1116C73.0397 13.8401 73.2582 13.5158 73.4063 13.1581C73.5544 12.8004 73.6289 12.4165 73.6255 12.0294Z" fill="#101010"/>
<path d="M78.3604 12.055C78.3604 8.54701 81.0054 5.9043 84.4887 5.9043C87.4469 5.9043 89.9441 7.92086 90.2572 10.6375H86.8208C86.5743 9.7722 85.6203 9.15837 84.4887 9.15837C82.879 9.15837 81.6785 10.391 81.6785 12.0648C81.6785 13.6992 82.879 14.949 84.4887 14.949C85.6203 14.949 86.6039 14.2761 86.8455 13.364H90.2819C90.0181 16.1743 87.4938 18.1932 84.4887 18.1932C81.0054 18.1833 78.3604 15.5654 78.3604 12.055Z" fill="#101010"/>
<path d="M99.3123 17.9434L95.0326 12.6556V17.9434H91.6406V1.12598H95.0278V11.0261L99.115 6.14756H103.271L98.3681 11.8445L103.656 17.9484L99.3123 17.9434Z" fill="#101010"/>
<path d="M59.2725 33.2727H52.7816L51.7019 36.083H47.9277L54.6083 19.2607H57.4926L64.1979 36.083H60.3324L59.2725 33.2727ZM58.094 30.2184L56.0504 24.837L53.9599 30.2184H58.094Z" fill="#101010"/>
<path d="M63.7656 30.1942C63.7656 26.6838 66.4107 24.0312 69.894 24.0312C72.8522 24.0312 75.3494 26.0502 75.6625 28.7668H72.2261C71.9795 27.9016 71.0231 27.2755 69.894 27.2755C68.2843 27.2755 67.0837 28.508 67.0837 30.1843C67.0837 31.8187 68.2843 33.0686 69.894 33.0686C71.0231 33.0686 72.0091 32.3956 72.2507 31.4811H75.6872C75.4209 34.2938 72.8991 36.3128 69.894 36.3128C66.4107 36.3227 63.7656 33.7021 63.7656 30.1942Z" fill="#101010"/>
<path d="M89.3618 24.2846V36.0829H85.9698V34.4066C85.1514 35.6392 83.8794 36.3294 82.2203 36.3294C79.1684 36.3294 76.7402 33.5659 76.7402 30.1665C76.7402 26.767 79.1684 24.0381 82.2203 24.0381C83.8794 24.0381 85.1514 24.7358 85.9698 25.961V24.2797L89.3618 24.2846ZM85.9722 30.1714C85.9736 29.7848 85.8977 29.4019 85.7489 29.0451C85.6002 28.6883 85.3816 28.365 85.1059 28.0939C84.8303 27.8229 84.5032 27.6097 84.1439 27.4669C83.7847 27.3242 83.4005 27.2547 83.014 27.2626C82.6286 27.2586 82.2463 27.3308 81.8888 27.475C81.5314 27.6192 81.2059 27.8326 80.931 28.1029C80.6562 28.3731 80.4375 28.6949 80.2873 29.0499C80.1371 29.4049 80.0584 29.786 80.0558 30.1714C80.0564 30.5574 80.1338 30.9394 80.2833 31.2953C80.4328 31.6512 80.6515 31.9739 80.9267 32.2445C81.2019 32.5152 81.5282 32.7284 81.8865 32.8719C82.2449 33.0154 82.6281 33.0863 83.014 33.0804C83.4008 33.09 83.7858 33.0217 84.1456 32.8795C84.5055 32.7373 84.833 32.5241 85.1088 32.2527C85.3846 31.9813 85.603 31.6572 85.7509 31.2996C85.8988 30.9421 85.9733 30.5583 85.9698 30.1714H85.9722Z" fill="#101010"/>
<path d="M103.203 19.2608V36.0831H99.8131V34.4068C98.9972 35.6394 97.7226 36.3296 96.066 36.3296C93.0117 36.3296 90.5859 33.5661 90.5859 30.1667C90.5859 26.7672 93.0117 24.0383 96.066 24.0383C97.7226 24.0383 98.9972 24.736 99.8131 25.9612V19.2559L103.203 19.2608ZM99.8131 30.1716C99.8145 29.785 99.7385 29.4021 99.5897 29.0453C99.4409 28.6885 99.2223 28.3652 98.9467 28.0941C98.6711 27.8231 98.3441 27.6099 97.9848 27.4671C97.6256 27.3244 97.2414 27.2548 96.8549 27.2627C96.4695 27.2588 96.087 27.331 95.7296 27.4752C95.3721 27.6194 95.0466 27.8328 94.7718 28.103C94.497 28.3733 94.2782 28.6951 94.1281 29.0501C93.9779 29.4051 93.8993 29.7862 93.8967 30.1716C93.8973 30.5576 93.9746 30.9396 94.1241 31.2955C94.2736 31.6514 94.4922 31.9741 94.7675 32.2447C95.0427 32.5154 95.369 32.7286 95.7273 32.8721C96.0856 33.0156 96.469 33.0864 96.8549 33.0806C97.2419 33.0905 97.627 33.0224 97.9871 32.8804C98.3473 32.7384 98.6751 32.5252 98.9512 32.2537C99.2272 31.9823 99.4459 31.6581 99.5939 31.3004C99.742 30.9427 99.8166 30.5587 99.8131 30.1716Z" fill="#101010"/>
<path d="M116.453 30.9873H107.679C107.926 32.5256 109.097 33.5117 110.684 33.5117C112.006 33.5117 112.846 32.9349 113.038 32.1189H116.357C115.97 34.6655 113.736 36.3244 110.78 36.3244C109.963 36.3344 109.152 36.1808 108.396 35.8726C107.639 35.5643 106.951 35.1078 106.373 34.5298C105.796 33.9519 105.339 33.2641 105.031 32.5071C104.724 31.7502 104.57 30.9393 104.581 30.1221C104.573 29.3174 104.726 28.5192 105.032 27.7748C105.337 27.0304 105.789 26.3548 106.361 25.7881C106.932 25.2213 107.611 24.7748 108.358 24.4751C109.105 24.1754 109.904 24.0284 110.709 24.043C111.469 24.0335 112.224 24.1752 112.929 24.4596C113.634 24.744 114.276 25.1656 114.817 25.6999C115.358 26.2342 115.787 26.8705 116.08 27.5721C116.373 28.2737 116.524 29.0264 116.524 29.7868C116.524 30.0506 116.5 30.6028 116.453 30.9873ZM113.002 28.8254C112.905 27.6248 111.823 26.7817 110.573 26.7817C109.277 26.7817 108.266 27.4326 107.862 28.8254H113.002Z" fill="#101010"/>
<path d="M136.43 28.7529V36.0819H133.018V29.5467C133.018 28.1515 132.224 27.2862 130.999 27.2862C129.87 27.2862 128.859 28.0257 128.859 29.5467V36.0819H125.472V29.5467C125.472 28.1515 124.678 27.2862 123.428 27.2862C122.324 27.2862 121.338 28.0085 121.338 29.5467V36.0819H117.948V24.2836H121.338V25.701C122.228 24.4019 123.621 24.042 124.703 24.042C126.241 24.042 127.321 24.5474 128.043 25.7676C128.738 24.7594 130.109 24.042 131.598 24.042C134.411 24.0519 136.43 25.8933 136.43 28.7529Z" fill="#101010"/>
<path d="M149.299 24.2843L142.737 39.9998H139.108L141.295 35.1212L136.754 24.2744H140.407L143.025 31.1769L145.646 24.2744L149.299 24.2843Z" fill="#101010"/>
<path d="M146.178 38.4389C146.176 38.2295 146.218 38.0222 146.301 37.83C146.379 37.6459 146.492 37.4786 146.634 37.337C146.775 37.1948 146.943 37.0809 147.127 37.0017C147.319 36.9201 147.527 36.879 147.736 36.8809C147.944 36.8792 148.15 36.9203 148.342 37.0017C148.526 37.0817 148.693 37.1955 148.835 37.337C148.977 37.4791 149.09 37.6463 149.171 37.83C149.252 38.0226 149.294 38.2297 149.294 38.4389C149.295 38.6482 149.253 38.8555 149.171 39.0478C149.09 39.2314 148.976 39.3985 148.835 39.5409C148.693 39.6823 148.526 39.796 148.342 39.8761C148.151 39.9595 147.944 40.0015 147.736 39.9993C147.526 40.0018 147.319 39.9598 147.127 39.8761C146.943 39.7968 146.775 39.6831 146.634 39.5409C146.493 39.399 146.38 39.2317 146.301 39.0478C146.217 38.8559 146.175 38.6483 146.178 38.4389ZM146.55 38.4389C146.55 38.5981 146.581 38.7559 146.644 38.9024C146.701 39.0429 146.785 39.1709 146.89 39.2795C147 39.3854 147.129 39.4691 147.27 39.526C147.416 39.5885 147.574 39.6203 147.733 39.6197C147.893 39.6206 148.05 39.5887 148.197 39.526C148.338 39.4691 148.467 39.3854 148.576 39.2795C148.682 39.1708 148.766 39.0428 148.823 38.9024C148.884 38.7557 148.915 38.5979 148.914 38.4389C148.916 38.279 148.885 38.1206 148.823 37.973C148.766 37.8327 148.682 37.7046 148.576 37.5958C148.466 37.4906 148.338 37.407 148.197 37.3493C148.05 37.2871 147.893 37.2552 147.733 37.2556C147.574 37.255 147.416 37.2869 147.27 37.3493C147.129 37.407 147 37.4906 146.89 37.5958C146.785 37.7045 146.701 37.8326 146.644 37.973C146.581 38.1204 146.55 38.2788 146.55 38.4389ZM147.162 39.1784V37.6845H147.869C147.934 37.6805 147.999 37.6894 148.06 37.7105C148.121 37.7317 148.178 37.7647 148.226 37.8078C148.273 37.8575 148.308 37.9162 148.331 37.9803C148.353 38.0443 148.362 38.1124 148.357 38.1801C148.364 38.2912 148.336 38.4017 148.276 38.4956C148.221 38.5662 148.148 38.6201 148.064 38.651L148.369 39.1784H147.975L147.689 38.6731H147.534V39.1784H147.162ZM147.534 38.3822H147.867C147.884 38.3841 147.901 38.3816 147.917 38.3752C147.933 38.3687 147.947 38.3585 147.958 38.3452C147.975 38.3189 147.985 38.2881 147.985 38.2565V38.1036C147.987 38.0875 147.986 38.071 147.981 38.0555C147.976 38.04 147.967 38.026 147.956 38.0144C147.944 38.0029 147.93 37.9942 147.915 37.9892C147.899 37.9841 147.883 37.9828 147.867 37.9853H147.534V38.3822Z" fill="#101010"/>
<path d="M32.6093 0V4.65918H37.266V37.266H0V0H32.6093Z" fill="#FF4F14"/>
<path d="M23.2924 11.6371V6.98535H18.6357V11.6445H23.2924V16.2864H13.9766V6.98535H9.31738V30.2467H13.9766V20.9456H23.2924V30.2467H27.9516V11.6371H23.2924Z" fill="white"/>
</svg>
