<svg xmlns="http://www.w3.org/2000/svg" width="260" height="61" viewBox="0 0 260 61">
    <g fill="#CCE7FF" fill-rule="evenodd">
        <path d="M239.55 35.28c2.214 0 4.076-.792 5.584-2.382 1.509-1.587 2.264-3.67 2.264-6.252 0-2.579-.755-4.662-2.264-6.25-1.508-1.587-3.37-2.382-5.583-2.382-2.264 0-4.138.795-5.622 2.382-1.485 1.588-2.226 3.671-2.226 6.25 0 2.582.741 4.665 2.226 6.252 1.484 1.59 3.358 2.382 5.622 2.382m-14.677-22.698C228.722 8.859 233.614 7 239.551 7c5.935 0 10.828 1.86 14.676 5.582 3.848 3.72 5.773 8.41 5.773 14.064 0 5.657-1.925 10.346-5.773 14.067-3.848 3.722-8.741 5.584-14.676 5.584-5.937 0-10.829-1.862-14.677-5.584-3.847-3.72-5.772-8.41-5.772-14.067 0-5.654 1.925-10.344 5.772-14.064m-71.397-4.54h11.522l.377 3.795c.151.944.05 1.737-.303 2.382h.151c.756-1.587 1.963-3.015 3.623-4.28a13.231 13.231 0 0 1 5.584-2.493c1.308-.346 2.514-.446 3.623-.299 4.929.25 8.325 2.457 10.186 6.626C191.66 9.258 195.734 7 200.464 7c4.075 0 7.256 1.264 9.545 3.795 2.289 2.53 3.433 6.277 3.433 11.239V44.56a.696.696 0 0 1-.702.693h-12.026a.698.698 0 0 1-.703-.693V23.745c0-3.224-1.258-4.839-3.774-4.839-2.514 0-4.2.932-5.055 2.791-.855 1.862-1.282 4.455-1.282 7.778V44.56a.698.698 0 0 1-.702.693h-12.102a.696.696 0 0 1-.702-.693V23.745c0-3.224-1.235-4.839-3.699-4.839-2.516 0-4.214.932-5.093 2.791-.882 1.862-1.321 4.455-1.321 7.778V44.56a.696.696 0 0 1-.703.693h-12.101a.698.698 0 0 1-.703-.693V8.735c0-.384.316-.693.703-.693m-45.014 51.664V49.368c0-.465.452-.79.905-.66a13.54 13.54 0 0 0 3.774.519c3.671 0 5.047-.179 6.96-3.75l-15-36.48a.695.695 0 0 1 .651-.955h13.074c.309 0 .582.199.673.49l3.772 12.161c1.71 5.557 2.868 9.75 3.471 12.579.2-.347.804-2.395 1.812-6.14 1.005-3.748 1.607-5.893 1.809-6.439l3.772-12.162c.09-.29.364-.49.673-.49h13.023c.492 0 .831.486.657.94l-14.2 36.718c-4.076 10.817-9.149 14.84-18.054 15.287-1.862.048-3.472-.025-4.829-.224-1.117-.106-1.937-.239-2.461-.397a.685.685 0 0 1-.482-.66M83.581 35.28c2.213 0 4.037-.792 5.47-2.382 1.435-1.587 2.15-3.67 2.15-6.252 0-2.579-.728-4.662-2.188-6.25-1.458-1.587-3.27-2.382-5.432-2.382-2.112 0-3.913.77-5.396 2.308-1.483 1.537-2.226 3.645-2.226 6.324 0 2.681.743 4.79 2.226 6.327 1.483 1.538 3.284 2.307 5.396 2.307M62 58.838V8.735c0-.384.316-.693.703-.693H74.15l.3 2.753-.151 2.382h.151c.855-1.786 2.378-3.264 4.566-4.428C81.204 7.583 83.606 7 86.22 7c4.98 0 9.156 1.76 12.527 5.283 3.37 3.523 5.055 8.313 5.055 14.363 0 7.244-2.375 12.675-7.128 16.295-3.033 2.312-6.785 3.439-10.618 3.35-2.278-.054-4.336-.498-6.174-1.335-1.961-.894-3.472-2.058-4.528-3.498h-.15c.15.645.226 1.687.226 3.125v14.255a.698.698 0 0 1-.703.695H62.703a.7.7 0 0 1-.703-.695M13 35h22v-2H13v2zm0 7h22v-2H13v2zm1-26h3V9h-3v7zm4.954 5.101a6.159 6.159 0 0 0 4.996 2.549A6.14 6.14 0 0 0 29.02 21L31 22.316A8.538 8.538 0 0 1 23.95 26c-2.759 0-5.357-1.325-6.95-3.544l1.954-1.355zM31 16h3V9h-3v7zM7 44.45C7 45.857 5.878 47 4.5 47S2 45.856 2 44.45V27h5v17.45zM40.596.187A.98.98 0 0 0 40.019 0H8.399a.982.982 0 0 0-.982.977v24.134h-6.34c-.595 0-1.077.481-1.077 1.074v18.878c0 2.169 1.467 3.998 3.462 4.564a4.157 4.157 0 0 0 1.72.373h31.62c.175 0 .346-.014.514-.035h.123c1.966 0 3.56-1.59 3.56-3.551v-.596l.001-.002V.978a.984.984 0 0 0-.404-.792z"/>
    </g>
</svg>
