<svg width="1240" height="512" viewBox="0 0 1240 512" fill="none" xmlns="http://www.w3.org/2000/svg">
<path d="M438.39 257.12C438.39 230.57 458.51 211.91 485.54 211.91C512.57 211.91 532.81 230.58 532.81 257.12C532.81 282.94 512.57 302.33 485.54 302.33C458.51 302.33 438.39 282.94 438.39 257.12ZM506.51 257.12C506.51 243.91 497.42 234.82 485.51 234.82C473.6 234.82 464.51 243.91 464.51 257.12C464.51 269.97 473.72 279.3 485.51 279.3C497.3 279.3 506.51 270 506.51 257.12Z" fill="#2F2D2D"/>
<path d="M542.72 214.23H574.82C597.96 214.23 609.34 224.41 609.34 243.55C609.34 261.36 598.2 272.02 578.34 272.02H567.92V300.02H542.72V214.23ZM574.1 252.87C581.61 252.87 585.37 249.87 585.37 243.54C585.37 236.88 581.49 233.97 574.1 233.97H567.92V252.87H574.1Z" fill="#2F2D2D"/>
<path d="M618.11 214.28H642.81V246H669.21V214.28H693.91V300H669.21V267.68H642.81V300H618.11V214.28Z" fill="#2F2D2D"/>
<path d="M765.85 214.3V277.63H801.45L798.67 300H741.15V214.3H765.85Z" fill="#2F2D2D"/>
<path d="M904.38 214.31H934.91C956.6 214.31 966.65 222.91 966.65 237.09C966.65 245.57 961.08 252.6 952.72 255.02V255.38C964.23 258.17 970.77 265.19 970.77 275.85C970.77 291.48 959.99 300.08 936.24 300.08H904.38V214.31ZM934.06 247.5C940.6 247.5 943.63 244.83 943.63 240.23C943.63 235.38 940.63 232.72 933.82 232.72H929.1V247.5H934.06ZM935.06 280.94C943.3 280.94 946.81 278.03 946.81 272.46C946.81 267.25 943.18 264.22 935.3 264.22H929.12V280.94H935.06Z" fill="#2F2D2D"/>
<path d="M705.59 238.61H729.39V300H705.59V238.61Z" fill="#2F2D2D"/>
<path d="M717.48 231.72C724.936 231.72 730.98 225.984 730.98 218.91C730.98 211.835 724.936 206.1 717.48 206.1C710.025 206.1 703.98 211.835 703.98 218.91C703.98 225.984 710.025 231.72 717.48 231.72Z" fill="#2F2D2D"/>
<path d="M364.19 284.66C364.19 284.66 380.11 273.54 380.61 273.2C381.83 272.38 383.61 273.83 384 274.29C385.61 276.568 387.744 278.424 390.223 279.701C392.702 280.979 395.452 281.641 398.24 281.63C403.33 281.63 406.6 279.33 406.6 276.18C406.6 272.54 404.3 270.61 389.88 264.55C374.13 258.01 368.19 250.49 368.19 237.55C368.19 223.13 381.88 211.98 400.3 211.98C413.87 211.98 425.14 217.67 432.41 227.98C432.41 227.98 417.17 239.34 416.32 239.98C415.729 240.282 415.05 240.366 414.403 240.218C413.756 240.07 413.182 239.699 412.78 239.17C411.365 237.243 409.525 235.667 407.402 234.566C405.279 233.464 402.931 232.867 400.54 232.82C395.94 232.82 393.63 234.76 393.63 237.55C393.63 240.34 394.96 241.67 410.23 248.21C426.23 254.99 432.16 262.75 432.16 273.65C432.16 290.25 418.1 302.49 398.36 302.49C384.06 302.47 371.94 296.3 364.19 284.66Z" fill="#2F2D2D"/>
<path d="M975.37 284.68C975.37 284.68 991.29 273.56 991.79 273.22C993.01 272.4 994.79 273.85 995.18 274.31C996.79 276.587 998.924 278.443 1001.4 279.721C1003.88 280.999 1006.63 281.66 1009.42 281.65C1014.51 281.65 1017.78 279.35 1017.78 276.2C1017.78 272.56 1015.48 270.63 1001.06 264.57C985.31 258.03 979.37 250.51 979.37 237.57C979.37 223.15 993.06 212 1011.48 212C1025.05 212 1036.32 217.69 1043.59 228C1043.59 228 1028.35 239.36 1027.5 240C1026.91 240.302 1026.23 240.386 1025.58 240.238C1024.94 240.09 1024.36 239.719 1023.96 239.19C1022.55 237.262 1020.7 235.686 1018.58 234.585C1016.46 233.484 1014.11 232.887 1011.72 232.84C1007.12 232.84 1004.81 234.78 1004.81 237.57C1004.81 240.36 1006.14 241.69 1021.41 248.23C1037.41 255.01 1043.34 262.77 1043.34 273.67C1043.34 290.27 1029.28 302.51 1009.54 302.51C995.24 302.49 983.12 296.31 975.37 284.68Z" fill="#2F2D2D"/>
<path d="M863.61 287H836.61L832.73 300H803.55L835.64 214.26H865.19L896.68 300H867.61L863.61 287ZM858.16 268.59L854.41 256.24C853.08 251.4 850.29 240.33 850.29 240.33H849.68C849.68 240.33 847.02 251.39 845.56 256.24L841.93 268.59H858.16Z" fill="#2F2D2D"/>
<path fill-rule="evenodd" clip-rule="evenodd" d="M288.065 208.717C278.396 203.142 267.268 200.677 256.171 201.652L255.403 201.719C241.365 203.197 228.422 210.092 219.306 220.984C210.022 232.075 205.46 246.413 206.617 260.879C207.773 275.345 214.555 288.76 225.479 298.212C235.361 306.762 247.911 311.443 260.845 311.499C260.524 307.257 261.286 302.974 263.095 299.072C265.553 293.768 269.79 289.5 275.067 287.021C280.345 284.541 286.324 284.011 291.953 285.524C296.086 286.635 299.835 288.795 302.858 291.762C309.091 284.245 313.237 275.165 314.83 265.449C316.646 254.369 315.054 242.995 310.268 232.854C305.483 222.714 297.734 214.293 288.065 208.717ZM257.28 194.107C269.312 193.397 281.302 196.226 291.78 202.268C302.768 208.604 311.566 218.169 316.996 229.676C322.427 241.184 324.232 254.086 322.172 266.653C320.112 279.221 314.284 290.858 305.466 300.001L302.326 303.257L299.738 299.547C297.394 296.187 293.953 293.769 290.022 292.713C286.092 291.656 281.918 292.026 278.23 293.759C274.541 295.492 271.571 298.479 269.844 302.203C268.118 305.928 267.748 310.147 268.802 314.12L269.954 318.467L265.47 318.787C249.142 319.951 233.021 314.578 220.612 303.842C208.204 293.107 200.512 277.879 199.2 261.472C197.888 245.066 203.062 228.798 213.602 216.205C224.142 203.611 239.2 195.711 255.503 194.23L257.245 194.072L257.28 194.107Z" fill="#2F2D2D"/>
</svg>
